<?xml version="1.0" encoding="UTF-8"?>
<!DOCTYPE svg PUBLIC "-//W3C//DTD SVG 1.1//EN" "http://www.w3.org/Graphics/SVG/1.1/DTD/svg11.dtd">
<!-- Creator: CorelDRAW -->
<svg xmlns="http://www.w3.org/2000/svg" xml:space="preserve" width="2048px" height="2048px" style="shape-rendering:geometricPrecision; text-rendering:geometricPrecision; image-rendering:optimizeQuality; fill-rule:evenodd; clip-rule:evenodd"
viewBox="0 0 2048 2048"
 xmlns:xlink="http://www.w3.org/1999/xlink">
 <defs>
  <style type="text/css">
   <![CDATA[
    .fil2 {fill:none}
    .fil1 {fill:#039BE5}
    .fil3 {fill:#0D47A1}
    .fil0 {fill:#4FC3F7}
    .fil8 {fill:#B3E5FC}
    .fil9 {fill:black;fill-rule:nonzero}
    .fil6 {fill:#212121;fill-rule:nonzero}
    .fil4 {fill:#424242;fill-rule:nonzero}
    .fil7 {fill:#E1F5FE;fill-rule:nonzero}
    .fil5 {fill:#FFD3AE;fill-rule:nonzero}
   ]]>
  </style>
   <clipPath id="id0">
    <path d="M1024 0c565.539,0 1024,458.461 1024,1024 0,565.539 -458.461,1024 -1024,1024 -565.539,0 -1024,-458.461 -1024,-1024 0,-565.539 458.461,-1024 1024,-1024z"/>
   </clipPath>
 </defs>
 <g id="Layer_x0020_1">
  <metadata id="CorelCorpID_0Corel-Layer"/>
  <path class="fil0" d="M1024 0c565.539,0 1024,458.461 1024,1024 0,565.539 -458.461,1024 -1024,1024 -565.539,0 -1024,-458.461 -1024,-1024 0,-565.539 458.461,-1024 1024,-1024z"/>
  <g style="clip-path:url(#id0)">
   <g id="_478229560">
    <g>
     <polygon id="_3807625121" class="fil1" points="1448.04,918.943 2583.92,2054.83 2583.74,2056.61 2583.52,2058.38 2583.26,2060.14 2582.95,2061.89 2582.6,2063.63 2582.21,2065.35 2581.78,2067.06 2581.31,2068.76 2580.79,2070.45 2580.24,2072.11 2579.64,2073.77 2579.01,2075.4 2578.34,2077.02 2577.62,2078.62 2576.87,2080.21 2576.08,2081.77 2575.26,2083.32 2574.39,2084.84 2573.49,2086.35 2572.56,2087.83 2571.58,2089.29 2570.57,2090.73 2569.53,2092.15 2568.45,2093.54 2567.34,2094.91 2566.19,2096.25 2565.01,2097.57 2563.79,2098.86 2562.54,2100.12 2561.26,2101.36 2559.95,2102.57 2558.6,2103.74 1422.72,967.862 1424.07,966.683 1425.38,965.475 1426.66,964.24 1427.91,962.976 1429.13,961.685 1430.31,960.368 1431.46,959.026 1432.57,957.659 1433.65,956.266 1434.69,954.851 1435.7,953.413 1436.68,951.95 1437.61,950.467 1438.51,948.962 1439.38,947.437 1440.2,945.891 1440.99,944.326 1441.74,942.742 1442.45,941.141 1443.13,939.522 1443.76,937.885 1444.36,936.232 1444.91,934.563 1445.42,932.88 1445.9,931.182 1446.33,929.47 1446.72,927.745 1447.07,926.007 1447.38,924.258 1447.64,922.497 1447.86,920.726 "/>
     <polygon id="_380777920" class="fil1" points="1422.72,967.862 2558.6,2103.74 2557.24,2104.65 1421.36,968.765 "/>
     <polygon id="_462036440" class="fil1" points="1421.36,968.765 2557.24,2104.65 2555.79,2105.55 2554.32,2106.42 2552.84,2107.25 2551.34,2108.05 2549.82,2108.81 2548.3,2109.54 2546.75,2110.24 2545.2,2110.9 2543.63,2111.52 2542.04,2112.12 2540.45,2112.67 2538.85,2113.19 2537.23,2113.68 2535.61,2114.13 2533.98,2114.55 2532.34,2114.93 2530.69,2115.28 2529.03,2115.59 2527.36,2115.86 2525.69,2116.1 2524.02,2116.3 2522.34,2116.47 2520.65,2116.6 2518.97,2116.7 2517.27,2116.76 2515.58,2116.78 2513.88,2116.77 2512.19,2116.72 2510.49,2116.63 2508.79,2116.51 2507.09,2116.35 2505.39,2116.15 1369.51,980.271 1371.21,980.467 1372.91,980.626 1374.6,980.749 1376.3,980.835 1378,980.885 1379.7,980.898 1381.39,980.876 1383.08,980.815 1384.77,980.72 1386.46,980.589 1388.14,980.421 1389.81,980.218 1391.48,979.978 1393.15,979.704 1394.81,979.393 1396.46,979.047 1398.1,978.666 1399.73,978.25 1401.35,977.798 1402.97,977.311 1404.57,976.789 1406.16,976.233 1407.75,975.641 1409.31,975.014 1410.87,974.354 1412.41,973.658 1413.94,972.928 1415.46,972.164 1416.96,971.365 1418.44,970.533 1419.91,969.666 "/>
     <polygon id="_462022496" class="fil1" points="1369.51,980.271 2505.39,2116.15 2503.67,2115.91 2501.96,2115.61 2500.26,2115.27 2498.57,2114.87 2496.9,2114.43 2495.23,2113.95 2493.58,2113.42 2491.94,2112.85 2490.31,2112.24 2488.7,2111.59 2487.1,2110.9 2485.51,2110.17 2483.93,2109.42 2482.37,2108.62 2480.82,2107.8 2479.29,2106.95 2477.77,2106.07 2476.26,2105.16 2474.77,2104.23 2473.29,2103.27 2471.83,2102.3 2470.38,2101.3 2468.95,2100.28 2467.54,2099.24 2466.14,2098.19 2464.75,2097.13 2463.38,2096.05 2462.03,2094.96 2460.69,2093.86 2459.37,2092.75 2458.07,2091.63 2456.78,2090.51 1320.9,954.63 1322.19,955.751 1323.49,956.866 1324.81,957.974 1326.15,959.075 1327.5,960.165 1328.87,961.243 1330.25,962.309 1331.65,963.361 1333.07,964.396 1334.5,965.414 1335.95,966.413 1337.41,967.391 1338.89,968.346 1340.38,969.279 1341.89,970.187 1343.41,971.066 1344.94,971.919 1346.49,972.741 1348.05,973.533 1349.63,974.291 1351.22,975.015 1352.82,975.704 1354.43,976.353 1356.06,976.965 1357.7,977.537 1359.35,978.066 1361.02,978.551 1362.69,978.992 1364.38,979.385 1366.08,979.73 1367.79,980.026 "/>
     <polygon id="_462043040" class="fil1" points="1320.9,954.63 2456.78,2090.51 2329.23,1978.41 1193.35,842.523 "/>
     <polygon id="_462035720" class="fil1" points="1193.35,842.523 2329.23,1978.41 2230.07,2023.7 1094.19,887.814 "/>
     <polygon id="_462022688" class="fil1" points="1336.87,1059.28 2472.75,2195.17 2472.35,2195.62 1336.47,1059.74 "/>
     <polygon id="_462026144" class="fil1" points="1336.47,1059.74 2472.35,2195.62 2471.25,2196.84 2470.15,2198.05 2469.03,2199.24 2467.9,2200.43 2466.76,2201.61 2465.6,2202.77 2464.44,2203.92 2463.26,2205.06 2462.06,2206.18 2460.86,2207.29 2459.65,2208.39 2458.42,2209.48 2457.18,2210.54 2455.92,2211.6 2454.66,2212.64 2453.38,2213.66 2452.09,2214.67 2450.78,2215.66 2449.47,2216.63 2448.14,2217.58 2446.8,2218.52 2445.45,2219.44 2444.08,2220.34 2442.7,2221.22 2441.31,2222.08 2439.91,2222.92 2438.49,2223.75 2437.06,2224.55 2435.62,2225.33 2434.17,2226.09 2432.7,2226.82 2431.22,2227.53 1295.34,1091.65 1296.82,1090.94 1298.29,1090.2 1299.74,1089.44 1301.18,1088.67 1302.61,1087.86 1304.03,1087.04 1305.43,1086.2 1306.82,1085.34 1308.2,1084.46 1309.57,1083.56 1310.92,1082.64 1312.26,1081.7 1313.59,1080.75 1314.9,1079.77 1316.21,1078.78 1317.5,1077.78 1318.78,1076.76 1320.04,1075.72 1321.29,1074.66 1322.53,1073.59 1323.76,1072.51 1324.98,1071.41 1326.18,1070.3 1327.37,1069.17 1328.55,1068.04 1329.72,1066.89 1330.88,1065.72 1332.02,1064.55 1333.15,1063.36 1334.27,1062.16 1335.37,1060.96 "/>
     <polygon id="_462044912" class="fil1" points="1295.34,1091.65 2431.22,2227.53 2429.71,2228.24 2428.19,2228.91 2426.67,2229.57 2425.13,2230.21 2423.59,2230.82 2422.05,2231.41 2420.5,2231.98 2418.93,2232.53 2417.37,2233.06 2415.79,2233.56 2414.22,2234.05 2412.63,2234.51 2411.04,2234.95 2409.44,2235.36 2407.84,2235.76 2406.23,2236.13 2404.62,2236.48 2403.01,2236.81 2401.38,2237.11 2399.76,2237.4 2398.13,2237.66 2396.5,2237.9 2394.86,2238.11 2393.22,2238.3 2391.57,2238.48 2389.92,2238.62 2388.27,2238.75 2386.62,2238.85 2384.96,2238.93 2383.3,2238.99 2381.64,2239.02 2379.97,2239.03 1244.09,1103.15 1245.76,1103.14 1247.42,1103.11 1249.08,1103.05 1250.74,1102.97 1252.39,1102.87 1254.04,1102.74 1255.69,1102.59 1257.33,1102.42 1258.98,1102.23 1260.61,1102.01 1262.25,1101.77 1263.88,1101.51 1265.5,1101.23 1267.12,1100.93 1268.74,1100.6 1270.35,1100.25 1271.96,1099.87 1273.56,1099.48 1275.16,1099.06 1276.75,1098.62 1278.33,1098.16 1279.91,1097.68 1281.49,1097.18 1283.05,1096.65 1284.61,1096.1 1286.17,1095.53 1287.71,1094.94 1289.25,1094.32 1290.79,1093.69 1292.31,1093.03 1293.83,1092.35 "/>
     <polygon id="_462025016" class="fil1" points="1244.09,1103.15 2379.97,2239.03 2377.9,2239.02 2375.83,2238.96 2373.76,2238.87 2371.7,2238.75 2369.65,2238.59 2367.6,2238.4 2365.55,2238.17 2363.52,2237.91 2361.49,2237.61 2359.46,2237.28 2357.45,2236.91 2355.44,2236.51 2353.44,2236.08 2351.44,2235.61 2349.46,2235.1 2347.49,2234.56 2345.52,2233.99 2343.57,2233.39 2341.62,2232.75 2339.69,2232.08 2337.76,2231.37 2335.85,2230.63 2333.95,2229.86 2332.06,2229.06 2330.19,2228.22 2328.32,2227.35 2326.47,2226.44 2324.64,2225.51 2322.82,2224.54 2321.01,2223.54 2319.21,2222.5 2317.43,2221.44 1181.55,1085.56 1183.33,1086.62 1185.13,1087.66 1186.93,1088.66 1188.76,1089.63 1190.59,1090.56 1192.44,1091.47 1194.31,1092.34 1196.18,1093.17 1198.07,1093.98 1199.97,1094.75 1201.88,1095.49 1203.81,1096.2 1205.74,1096.87 1207.68,1097.51 1209.64,1098.11 1211.6,1098.68 1213.58,1099.22 1215.56,1099.72 1217.55,1100.19 1219.56,1100.63 1221.56,1101.03 1223.58,1101.4 1225.6,1101.73 1227.64,1102.03 1229.67,1102.29 1231.72,1102.52 1233.77,1102.71 1235.82,1102.87 1237.88,1102.99 1239.95,1103.08 1242.02,1103.13 "/>
     <polygon id="_462031856" class="fil1" points="1137.11,1043.28 2272.99,2179.16 2256.05,2198.44 1120.17,1062.56 "/>
     <polygon id="_462016952" class="fil1" points="1181.55,1085.56 2317.43,2221.44 2315.53,2220.25 2313.64,2219.02 2311.78,2217.76 2309.94,2216.46 2308.13,2215.13 2306.34,2213.77 2304.58,2212.37 2302.85,2210.95 2301.14,2209.48 2299.46,2207.99 2297.81,2206.47 2296.19,2204.91 2294.59,2203.33 1158.71,1067.45 1160.31,1069.03 1161.93,1070.59 1163.58,1072.11 1165.26,1073.6 1166.97,1075.06 1168.7,1076.49 1170.46,1077.89 1172.25,1079.25 1174.06,1080.58 1175.9,1081.88 1177.76,1083.14 1179.64,1084.37 "/>
     <polygon id="_462033512" class="fil1" points="770.336,753.185 1906.22,1889.07 1906.22,1889.07 1906.22,1889.07 1906.22,1889.08 770.343,753.195 770.34,753.192 770.338,753.188 "/>
     <polygon id="_462027488" class="fil1" points="792.138,807.702 1928.02,1943.58 1928.52,1946.79 1928.95,1950.02 1929.3,1953.25 1929.58,1956.5 1929.78,1959.75 1929.91,1963.01 1929.95,1966.27 1929.93,1969.54 1929.82,1972.81 1929.64,1976.08 1929.38,1979.35 1929.05,1982.61 1928.63,1985.88 1928.14,1989.14 1927.57,1992.39 1926.92,1995.63 1926.19,1998.86 1925.38,2002.08 1924.49,2005.29 1923.52,2008.49 1922.47,2011.67 1921.34,2014.83 1920.13,2017.97 1918.84,2021.09 1917.46,2024.19 1916.01,2027.27 1914.47,2030.32 1912.85,2033.35 1911.15,2036.35 1909.36,2039.32 1907.49,2042.26 1905.54,2045.16 769.658,909.278 771.611,906.373 773.481,903.434 775.267,900.465 776.97,897.466 778.59,894.44 780.128,891.388 781.583,888.31 782.958,885.21 784.25,882.088 785.461,878.945 786.591,875.783 787.64,872.605 788.61,869.41 789.498,866.202 790.307,862.98 791.037,859.748 791.688,856.504 792.258,853.254 792.752,849.995 793.166,846.732 793.502,843.465 793.76,840.196 793.942,836.925 794.046,833.656 794.073,830.389 794.024,827.124 793.899,823.866 793.698,820.614 793.42,817.37 793.067,814.136 792.64,810.912 "/>
     <polygon id="_462044288" class="fil1" points="1029.77,1102.65 2165.66,2238.53 2163.83,2238.52 2162,2238.48 2160.18,2238.41 2158.35,2238.32 2156.53,2238.2 2154.72,2238.05 2152.9,2237.88 2151.09,2237.68 2149.28,2237.45 2147.47,2237.2 2145.67,2236.92 2143.87,2236.62 2142.08,2236.29 2140.29,2235.93 2138.51,2235.55 2136.74,2235.14 2134.97,2234.7 2133.2,2234.24 2131.45,2233.75 2129.7,2233.24 2127.96,2232.7 2126.23,2232.13 2124.5,2231.54 2122.79,2230.93 2121.08,2230.28 2119.39,2229.61 2117.7,2228.92 2116.02,2228.2 2114.36,2227.45 2112.7,2226.68 2111.06,2225.89 2109.42,2225.06 973.542,1089.18 975.174,1090 976.818,1090.8 978.474,1091.57 980.141,1092.32 981.817,1093.04 983.505,1093.73 985.201,1094.4 986.907,1095.04 988.622,1095.66 990.347,1096.25 992.08,1096.82 993.819,1097.36 995.568,1097.87 997.324,1098.36 999.086,1098.82 1000.86,1099.25 1002.63,1099.66 1004.41,1100.05 1006.2,1100.4 1007.99,1100.73 1009.79,1101.04 1011.59,1101.32 1013.39,1101.57 1015.2,1101.79 1017.02,1101.99 1018.83,1102.17 1020.65,1102.31 1022.47,1102.43 1024.3,1102.53 1026.12,1102.6 1027.95,1102.64 "/>
     <polygon id="_462028448" class="fil1" points="769.658,909.278 1905.54,2045.16 1903.71,2047.82 767.831,911.935 "/>
     <polygon id="_462040400" class="fil1" points="548.05,750.469 1683.93,1886.35 1683.91,1886.36 548.031,750.482 "/>
     <polygon id="_462021032" class="fil1" points="767.831,911.935 1903.71,2047.82 1901.68,2050.55 1899.59,2053.22 1897.45,2055.82 1895.25,2058.36 1893,2060.83 1890.7,2063.23 1888.35,2065.57 1885.95,2067.84 1883.51,2070.04 1881.02,2072.18 1878.48,2074.24 1875.9,2076.24 1873.28,2078.17 1870.62,2080.03 1867.92,2081.82 1865.19,2083.55 1862.42,2085.2 1859.61,2086.78 1856.77,2088.29 1853.9,2089.73 1851,2091.11 1848.07,2092.41 1845.12,2093.64 1842.13,2094.79 1839.13,2095.88 1836.1,2096.89 1833.05,2097.83 1829.97,2098.7 1826.88,2099.5 1823.77,2100.22 1820.65,2100.87 1817.51,2101.44 681.628,965.563 684.767,964.987 687.892,964.338 691.001,963.615 694.093,962.82 697.165,961.951 700.217,961.009 703.247,959.996 706.254,958.911 709.236,957.753 712.192,956.524 715.121,955.223 718.022,953.852 720.892,952.41 723.73,950.898 726.536,949.315 729.306,947.663 732.042,945.941 734.741,944.149 737.401,942.288 740.02,940.359 742.599,938.361 745.134,936.294 747.625,934.159 750.071,931.958 752.47,929.688 754.821,927.352 757.121,924.948 759.371,922.477 761.568,919.94 763.712,917.338 765.799,914.669 "/>
     <polygon id="_462028328" class="fil1" points="681.628,965.563 1817.51,2101.44 1814.49,2101.93 1811.46,2102.34 1808.41,2102.68 1805.36,2102.96 1802.31,2103.17 1799.24,2103.3 1796.17,2103.37 1793.1,2103.37 1790.02,2103.3 1786.95,2103.16 1783.87,2102.94 1780.79,2102.66 1777.72,2102.3 1774.65,2101.88 1771.58,2101.38 1768.52,2100.81 1765.47,2100.17 1762.43,2099.45 1759.4,2098.67 1756.37,2097.81 1753.36,2096.88 1750.37,2095.87 1747.39,2094.79 1744.42,2093.64 1741.47,2092.42 1738.54,2091.12 1735.63,2089.74 1732.74,2088.29 1729.87,2086.77 1727.03,2085.17 1724.21,2083.5 1721.42,2081.75 585.535,945.864 588.329,947.615 591.148,949.288 593.992,950.887 596.86,952.411 599.749,953.86 602.659,955.235 605.589,956.534 608.539,957.76 611.504,958.912 614.487,959.99 617.483,960.995 620.493,961.927 623.515,962.786 626.549,963.572 629.592,964.286 632.644,964.927 635.703,965.496 638.768,965.995 641.839,966.42 644.912,966.776 647.989,967.059 651.065,967.273 654.142,967.415 657.218,967.488 660.291,967.489 663.361,967.422 666.426,967.285 669.484,967.078 672.533,966.802 675.576,966.458 678.608,966.044 "/>
     <polygon id="_462025088" class="fil1" points="813.192,1097.94 1949.07,2233.82 1946.8,2233.94 1944.52,2234.02 1942.24,2234.06 1939.97,2234.07 1937.69,2234.03 1935.42,2233.96 1933.15,2233.85 1930.89,2233.69 1928.63,2233.5 1926.38,2233.26 1924.13,2232.99 1921.89,2232.67 1919.66,2232.31 1917.44,2231.91 1915.23,2231.46 1913.02,2230.98 1910.83,2230.45 1908.65,2229.88 1906.48,2229.26 1904.32,2228.6 1902.17,2227.9 1900.04,2227.15 1897.93,2226.36 1895.83,2225.52 1893.74,2224.64 1891.68,2223.71 1889.63,2222.73 1887.6,2221.71 1885.59,2220.64 1883.6,2219.53 1881.62,2218.36 1879.67,2217.15 743.793,1081.27 745.743,1082.48 747.714,1083.64 749.705,1084.76 751.717,1085.83 753.747,1086.85 755.796,1087.83 757.863,1088.76 759.947,1089.64 762.047,1090.48 764.162,1091.27 766.292,1092.02 768.436,1092.72 770.594,1093.38 772.764,1094 774.947,1094.57 777.14,1095.1 779.345,1095.58 781.558,1096.03 783.782,1096.43 786.014,1096.79 788.253,1097.1 790.499,1097.38 792.752,1097.61 795.01,1097.81 797.273,1097.96 799.541,1098.08 801.812,1098.15 804.084,1098.19 806.36,1098.18 808.638,1098.14 810.915,1098.06 "/>
     <polygon id="_462017000" class="fil1" points="743.793,1081.27 1879.67,2217.15 1877.26,2215.57 1874.9,2213.92 1872.6,2212.21 1870.36,2210.44 1868.17,2208.61 1866.04,2206.72 1863.97,2204.77 728.086,1068.89 730.159,1070.84 732.289,1072.73 734.476,1074.56 736.719,1076.33 739.02,1078.04 741.377,1079.69 "/>
     <polygon id="_462017192" class="fil1" points="1431.27,866.684 2567.15,2002.57 2567.46,2002.93 1431.58,867.043 "/>
     <polygon id="_462044720" class="fil1" points="1431.58,867.043 2567.46,2002.93 2568.55,2004.31 2569.62,2005.72 2570.65,2007.15 2571.64,2008.6 2572.61,2010.07 2573.53,2011.55 2574.42,2013.06 2575.28,2014.58 2576.09,2016.11 2576.88,2017.67 2577.62,2019.24 2578.33,2020.82 2579,2022.42 2579.63,2024.03 2580.22,2025.65 2580.77,2027.29 2581.28,2028.95 2581.75,2030.61 2582.18,2032.28 2582.57,2033.97 2582.92,2035.66 2583.23,2037.37 2583.5,2039.08 2583.72,2040.8 2583.9,2042.53 2584.04,2044.27 2584.13,2046.02 2584.18,2047.77 2584.18,2049.52 2584.14,2051.29 2584.06,2053.05 2583.92,2054.83 1448.04,918.943 1448.17,917.172 1448.26,915.405 1448.3,913.642 1448.3,911.885 1448.25,910.133 1448.16,908.389 1448.02,906.65 1447.84,904.92 1447.62,903.198 1447.35,901.484 1447.04,899.78 1446.69,898.085 1446.3,896.4 1445.87,894.726 1445.4,893.063 1444.89,891.412 1444.34,889.772 1443.74,888.147 1443.11,886.535 1442.45,884.937 1441.74,883.353 1441,881.783 1440.21,880.23 1439.4,878.694 1438.54,877.174 1437.65,875.67 1436.72,874.184 1435.76,872.717 1434.77,871.269 1433.74,869.84 1432.67,868.432 "/>
     <polygon id="_462019352" class="fil1" points="754.527,734.011 1890.41,1869.89 1892.12,1871.65 1893.8,1873.44 1895.45,1875.25 1897.05,1877.08 1898.62,1878.95 1900.16,1880.84 1901.65,1882.75 765.769,746.866 764.274,744.954 762.741,743.065 761.171,741.201 759.565,739.365 757.922,737.553 756.243,735.768 "/>
     <polygon id="_462012752" class="fil1" points="770.343,753.195 1906.22,1889.08 1907.26,1890.62 1908.27,1892.18 1909.26,1893.75 1910.23,1895.34 1911.17,1896.93 1912.09,1898.54 1912.99,1900.15 1913.87,1901.78 1914.72,1903.42 1915.56,1905.07 1916.36,1906.73 1917.15,1908.41 1917.91,1910.09 1918.66,1911.78 1919.37,1913.47 1920.07,1915.18 1920.74,1916.9 1921.39,1918.63 1922.01,1920.36 1922.61,1922.1 1923.19,1923.85 1923.75,1925.6 1924.28,1927.37 1924.79,1929.14 1925.27,1930.91 1925.73,1932.7 1926.17,1934.49 1926.59,1936.28 1926.98,1938.08 1927.34,1939.88 1927.69,1941.69 1928.01,1943.51 792.125,807.627 791.806,805.812 791.463,804.002 791.096,802.197 790.706,800.397 790.292,798.603 789.853,796.815 789.393,795.031 788.907,793.255 788.398,791.486 787.867,789.722 787.312,787.966 786.733,786.217 786.131,784.476 785.506,782.743 784.857,781.018 784.186,779.3 783.492,777.592 782.774,775.894 782.033,774.204 781.27,772.523 780.484,770.852 779.675,769.191 778.843,767.541 777.989,765.902 777.112,764.272 776.212,762.655 775.29,761.047 774.345,759.453 773.378,757.87 772.388,756.299 771.376,754.742 "/>
     <polygon id="_462014720" class="fil1" points="921.803,1042.1 2057.68,2177.99 2040.31,2194.59 904.43,1058.7 "/>
     <polygon id="_462024344" class="fil1" points="973.542,1089.18 2109.42,2225.06 2106.84,2223.7 2104.3,2222.27 2101.79,2220.79 2099.33,2219.25 2096.9,2217.64 2094.52,2215.98 2092.18,2214.27 2089.89,2212.49 2087.64,2210.67 2085.43,2208.78 2083.27,2206.84 2081.16,2204.84 945.277,1068.96 947.389,1070.96 949.549,1072.9 951.754,1074.78 954.005,1076.61 956.302,1078.39 958.641,1080.1 961.022,1081.76 963.447,1083.36 965.911,1084.91 968.416,1086.39 970.96,1087.82 "/>
     <polygon id="_462016112" class="fil1" points="882.775,1075.47 2018.66,2211.35 2016.71,2212.55 2014.74,2213.72 2012.74,2214.86 2010.73,2215.97 2008.7,2217.05 2006.65,2218.1 2004.58,2219.12 2002.49,2220.11 2000.39,2221.07 1998.27,2222 1996.13,2222.89 1993.98,2223.76 1991.82,2224.59 1989.64,2225.38 1987.45,2226.15 1985.25,2226.88 1983.04,2227.58 1980.82,2228.24 1978.59,2228.87 1976.35,2229.47 1974.1,2230.03 1971.84,2230.56 1969.58,2231.05 1967.32,2231.5 1965.05,2231.92 1962.77,2232.3 1960.49,2232.65 1958.21,2232.96 1955.93,2233.23 1953.64,2233.46 1951.36,2233.66 1949.07,2233.82 813.192,1097.94 815.476,1097.78 817.762,1097.58 820.046,1097.35 822.329,1097.08 824.61,1096.77 826.889,1096.42 829.164,1096.04 831.435,1095.62 833.702,1095.17 835.962,1094.67 838.217,1094.15 840.465,1093.59 842.704,1092.99 844.935,1092.36 847.157,1091.7 849.369,1091 851.57,1090.27 853.758,1089.5 855.936,1088.7 858.1,1087.87 860.249,1087.01 862.385,1086.11 864.505,1085.19 866.61,1084.23 868.697,1083.24 870.766,1082.22 872.818,1081.17 874.85,1080.09 876.863,1078.98 878.855,1077.84 880.827,1076.67 "/>
     <polygon id="_462028376" class="fil1" points="585.535,945.864 1721.42,2081.75 1721,2081.66 1720.58,2081.57 1720.17,2081.48 1719.75,2081.39 1719.34,2081.29 1718.92,2081.19 1718.51,2081.1 1718.09,2080.99 582.213,945.112 582.628,945.213 583.042,945.313 583.457,945.409 583.872,945.505 584.287,945.598 584.703,945.689 585.12,945.778 "/>
     <polygon id="_462039656" class="fil1" points="582.213,945.112 1718.09,2080.99 1715.38,2080.28 1712.68,2079.47 1710.02,2078.58 1707.4,2077.6 1704.83,2076.54 1702.32,2075.4 1699.89,2074.17 1697.53,2072.87 1695.27,2071.49 1693.1,2070.02 1691.05,2068.49 1689.11,2066.88 1687.3,2065.19 551.419,929.309 553.229,930.993 555.166,932.605 557.222,934.142 559.388,935.603 561.652,936.986 564.008,938.29 566.443,939.515 568.949,940.658 571.517,941.718 574.137,942.696 576.799,943.588 579.494,944.394 "/>
     <polygon id="_462021560" class="fil1" points="904.43,1058.7 2040.31,2194.59 2039.06,2195.76 2037.8,2196.92 2036.52,2198.06 2035.23,2199.19 2033.92,2200.29 2032.6,2201.39 2031.26,2202.46 2029.91,2203.52 2028.55,2204.56 2027.17,2205.58 2025.78,2206.58 2024.38,2207.57 2022.97,2208.54 2021.54,2209.5 2020.1,2210.43 2018.66,2211.35 882.775,1075.47 884.222,1074.55 885.659,1073.61 887.084,1072.66 888.497,1071.69 889.899,1070.7 891.288,1069.7 892.665,1068.67 894.029,1067.63 895.379,1066.58 896.716,1065.5 898.039,1064.41 899.348,1063.3 900.641,1062.18 901.92,1061.04 903.183,1059.88 "/>
     <polygon id="_462020384" class="fil1" points="770.343,753.195 1906.22,1889.08 1906.22,1889.07 1906.22,1889.07 1906.21,1889.06 1906.21,1889.06 770.33,753.178 770.333,753.182 770.336,753.186 770.339,753.191 "/>
     <polygon id="_462035888" class="fil1" points="765.769,746.866 1901.65,1882.75 1902.24,1883.52 1902.83,1884.3 1903.41,1885.09 1903.98,1885.87 1904.55,1886.67 1905.11,1887.46 1905.66,1888.26 1906.21,1889.06 770.333,753.182 769.783,752.379 769.228,751.58 768.666,750.785 768.099,749.992 767.525,749.206 766.946,748.421 766.36,747.642 "/>
     <polygon id="_462024008" class="fil1" points="1120.17,1062.56 2256.05,2198.44 2254.22,2200.48 2252.35,2202.46 2250.43,2204.4 2248.47,2206.29 2246.47,2208.14 2244.43,2209.93 2242.35,2211.67 2240.22,2213.37 2238.06,2215.02 2235.86,2216.61 2233.62,2218.15 2231.35,2219.65 2229.04,2221.09 2226.69,2222.47 2224.31,2223.81 2221.89,2225.09 1086.01,1089.21 1088.43,1087.92 1090.81,1086.59 1093.16,1085.2 1095.47,1083.77 1097.74,1082.27 1099.98,1080.73 1102.18,1079.13 1104.34,1077.49 1106.47,1075.79 1108.55,1074.05 1110.59,1072.25 1112.59,1070.41 1114.55,1068.52 1116.47,1066.58 1118.34,1064.59 "/>
     <polygon id="_462022616" class="fil1" points="792.125,807.627 1928.01,1943.51 1928.01,1943.52 1928.01,1943.53 1928.01,1943.54 1928.01,1943.55 1928.01,1943.56 1928.02,1943.57 1928.02,1943.58 1928.02,1943.58 792.138,807.702 792.136,807.693 792.134,807.683 792.133,807.674 792.131,807.664 792.129,807.655 792.128,807.646 792.126,807.636 "/>
     <polygon id="_462016184" class="fil1" points="1086.01,1089.21 2221.89,2225.09 2220.26,2225.91 2218.62,2226.71 2216.96,2227.48 2215.3,2228.23 2213.62,2228.95 2211.93,2229.65 2210.24,2230.32 2208.53,2230.96 2206.81,2231.58 2205.09,2232.17 2203.36,2232.73 2201.62,2233.27 2199.87,2233.78 2198.11,2234.27 2196.35,2234.73 2194.58,2235.16 2192.8,2235.57 2191.02,2235.95 2189.23,2236.31 2187.44,2236.64 2185.64,2236.94 2183.84,2237.22 2182.04,2237.47 2180.23,2237.69 2178.41,2237.89 2176.6,2238.06 2174.78,2238.2 2172.96,2238.32 2171.13,2238.42 2169.31,2238.48 2167.48,2238.52 2165.66,2238.53 1029.77,1102.65 1031.6,1102.64 1033.43,1102.6 1035.25,1102.53 1037.08,1102.44 1038.9,1102.32 1040.72,1102.18 1042.53,1102.01 1044.35,1101.81 1046.16,1101.58 1047.96,1101.33 1049.76,1101.06 1051.56,1100.75 1053.35,1100.43 1055.14,1100.07 1056.92,1099.69 1058.7,1099.28 1060.47,1098.85 1062.23,1098.39 1063.99,1097.9 1065.73,1097.39 1067.48,1096.85 1069.21,1096.28 1070.93,1095.69 1072.65,1095.08 1074.35,1094.43 1076.05,1093.76 1077.74,1093.07 1079.41,1092.35 1081.08,1091.6 1082.74,1090.83 1084.38,1090.03 "/>
     <polygon id="_462018632" class="fil1" points="1495.39,1233.22 2631.27,2369.1 2628.28,2369.08 2625.31,2368.99 2622.34,2368.85 2619.39,2368.65 2616.45,2368.4 2613.53,2368.09 2610.61,2367.72 2607.72,2367.31 2604.84,2366.83 2601.98,2366.31 2599.13,2365.73 2596.3,2365.1 2593.49,2364.42 2590.7,2363.69 2587.93,2362.91 2585.18,2362.07 2582.45,2361.19 2579.74,2360.26 2577.06,2359.28 2574.4,2358.25 2571.76,2357.17 2569.15,2356.04 2566.56,2354.87 2564,2353.65 2561.47,2352.39 2558.96,2351.08 2556.48,2349.72 2554.04,2348.32 2551.62,2346.88 2549.23,2345.39 2546.87,2343.86 2544.54,2342.29 1408.66,1206.41 1410.99,1207.98 1413.35,1209.51 1415.74,1211 1418.15,1212.44 1420.6,1213.84 1423.08,1215.19 1425.59,1216.5 1428.12,1217.77 1430.68,1218.99 1433.27,1220.16 1435.88,1221.29 1438.52,1222.36 1441.18,1223.39 1443.86,1224.37 1446.57,1225.31 1449.3,1226.19 1452.05,1227.02 1454.82,1227.81 1457.61,1228.54 1460.42,1229.22 1463.25,1229.85 1466.09,1230.43 1468.96,1230.95 1471.84,1231.42 1474.73,1231.84 1477.65,1232.2 1480.57,1232.51 1483.51,1232.77 1486.46,1232.97 1489.42,1233.11 1492.4,1233.19 "/>
     <polygon id="_462025184" class="fil1" points="1377.77,1177.64 2513.65,2313.53 2511.99,2315.58 2510.28,2317.59 2508.54,2319.58 2506.77,2321.53 2504.95,2323.45 2503.1,2325.34 2501.22,2327.2 2499.3,2329.01 2497.34,2330.8 2495.35,2332.55 2493.33,2334.26 2491.28,2335.94 2489.2,2337.58 2487.08,2339.19 2484.93,2340.76 2482.75,2342.29 1346.87,1206.41 1349.05,1204.88 1351.2,1203.31 1353.31,1201.7 1355.4,1200.06 1357.45,1198.38 1359.47,1196.67 1361.46,1194.92 1363.41,1193.13 1365.33,1191.31 1367.22,1189.46 1369.07,1187.57 1370.88,1185.65 1372.66,1183.7 1374.4,1181.71 1376.1,1179.69 "/>
     <polygon id="_462026552" class="fil1" points="1393.54,1230.81 2529.42,2366.69 2531.04,2368.37 2532.5,2370.22 2533.79,2372.22 2534.88,2374.38 2535.77,2376.67 1399.88,1240.79 1399,1238.49 1397.91,1236.34 1396.62,1234.34 1395.16,1232.49 "/>
     <polygon id="_462019088" class="fil1" points="1399.88,1240.79 2535.77,2376.67 2536.37,2378.45 2537.02,2380.21 2537.7,2381.96 2538.42,2383.68 2539.17,2385.38 2539.95,2387.07 2540.77,2388.74 2541.63,2390.38 2542.52,2392.01 2543.44,2393.62 2544.39,2395.2 2545.38,2396.77 2546.39,2398.31 2547.44,2399.83 2548.52,2401.33 2549.63,2402.81 2550.76,2404.26 2551.93,2405.69 2553.13,2407.1 2554.35,2408.48 2555.6,2409.84 2556.88,2411.18 1421,1275.3 1419.72,1273.96 1418.47,1272.6 1417.25,1271.22 1416.05,1269.81 1414.88,1268.38 1413.75,1266.92 1412.64,1265.45 1411.56,1263.95 1410.51,1262.43 1409.49,1260.88 1408.51,1259.32 1407.56,1257.73 1406.63,1256.13 1405.75,1254.5 1404.89,1252.85 1404.07,1251.19 1403.29,1249.5 1402.53,1247.8 1401.82,1246.07 1401.14,1244.33 1400.49,1242.57 "/>
     <polygon id="_462013232" class="fil1" points="1159.7,1111.2 2295.59,2247.08 2296.53,2248.1 2297.41,2249.17 2298.23,2250.28 2298.98,2251.44 2299.66,2252.63 2300.27,2253.87 2300.82,2255.14 2301.29,2256.43 1165.41,1120.55 1164.94,1119.25 1164.39,1117.99 1163.78,1116.75 1163.1,1115.55 1162.35,1114.4 1161.53,1113.28 1160.65,1112.22 "/>
     <polygon id="_462044096" class="fil1" points="1165.41,1120.55 2301.29,2256.43 2301.89,2258.21 2302.54,2259.97 2303.22,2261.71 2303.94,2263.43 2304.69,2265.13 2305.48,2266.81 2306.3,2268.48 2307.15,2270.12 2308.04,2271.75 2308.96,2273.35 2309.92,2274.93 2310.9,2276.5 2311.92,2278.04 2312.97,2279.56 2314.04,2281.05 2315.15,2282.53 2316.29,2283.98 2317.46,2285.41 2318.65,2286.82 2319.88,2288.2 2321.13,2289.56 2322.41,2290.89 1186.53,1155.01 1185.25,1153.68 1184,1152.32 1182.77,1150.93 1181.58,1149.53 1180.41,1148.1 1179.27,1146.65 1178.16,1145.17 1177.09,1143.68 1176.04,1142.16 1175.02,1140.62 1174.03,1139.05 1173.08,1137.47 1172.16,1135.87 1171.27,1134.24 1170.42,1132.6 1169.6,1130.93 1168.81,1129.25 1168.06,1127.55 1167.34,1125.83 1166.66,1124.09 1166.01,1122.33 "/>
     <polygon id="_462043640" class="fil1" points="1346.87,1206.41 2482.75,2342.29 2480.43,2343.86 2478.07,2345.39 2475.68,2346.88 2473.26,2348.32 2470.81,2349.72 2468.34,2351.08 2465.83,2352.39 2463.3,2353.65 2460.74,2354.87 2458.15,2356.04 2455.54,2357.17 2452.9,2358.25 2450.24,2359.28 2447.56,2360.26 2444.85,2361.19 2442.12,2362.07 2439.37,2362.91 2436.6,2363.69 2433.81,2364.42 2431,2365.1 2428.17,2365.73 2425.32,2366.31 2422.46,2366.83 2419.58,2367.31 2416.68,2367.72 2413.77,2368.09 2410.85,2368.4 2407.91,2368.65 2404.96,2368.85 2401.99,2368.99 2399.02,2369.08 2396.03,2369.1 1260.15,1233.22 1263.14,1233.19 1266.11,1233.11 1269.08,1232.97 1272.03,1232.77 1274.97,1232.51 1277.89,1232.2 1280.8,1231.84 1283.7,1231.42 1286.58,1230.95 1289.44,1230.43 1292.29,1229.85 1295.12,1229.22 1297.93,1228.54 1300.72,1227.81 1303.49,1227.02 1306.24,1226.19 1308.97,1225.31 1311.68,1224.37 1314.36,1223.39 1317.02,1222.36 1319.66,1221.28 1322.27,1220.16 1324.86,1218.99 1327.42,1217.77 1329.95,1216.5 1332.46,1215.19 1334.93,1213.84 1337.38,1212.44 1339.8,1211 1342.19,1209.51 1344.55,1207.98 "/>
     <polygon id="_462029744" class="fil1" points="1142.56,1177.68 2278.44,2313.56 2276.78,2315.61 2275.08,2317.63 2273.33,2319.62 2271.56,2321.57 2269.74,2323.49 2267.89,2325.38 2266.01,2327.23 2264.09,2329.05 2262.13,2330.83 2260.14,2332.58 2258.12,2334.29 2256.07,2335.97 2253.98,2337.61 2251.87,2339.22 2249.72,2340.78 2247.54,2342.32 1111.66,1206.43 1113.84,1204.9 1115.99,1203.33 1118.1,1201.73 1120.19,1200.09 1122.24,1198.41 1124.26,1196.7 1126.25,1194.95 1128.2,1193.16 1130.12,1191.34 1132.01,1189.49 1133.86,1187.61 1135.68,1185.69 1137.45,1183.73 1139.19,1181.75 1140.9,1179.73 "/>
     <polygon id="_462044456" class="fil1" points="924.498,1111.11 2060.38,2247 2061.32,2248.01 2062.21,2249.08 2063.02,2250.2 2063.77,2251.35 2064.46,2252.55 2065.07,2253.78 2065.61,2255.05 2066.08,2256.35 930.2,1120.47 929.73,1119.17 929.188,1117.9 928.574,1116.67 927.891,1115.47 927.14,1114.31 926.324,1113.2 925.442,1112.13 "/>
     <polygon id="_462031112" class="fil1" points="930.2,1120.47 2066.08,2256.35 2066.69,2258.13 2067.33,2259.89 2068.01,2261.63 2068.73,2263.36 2069.48,2265.06 2070.27,2266.75 2071.09,2268.41 2071.94,2270.06 2072.83,2271.69 2073.75,2273.29 2074.7,2274.88 2075.69,2276.44 2076.7,2277.98 2077.75,2279.51 2078.83,2281 2079.94,2282.48 2081.08,2283.93 2082.24,2285.37 2083.44,2286.77 2084.66,2288.16 2085.92,2289.52 2087.19,2290.85 2088.5,2292.17 2089.83,2293.45 953.952,1157.57 952.62,1156.28 951.314,1154.97 950.035,1153.64 948.783,1152.28 947.559,1150.89 946.363,1149.48 945.196,1148.05 944.057,1146.6 942.949,1145.12 941.871,1143.62 940.823,1142.1 939.807,1140.56 938.822,1138.99 937.869,1137.41 936.949,1135.8 936.061,1134.18 935.207,1132.53 934.386,1130.86 933.601,1129.18 932.848,1127.47 932.133,1125.75 931.452,1124.01 930.807,1122.25 "/>
     <polygon id="_462027824" class="fil1" points="1111.66,1206.43 2247.54,2342.32 2245.22,2343.89 2242.86,2345.42 2240.47,2346.9 2238.05,2348.34 2235.6,2349.74 2233.13,2351.1 2230.62,2352.4 2228.09,2353.67 2225.53,2354.88 2222.94,2356.06 2220.33,2357.18 2217.7,2358.26 2215.04,2359.29 2212.35,2360.27 2209.65,2361.2 2206.92,2362.08 2204.17,2362.91 2201.4,2363.69 2198.61,2364.43 2195.8,2365.11 2192.98,2365.74 2190.13,2366.31 2187.27,2366.84 2184.39,2367.31 2181.5,2367.72 2178.59,2368.09 2175.66,2368.4 2172.73,2368.65 2169.78,2368.85 2166.81,2368.99 2163.84,2369.08 2160.86,2369.1 1024.97,1233.22 1027.96,1233.19 1030.93,1233.11 1033.9,1232.97 1036.84,1232.77 1039.78,1232.51 1042.71,1232.2 1045.61,1231.84 1048.51,1231.43 1051.39,1230.95 1054.25,1230.43 1057.09,1229.85 1059.92,1229.22 1062.73,1228.54 1065.52,1227.81 1068.29,1227.03 1071.04,1226.2 1073.77,1225.32 1076.47,1224.38 1079.16,1223.4 1081.82,1222.37 1084.45,1221.3 1087.06,1220.17 1089.65,1219 1092.21,1217.78 1094.74,1216.52 1097.25,1215.21 1099.72,1213.86 1102.17,1212.46 1104.59,1211.02 1106.98,1209.53 1109.33,1208 "/>
     <polygon id="_462029360" class="fil1" points="907.355,1177.64 2043.24,2313.53 2041.57,2315.58 2039.87,2317.59 2038.13,2319.58 2036.35,2321.53 2034.54,2323.45 2032.69,2325.34 2030.8,2327.19 2028.88,2329.01 2026.93,2330.8 2024.94,2332.55 2022.92,2334.26 2020.87,2335.94 2018.78,2337.58 2016.67,2339.19 2014.52,2340.76 2012.34,2342.29 876.461,1206.41 878.638,1204.87 880.785,1203.31 882.902,1201.7 884.987,1200.06 887.039,1198.38 889.06,1196.67 891.048,1194.92 893.001,1193.13 894.922,1191.31 896.807,1189.46 898.657,1187.57 900.471,1185.65 902.248,1183.7 903.988,1181.71 905.691,1179.69 "/>
     <polygon id="_462027560" class="fil1" points="688.286,1110.23 1824.17,2246.11 1825.17,2247.08 1826.12,2248.1 1827,2249.17 1827.82,2250.28 1828.57,2251.44 1829.25,2252.63 1829.86,2253.87 1830.4,2255.14 1830.87,2256.43 694.993,1120.55 694.523,1119.25 693.981,1117.99 693.368,1116.75 692.685,1115.55 691.934,1114.4 691.117,1113.28 690.236,1112.22 689.291,1111.2 "/>
     <polygon id="_462028112" class="fil1" points="694.993,1120.55 1830.87,2256.43 1831.48,2258.21 1832.13,2259.97 1832.81,2261.71 1833.53,2263.43 1834.28,2265.13 1835.06,2266.81 1835.89,2268.48 1836.74,2270.12 1837.63,2271.75 1838.55,2273.35 1839.5,2274.93 1840.49,2276.5 1841.51,2278.04 1842.55,2279.56 1843.63,2281.05 1844.74,2282.53 1845.88,2283.98 1847.05,2285.41 1848.24,2286.82 1849.47,2288.2 1850.72,2289.56 1852,2290.89 1853.3,2292.2 1854.64,2293.49 1856,2294.75 720.115,1158.86 718.757,1157.6 717.423,1156.32 716.117,1155.01 714.838,1153.68 713.586,1152.32 712.361,1150.93 711.166,1149.53 709.998,1148.1 708.859,1146.65 707.751,1145.17 706.673,1143.67 705.624,1142.16 704.607,1140.62 703.622,1139.05 702.669,1137.47 701.748,1135.87 700.86,1134.24 700.004,1132.6 699.184,1130.93 698.397,1129.25 697.645,1127.55 696.928,1125.83 696.246,1124.09 695.601,1122.33 "/>
     <polygon id="_462034352" class="fil1" points="876.461,1206.41 2012.34,2342.29 2010.02,2343.86 2007.66,2345.39 2005.27,2346.88 2002.85,2348.32 2000.4,2349.72 1997.92,2351.08 1995.42,2352.39 1992.88,2353.65 1990.33,2354.87 1987.74,2356.04 1985.13,2357.17 1982.49,2358.25 1979.83,2359.28 1977.14,2360.26 1974.44,2361.19 1971.71,2362.07 1968.96,2362.91 1966.19,2363.69 1963.4,2364.42 1960.59,2365.1 1957.76,2365.73 1954.91,2366.31 1952.05,2366.83 1949.17,2367.31 1946.27,2367.72 1943.36,2368.09 1940.44,2368.4 1937.5,2368.65 1934.55,2368.85 1931.58,2368.99 1928.61,2369.08 1925.62,2369.1 789.739,1233.22 792.725,1233.19 795.701,1233.11 798.664,1232.97 801.616,1232.77 804.555,1232.51 807.48,1232.2 810.39,1231.84 813.286,1231.42 816.166,1230.95 819.03,1230.43 821.877,1229.85 824.705,1229.22 827.515,1228.54 830.306,1227.81 833.077,1227.02 835.827,1226.19 838.556,1225.31 841.263,1224.37 843.948,1223.39 846.609,1222.36 849.245,1221.29 851.858,1220.16 854.444,1218.99 857.004,1217.77 859.537,1216.5 862.044,1215.19 864.522,1213.84 866.97,1212.44 869.389,1211 871.778,1209.51 874.136,1207.98 "/>
     <polygon id="_462016520" class="fil1" points="672.148,1177.68 1808.03,2313.56 1806.36,2315.61 1804.66,2317.63 1802.92,2319.61 1801.14,2321.57 1799.33,2323.49 1797.48,2325.38 1795.59,2327.23 1793.67,2329.05 1791.72,2330.83 1789.73,2332.58 1787.71,2334.29 1785.65,2335.97 1783.57,2337.61 1781.45,2339.22 1779.3,2340.78 1777.13,2342.32 641.245,1206.43 643.423,1204.9 645.57,1203.34 647.686,1201.73 649.772,1200.09 651.825,1198.41 653.847,1196.7 655.835,1194.95 657.789,1193.16 659.71,1191.34 661.596,1189.49 663.446,1187.61 665.261,1185.68 667.039,1183.73 668.78,1181.75 670.483,1179.73 "/>
     <polygon id="_462020360" class="fil1" points="641.245,1206.43 1777.13,2342.32 1774.8,2343.89 1772.44,2345.42 1770.05,2346.9 1767.64,2348.34 1765.19,2349.74 1762.71,2351.09 1760.21,2352.4 1757.67,2353.67 1755.11,2354.88 1752.53,2356.06 1749.92,2357.18 1747.28,2358.26 1744.62,2359.28 1741.94,2360.26 1739.23,2361.2 1736.5,2362.08 1733.75,2362.91 1730.98,2363.69 1728.2,2364.43 1725.39,2365.11 1722.56,2365.74 1719.71,2366.31 1716.85,2366.84 1713.97,2367.31 1711.08,2367.72 1708.17,2368.09 1705.25,2368.4 1702.31,2368.65 1699.36,2368.85 1696.4,2368.99 1693.42,2369.08 1690.44,2369.1 554.558,1233.22 557.542,1233.19 560.516,1233.11 563.478,1232.97 566.429,1232.77 569.366,1232.51 572.289,1232.2 575.198,1231.84 578.092,1231.42 580.972,1230.95 583.834,1230.43 586.679,1229.85 589.505,1229.22 592.314,1228.54 595.104,1227.81 597.873,1227.03 600.623,1226.2 603.35,1225.31 606.056,1224.38 608.739,1223.4 611.399,1222.37 614.036,1221.3 616.647,1220.17 619.232,1219 621.792,1217.78 624.325,1216.52 626.83,1215.21 629.307,1213.86 631.756,1212.46 634.173,1211.02 636.562,1209.53 638.919,1208 "/>
     <polygon id="_462014432" class="fil1" points="554.558,1233.22 1690.44,2369.1 1689.15,2369.1 1687.87,2369.08 1686.58,2369.05 1685.29,2369.01 1684,2368.96 1682.72,2368.9 1681.43,2368.83 1680.14,2368.75 1678.85,2368.65 1677.57,2368.55 1676.28,2368.43 1674.99,2368.31 1673.71,2368.17 1672.42,2368.02 1671.14,2367.86 1669.85,2367.69 1668.57,2367.51 1667.29,2367.31 1666,2367.11 1664.72,2366.9 1663.44,2366.67 1662.16,2366.44 1660.89,2366.19 1659.61,2365.93 1658.34,2365.67 1657.06,2365.39 1655.79,2365.1 1654.52,2364.8 1653.25,2364.49 1651.98,2364.17 1650.72,2363.84 1649.45,2363.5 513.572,1227.62 514.836,1227.96 516.101,1228.29 517.368,1228.61 518.638,1228.92 519.907,1229.22 521.181,1229.51 522.454,1229.78 523.728,1230.05 525.005,1230.31 526.283,1230.55 527.562,1230.79 528.841,1231.01 530.123,1231.23 531.404,1231.43 532.688,1231.62 533.971,1231.81 535.256,1231.98 536.541,1232.14 537.826,1232.29 539.112,1232.42 540.4,1232.55 541.686,1232.67 542.973,1232.77 544.261,1232.87 545.548,1232.95 546.835,1233.02 548.123,1233.08 549.41,1233.13 550.698,1233.17 551.985,1233.2 553.271,1233.22 "/>
     <polygon id="_462041552" class="fil1" points="671.423,1298.01 1807.3,2433.89 1805.64,2435.94 1803.94,2437.96 1802.19,2439.94 1800.42,2441.89 1798.6,2443.81 1796.75,2445.7 1794.87,2447.55 1792.95,2449.37 1790.99,2451.16 1789,2452.9 1786.98,2454.62 1784.93,2456.3 1782.84,2457.94 1780.73,2459.54 1778.58,2461.11 1776.4,2462.64 640.519,1326.76 642.696,1325.23 644.845,1323.66 646.961,1322.05 649.046,1320.41 651.1,1318.74 653.121,1317.02 655.11,1315.27 657.064,1313.49 658.985,1311.67 660.87,1309.82 662.721,1307.93 664.535,1306.01 666.314,1304.06 668.054,1302.07 669.758,1300.05 "/>
     <polygon id="_462013136" class="fil1" points="513.572,1227.62 1649.45,2363.5 1648.2,2363.15 1646.95,2362.79 1645.7,2362.42 1644.46,2362.04 1643.22,2361.65 1641.99,2361.25 1640.76,2360.83 1639.53,2360.41 1638.31,2359.98 1637.1,2359.54 1635.88,2359.09 1634.67,2358.63 1633.47,2358.16 1632.27,2357.68 1631.08,2357.19 1629.89,2356.69 1628.7,2356.17 1627.52,2355.65 1626.35,2355.12 1625.18,2354.58 1624.01,2354.03 1622.85,2353.47 1621.7,2352.9 1620.55,2352.33 1619.4,2351.74 1618.27,2351.14 1617.13,2350.53 1616.01,2349.91 1614.89,2349.28 1613.77,2348.65 1612.66,2348 1611.56,2347.34 475.678,1211.46 476.781,1212.12 477.89,1212.76 479.005,1213.4 480.126,1214.03 481.252,1214.65 482.385,1215.25 483.524,1215.85 484.667,1216.44 485.816,1217.02 486.97,1217.59 488.13,1218.15 489.294,1218.7 490.465,1219.24 491.64,1219.77 492.82,1220.29 494.005,1220.8 495.194,1221.3 496.389,1221.79 497.588,1222.28 498.793,1222.75 500.001,1223.21 501.214,1223.66 502.431,1224.1 503.653,1224.53 504.879,1224.95 506.109,1225.36 507.343,1225.76 508.581,1226.15 509.823,1226.53 511.069,1226.91 512.319,1227.27 "/>
     <polygon id="_462036752" class="fil1" points="553.831,1353.55 1689.71,2489.43 1688.58,2489.42 1687.45,2489.41 1686.31,2489.39 1685.18,2489.36 1684.03,2489.32 1682.89,2489.27 1681.75,2489.22 1680.6,2489.15 1679.45,2489.08 1678.3,2488.99 1677.15,2488.9 1675.99,2488.8 1674.83,2488.7 1673.68,2488.58 1672.52,2488.45 1671.35,2488.32 535.472,1352.44 536.634,1352.57 537.794,1352.7 538.953,1352.81 540.11,1352.92 541.265,1353.02 542.418,1353.11 543.57,1353.19 544.719,1353.27 545.866,1353.33 547.011,1353.39 548.154,1353.44 549.295,1353.48 550.432,1353.51 551.567,1353.53 552.701,1353.54 "/>
     <polygon id="_462042248" class="fil1" points="535.472,1352.44 1671.35,2488.32 1670.27,2488.19 1669.17,2488.04 1668.07,2487.89 1666.97,2487.73 1665.86,2487.55 1664.74,2487.37 1663.62,2487.18 1662.49,2486.98 1661.36,2486.76 1660.22,2486.54 1659.07,2486.31 1657.92,2486.07 1656.76,2485.82 1655.6,2485.56 1654.43,2485.29 1653.26,2485.01 517.379,1349.13 518.552,1349.41 519.719,1349.68 520.881,1349.94 522.037,1350.19 523.189,1350.43 524.334,1350.66 525.474,1350.88 526.608,1351.09 527.737,1351.3 528.859,1351.49 529.976,1351.67 531.088,1351.84 532.192,1352.01 533.292,1352.16 534.385,1352.3 "/>
     <polygon id="_462019832" class="fil1" points="517.379,1349.13 1653.26,2485.01 1650.91,2484.31 1648.68,2483.4 1646.58,2482.29 1644.63,2480.98 1642.83,2479.51 506.947,1343.63 508.747,1345.1 510.7,1346.4 512.795,1347.52 515.025,1348.43 "/>
     <polygon id="_462044528" class="fil1" points="694.267,1240.88 1830.15,2376.76 1830.76,2378.54 1831.4,2380.3 1832.08,2382.03 1832.8,2383.76 1833.55,2385.46 1834.34,2387.14 1835.16,2388.81 1836.01,2390.45 1836.9,2392.07 1837.82,2393.68 1838.78,2395.26 1839.76,2396.82 1840.78,2398.36 1841.83,2399.88 1842.91,2401.38 1844.01,2402.86 1845.15,2404.31 1846.32,2405.74 1847.52,2407.14 1848.74,2408.53 1849.99,2409.88 1851.27,2411.22 1852.58,2412.53 1853.91,2413.81 1855.27,2415.07 719.389,1279.19 718.029,1277.93 716.697,1276.65 715.391,1275.34 714.112,1274 712.86,1272.64 711.635,1271.26 710.438,1269.85 709.271,1268.43 708.133,1266.97 707.025,1265.5 705.947,1264 704.898,1262.48 703.881,1260.94 702.896,1259.38 701.943,1257.8 701.021,1256.19 700.133,1254.57 699.278,1252.92 698.457,1251.26 697.671,1249.58 696.918,1247.87 696.201,1246.15 695.52,1244.41 694.875,1242.66 "/>
     <polygon id="_462030848" class="fil1" points="789.739,1233.22 1925.62,2369.1 1922.64,2369.08 1919.66,2368.99 1916.7,2368.85 1913.75,2368.65 1910.81,2368.4 1907.89,2368.09 1904.98,2367.72 1902.09,2367.31 1899.21,2366.84 1896.35,2366.31 1893.5,2365.74 1890.67,2365.11 1887.86,2364.43 1885.07,2363.69 1882.3,2362.91 1879.56,2362.08 1876.83,2361.2 1874.12,2360.27 1871.44,2359.28 1868.78,2358.26 1866.14,2357.18 1863.53,2356.06 1860.95,2354.88 1858.39,2353.67 1855.85,2352.4 1853.35,2351.09 1850.87,2349.74 1848.42,2348.34 1846,2346.9 1843.62,2345.41 1841.26,2343.89 1838.93,2342.31 703.052,1206.43 705.377,1208 707.735,1209.53 710.123,1211.02 712.542,1212.46 714.99,1213.86 717.467,1215.21 719.972,1216.52 722.504,1217.78 725.065,1219 727.651,1220.17 730.262,1221.3 732.897,1222.37 735.557,1223.4 738.24,1224.38 740.946,1225.32 743.675,1226.2 746.423,1227.03 749.193,1227.81 751.982,1228.54 754.791,1229.22 757.619,1229.85 760.464,1230.43 763.326,1230.95 766.204,1231.43 769.099,1231.84 772.008,1232.2 774.931,1232.51 777.869,1232.77 780.818,1232.97 783.78,1233.11 786.754,1233.19 "/>
     <polygon id="_462035696" class="fil1" points="929.474,1240.79 2065.36,2376.67 2065.96,2378.45 2066.61,2380.21 2067.29,2381.96 2068,2383.68 2068.76,2385.38 2069.54,2387.07 2070.36,2388.74 2071.22,2390.38 2072.1,2392.01 2073.02,2393.62 2073.98,2395.2 2074.96,2396.77 2075.98,2398.31 2077.03,2399.83 2078.1,2401.33 2079.21,2402.81 2080.35,2404.26 2081.52,2405.69 2082.71,2407.1 2083.94,2408.48 2085.19,2409.84 2086.47,2411.18 2087.77,2412.49 2089.11,2413.78 953.225,1277.89 951.892,1276.61 950.586,1275.3 949.307,1273.96 948.056,1272.6 946.831,1271.22 945.636,1269.81 944.469,1268.38 943.331,1266.92 942.223,1265.45 941.144,1263.95 940.097,1262.43 939.081,1260.88 938.096,1259.32 937.143,1257.73 936.223,1256.13 935.335,1254.5 934.481,1252.86 933.66,1251.19 932.874,1249.5 932.122,1247.8 931.406,1246.07 930.726,1244.33 930.081,1242.57 "/>
     <polygon id="_462038624" class="fil1" points="1024.97,1233.22 2160.86,2369.1 2157.87,2369.08 2154.89,2368.99 2151.93,2368.85 2148.98,2368.65 2146.04,2368.4 2143.11,2368.09 2140.2,2367.72 2137.31,2367.31 2134.43,2366.83 2131.56,2366.31 2128.72,2365.73 2125.89,2365.1 2123.08,2364.42 2120.28,2363.69 2117.51,2362.91 2114.76,2362.07 2112.03,2361.19 2109.33,2360.26 2106.64,2359.28 2103.98,2358.25 2101.34,2357.17 2098.73,2356.04 2096.15,2354.87 2093.59,2353.65 2091.05,2352.39 2088.55,2351.08 2086.07,2349.72 2083.62,2348.32 2081.2,2346.88 2078.81,2345.39 2076.45,2343.86 2074.13,2342.29 938.247,1206.41 940.573,1207.98 942.93,1209.51 945.32,1211 947.739,1212.44 950.187,1213.84 952.665,1215.19 955.171,1216.5 957.705,1217.77 960.265,1218.99 962.852,1220.16 965.463,1221.28 968.101,1222.36 970.762,1223.39 973.446,1224.37 976.154,1225.31 978.882,1226.19 981.633,1227.02 984.404,1227.81 987.194,1228.54 990.005,1229.22 992.834,1229.85 995.681,1230.43 998.545,1230.95 1001.42,1231.42 1004.32,1231.84 1007.23,1232.2 1010.16,1232.51 1013.1,1232.77 1016.05,1232.97 1019.01,1233.11 1021.99,1233.19 "/>
     <polygon id="_462037712" class="fil1" points="1164.68,1240.88 2300.56,2376.76 2301.17,2378.54 2301.81,2380.3 2302.49,2382.03 2303.21,2383.76 2303.96,2385.46 2304.75,2387.14 2305.57,2388.81 2306.43,2390.45 2307.31,2392.07 2308.24,2393.68 2309.19,2395.26 2310.17,2396.82 2311.19,2398.36 2312.24,2399.88 2313.32,2401.38 2314.43,2402.86 2315.56,2404.31 2316.73,2405.74 2317.93,2407.14 2319.15,2408.53 2320.4,2409.88 2321.68,2411.22 2322.99,2412.53 1187.11,1276.65 1185.8,1275.34 1184.52,1274 1183.27,1272.64 1182.05,1271.26 1180.85,1269.85 1179.68,1268.43 1178.55,1266.97 1177.44,1265.5 1176.36,1264 1175.31,1262.48 1174.29,1260.94 1173.31,1259.38 1172.35,1257.8 1171.43,1256.19 1170.55,1254.57 1169.69,1252.92 1168.87,1251.26 1168.08,1249.58 1167.33,1247.87 1166.61,1246.15 1165.93,1244.41 1165.29,1242.66 "/>
     <polygon id="_462026432" class="fil1" points="1260.15,1233.22 2396.03,2369.1 2393.05,2369.08 2390.07,2368.99 2387.11,2368.85 2384.16,2368.65 2381.22,2368.4 2378.3,2368.09 2375.39,2367.72 2372.5,2367.31 2369.62,2366.84 2366.76,2366.31 2363.91,2365.74 2361.08,2365.11 2358.28,2364.43 2355.49,2363.69 2352.72,2362.91 2349.97,2362.08 2347.24,2361.2 2344.53,2360.27 2341.85,2359.29 2339.19,2358.26 2336.55,2357.18 2333.94,2356.06 2331.36,2354.88 2328.8,2353.67 2326.27,2352.4 2323.76,2351.1 2321.28,2349.74 2318.83,2348.34 2316.42,2346.9 2314.03,2345.42 2311.67,2343.89 2309.35,2342.32 1173.46,1206.43 1175.79,1208 1178.15,1209.53 1180.54,1211.02 1182.95,1212.46 1185.4,1213.86 1187.88,1215.21 1190.38,1216.52 1192.92,1217.78 1195.48,1219 1198.06,1220.17 1200.67,1221.3 1203.31,1222.37 1205.97,1223.4 1208.65,1224.38 1211.36,1225.32 1214.09,1226.2 1216.84,1227.03 1219.6,1227.81 1222.39,1228.54 1225.2,1229.22 1228.03,1229.85 1230.87,1230.43 1233.74,1230.95 1236.62,1231.43 1239.51,1231.84 1242.42,1232.2 1245.34,1232.51 1248.28,1232.77 1251.23,1232.97 1254.19,1233.11 1257.17,1233.19 "/>
     <polygon id="_462041888" class="fil1" points="1530.46,1349.36 2666.34,2485.24 2665.26,2485.49 2664.18,2485.73 2663.09,2485.97 2662,2486.2 2660.91,2486.42 2659.8,2486.63 2658.7,2486.84 2657.58,2487.04 2656.47,2487.23 2655.34,2487.41 2654.22,2487.59 2653.09,2487.76 2651.95,2487.92 2650.81,2488.07 2649.66,2488.22 2648.51,2488.35 1512.63,1352.47 1513.78,1352.33 1514.93,1352.19 1516.07,1352.03 1517.2,1351.87 1518.34,1351.71 1519.46,1351.53 1520.58,1351.35 1521.7,1351.15 1522.81,1350.96 1523.92,1350.75 1525.02,1350.54 1526.12,1350.32 1527.21,1350.09 1528.3,1349.85 1529.38,1349.61 "/>
     <polygon id="_462029576" class="fil1" points="1512.63,1352.47 2648.51,2488.35 2647.36,2488.48 2646.22,2488.6 2645.08,2488.72 2643.94,2488.82 2642.8,2488.92 2641.67,2489.01 2640.54,2489.09 2639.42,2489.16 2638.3,2489.22 2637.18,2489.28 2636.06,2489.32 2634.95,2489.36 2633.84,2489.39 2632.74,2489.41 2631.64,2489.42 2630.54,2489.43 1494.66,1353.55 1495.76,1353.54 1496.86,1353.53 1497.96,1353.51 1499.07,1353.48 1500.18,1353.44 1501.3,1353.39 1502.42,1353.34 1503.54,1353.28 1504.66,1353.2 1505.79,1353.13 1506.92,1353.04 1508.06,1352.94 1509.2,1352.84 1510.34,1352.72 1511.48,1352.6 "/>
     <polygon id="_462018704" class="fil1" points="906.629,1297.97 2042.51,2433.85 2040.85,2435.9 2039.14,2437.92 2037.4,2439.91 2035.63,2441.86 2033.81,2443.78 2031.96,2445.67 2030.08,2447.52 2028.16,2449.34 2026.2,2451.12 2024.22,2452.87 2022.2,2454.59 2020.14,2456.26 2018.06,2457.91 2015.94,2459.51 2013.79,2461.08 2011.62,2462.61 875.736,1326.73 877.913,1325.2 880.06,1323.63 882.175,1322.03 884.261,1320.38 886.314,1318.7 888.335,1316.99 890.322,1315.24 892.276,1313.46 894.196,1311.64 896.081,1309.78 897.93,1307.9 899.744,1305.98 901.522,1304.02 903.262,1302.04 904.965,1300.02 "/>
     <polygon id="_462028664" class="fil1" points="937.518,1326.73 2073.4,2462.61 2071.22,2461.08 2069.08,2459.51 2066.96,2457.91 2064.88,2456.26 2062.82,2454.59 2060.8,2452.87 2058.82,2451.12 2056.86,2449.34 920.979,1313.46 922.934,1315.24 924.921,1316.99 926.942,1318.7 928.994,1320.38 931.079,1322.03 933.196,1323.63 935.342,1325.2 "/>
     <polygon id="_462020504" class="fil1" points="1141.84,1298.01 2277.72,2433.89 2276.05,2435.94 2274.35,2437.96 2272.61,2439.94 2270.83,2441.89 2269.02,2443.81 2267.17,2445.7 2265.28,2447.55 2263.36,2449.37 2261.41,2451.15 2259.42,2452.9 2257.4,2454.62 2255.34,2456.29 2253.26,2457.94 2251.14,2459.54 2248.99,2461.11 2246.82,2462.64 1110.94,1326.76 1113.11,1325.23 1115.26,1323.66 1117.38,1322.05 1119.46,1320.41 1121.52,1318.73 1123.54,1317.02 1125.52,1315.27 1127.48,1313.49 1129.4,1311.67 1131.28,1309.82 1133.14,1307.93 1134.95,1306.01 1136.73,1304.06 1138.47,1302.07 1140.17,1300.06 "/>
     <polygon id="_462041408" class="fil1" points="1172.74,1326.76 2308.62,2462.64 2306.44,2461.11 2304.29,2459.54 2302.18,2457.94 2300.09,2456.29 2298.04,2454.62 2296.02,2452.9 2294.03,2451.15 2292.07,2449.37 2290.15,2447.55 1154.27,1311.67 1156.19,1313.49 1158.15,1315.27 1160.14,1317.02 1162.16,1318.73 1164.21,1320.41 1166.3,1322.05 1168.41,1323.66 1170.56,1325.23 "/>
     <polygon id="_462033176" class="fil1" points="1377.04,1297.97 2512.92,2433.85 2511.26,2435.9 2509.56,2437.92 2507.82,2439.91 2506.04,2441.86 2504.22,2443.78 2502.38,2445.67 2500.49,2447.52 2498.57,2449.34 2496.62,2451.12 2494.63,2452.87 2492.61,2454.59 2490.55,2456.27 2488.47,2457.91 2486.35,2459.51 2484.21,2461.08 2482.03,2462.61 1346.15,1326.73 1348.33,1325.2 1350.47,1323.63 1352.59,1322.03 1354.67,1320.38 1356.73,1318.71 1358.75,1316.99 1360.73,1315.24 1362.69,1313.46 1364.61,1311.64 1366.49,1309.78 1368.34,1307.9 1370.16,1305.98 1371.94,1304.02 1373.68,1302.04 1375.38,1300.02 "/>
     <polygon id="_462017600" class="fil1" points="1407.94,1326.73 2543.82,2462.61 2541.64,2461.08 2539.49,2459.51 2537.38,2457.91 2535.29,2456.26 2533.24,2454.59 2531.22,2452.87 2529.23,2451.12 2527.28,2449.34 2525.36,2447.52 2523.47,2445.67 1387.59,1309.78 1389.47,1311.64 1391.4,1313.46 1393.35,1315.24 1395.34,1316.99 1397.36,1318.7 1399.41,1320.38 1401.49,1322.03 1403.61,1323.63 1405.76,1325.2 "/>
     <polygon id="_462036080" class="fil1" points="1394.91,1111.11 2530.79,2247 2531.74,2248.01 2532.62,2249.08 2533.43,2250.2 2534.18,2251.35 2534.87,2252.55 2535.48,2253.78 2536.02,2255.05 2536.49,2256.35 1400.61,1120.47 1400.14,1119.17 1399.6,1117.9 1398.99,1116.67 1398.3,1115.47 1397.55,1114.31 1396.73,1113.2 1395.85,1112.13 "/>
     <polygon id="_462019640" class="fil1" points="1400.61,1120.47 2536.49,2256.35 2537.1,2258.13 2537.74,2259.89 2538.43,2261.63 2539.14,2263.36 2539.89,2265.06 2540.68,2266.75 2541.5,2268.41 2542.36,2270.06 2543.24,2271.69 2544.16,2273.29 2545.12,2274.88 2546.1,2276.44 2547.12,2277.98 2548.17,2279.5 2549.24,2281 2550.35,2282.48 2551.49,2283.93 2552.66,2285.37 2553.85,2286.77 2555.08,2288.16 2556.33,2289.52 1420.45,1153.64 1419.2,1152.28 1417.97,1150.89 1416.78,1149.48 1415.61,1148.05 1414.47,1146.6 1413.36,1145.12 1412.29,1143.62 1411.24,1142.1 1410.22,1140.56 1409.24,1138.99 1408.28,1137.41 1407.36,1135.8 1406.47,1134.18 1405.62,1132.53 1404.8,1130.86 1404.01,1129.18 1403.26,1127.47 1402.54,1125.75 1401.86,1124.01 1401.22,1122.25 "/>
     <polygon id="_462035936" class="fil1" points="1577.98,1176.12 2713.86,2312 2715.36,2313.88 2716.69,2315.95 1580.81,1180.06 1579.48,1178 "/>
     <polygon id="_462045128" class="fil1" points="1580.81,1180.06 2716.69,2315.95 2717.8,2318.13 2718.68,2320.37 2719.31,2322.66 2719.71,2324.97 2719.87,2327.29 2719.82,2329.6 2719.54,2331.89 2719.05,2334.13 2718.34,2336.32 2717.43,2338.43 2716.32,2340.46 2715,2342.38 2713.5,2344.17 2711.8,2345.83 2709.92,2347.33 2707.86,2348.66 1571.97,1212.78 1574.04,1211.45 1575.92,1209.95 1577.61,1208.29 1579.12,1206.5 1580.44,1204.58 1581.55,1202.55 1582.46,1200.44 1583.17,1198.25 1583.66,1196 1583.94,1193.72 1583.99,1191.41 1583.82,1189.09 1583.43,1186.78 1582.79,1184.49 1581.92,1182.25 "/>
     <polygon id="_462037520" class="fil1" points="1571.97,1212.78 2707.86,2348.66 2705.66,2349.9 2703.46,2351.1 2701.23,2352.27 2698.99,2353.39 2696.73,2354.48 2694.46,2355.53 2692.17,2356.54 2689.86,2357.51 2687.54,2358.45 2685.21,2359.34 2682.87,2360.2 2680.51,2361.01 2678.15,2361.79 2675.77,2362.53 2673.38,2363.23 2670.98,2363.88 1535.1,1228 1537.5,1227.34 1539.89,1226.65 1542.26,1225.91 1544.63,1225.13 1546.99,1224.32 1549.33,1223.46 1551.66,1222.56 1553.98,1221.63 1556.29,1220.66 1558.57,1219.65 1560.85,1218.6 1563.11,1217.51 1565.35,1216.38 1567.57,1215.22 1569.78,1214.02 "/>
     <polygon id="_462017096" class="fil1" points="1535.1,1228 2670.98,2363.88 2669.76,2364.2 2668.54,2364.51 2667.32,2364.81 2666.09,2365.1 2664.86,2365.38 2663.64,2365.65 2662.41,2365.9 2661.17,2366.15 2659.94,2366.39 2658.7,2366.62 2657.47,2366.84 2656.23,2367.05 2654.99,2367.25 2653.75,2367.44 2652.51,2367.62 2651.26,2367.79 2650.02,2367.95 2648.77,2368.09 2647.53,2368.23 2646.28,2368.36 2645.03,2368.48 2643.78,2368.59 2642.53,2368.69 2641.28,2368.77 2640.03,2368.85 2638.78,2368.92 2637.53,2368.97 2636.28,2369.02 2635.03,2369.06 2633.77,2369.08 2632.52,2369.1 2631.27,2369.1 1495.39,1233.22 1496.64,1233.22 1497.89,1233.2 1499.14,1233.17 1500.4,1233.14 1501.65,1233.09 1502.9,1233.04 1504.15,1232.97 1505.4,1232.89 1506.65,1232.8 1507.9,1232.71 1509.15,1232.6 1510.4,1232.48 1511.65,1232.35 1512.89,1232.21 1514.14,1232.06 1515.38,1231.9 1516.63,1231.73 1517.87,1231.56 1519.11,1231.37 1520.35,1231.17 1521.59,1230.96 1522.82,1230.74 1524.06,1230.51 1525.29,1230.27 1526.52,1230.02 1527.75,1229.76 1528.98,1229.49 1530.21,1229.22 1531.43,1228.93 1532.66,1228.63 1533.88,1228.32 "/>
     <polygon id="_462036248" class="fil1" points="1542.85,1309.92 2678.73,2445.8 2680.2,2447.61 2681.5,2449.58 2682.61,2451.68 2683.51,2453.92 2684.2,2456.29 1548.32,1320.41 1547.63,1318.04 1546.73,1315.8 1545.62,1313.7 1544.32,1311.73 "/>
     <polygon id="_462033632" class="fil1" points="1408.66,1206.41 2544.54,2342.29 2542.37,2340.76 2540.22,2339.19 2538.1,2337.58 2536.02,2335.94 2533.96,2334.26 2531.95,2332.55 2529.96,2330.8 2528,2329.01 2526.08,2327.19 2524.2,2325.34 2522.35,2323.45 1386.47,1187.57 1388.32,1189.46 1390.2,1191.31 1392.12,1193.13 1394.08,1194.92 1396.06,1196.67 1398.08,1198.38 1400.14,1200.06 1402.22,1201.7 1404.34,1203.31 1406.49,1204.87 "/>
     <polygon id="_462041096" class="fil1" points="1548.32,1320.41 2684.2,2456.29 2684.65,2458.71 2684.84,2461.12 2684.8,2463.5 2684.52,2465.84 2684.02,2468.11 2683.3,2470.32 2682.38,2472.44 2681.27,2474.46 2679.96,2476.37 2678.48,2478.14 2676.83,2479.77 2675.01,2481.24 2673.05,2482.54 2670.94,2483.65 2668.7,2484.55 2666.34,2485.24 1530.46,1349.36 1532.82,1348.67 1535.06,1347.77 1537.17,1346.66 1539.13,1345.36 1540.95,1343.89 1542.6,1342.26 1544.08,1340.49 1545.39,1338.58 1546.5,1336.56 1547.42,1334.44 1548.14,1332.23 1548.64,1329.95 1548.92,1327.62 1548.96,1325.24 1548.77,1322.83 "/>
     <polygon id="_462035792" class="fil1" points="1494.66,1353.55 2630.54,2489.43 2627.55,2489.4 2624.58,2489.31 2621.61,2489.17 2618.66,2488.97 2615.72,2488.72 2612.8,2488.41 2609.89,2488.05 2606.99,2487.63 2604.11,2487.16 2601.25,2486.63 2598.4,2486.06 2595.57,2485.43 2592.76,2484.74 2589.97,2484.01 2587.2,2483.23 2584.45,2482.4 2581.72,2481.51 2579.01,2480.58 2576.33,2479.6 2573.67,2478.57 2571.03,2477.49 2568.42,2476.37 2565.83,2475.19 2563.27,2473.98 2560.74,2472.71 2558.23,2471.4 2555.76,2470.05 2553.31,2468.65 2550.89,2467.2 2548.5,2465.72 2546.14,2464.19 2543.82,2462.61 1407.94,1326.73 1410.26,1328.3 1412.62,1329.83 1415.01,1331.32 1417.43,1332.76 1419.88,1334.16 1422.35,1335.52 1424.86,1336.83 1427.39,1338.09 1429.95,1339.31 1432.54,1340.48 1435.15,1341.61 1437.79,1342.69 1440.45,1343.72 1443.13,1344.7 1445.84,1345.63 1448.57,1346.51 1451.32,1347.35 1454.09,1348.13 1456.88,1348.86 1459.69,1349.54 1462.52,1350.17 1465.37,1350.75 1468.23,1351.28 1471.11,1351.75 1474.01,1352.16 1476.92,1352.53 1479.84,1352.84 1482.78,1353.09 1485.73,1353.29 1488.7,1353.43 1491.67,1353.52 "/>
     <polygon id="_462026792" class="fil1" points="1173.46,1206.43 2309.35,2342.32 2307.17,2340.78 2305.02,2339.22 2302.9,2337.61 2300.82,2335.97 2298.77,2334.29 2296.75,2332.58 2294.76,2330.83 2292.8,2329.05 2290.88,2327.23 2289,2325.38 1153.11,1189.49 1155,1191.34 1156.92,1193.16 1158.87,1194.95 1160.86,1196.7 1162.88,1198.41 1164.94,1200.09 1167.02,1201.73 1169.14,1203.33 1171.29,1204.9 "/>
     <polygon id="_462036032" class="fil1" points="1158.34,1230.9 2294.22,2366.78 2295.84,2368.46 2297.3,2370.31 2298.58,2372.31 2299.67,2374.46 2300.56,2376.76 1164.68,1240.88 1163.79,1238.58 1162.7,1236.43 1161.42,1234.42 1159.96,1232.58 "/>
     <polygon id="_462017168" class="fil1" points="1346.15,1326.73 2482.03,2462.61 2479.7,2464.19 2477.35,2465.72 2474.96,2467.2 2472.54,2468.65 2470.09,2470.05 2467.61,2471.4 2465.11,2472.71 2462.57,2473.98 2460.01,2475.19 2457.43,2476.37 2454.81,2477.49 2452.18,2478.57 2449.52,2479.6 2446.83,2480.58 2444.13,2481.51 2441.4,2482.4 2438.65,2483.23 2435.87,2484.01 2433.08,2484.75 2430.27,2485.43 2427.44,2486.06 2424.6,2486.63 2421.73,2487.16 2418.85,2487.63 2415.96,2488.05 2413.05,2488.41 2410.12,2488.72 2407.18,2488.97 2404.23,2489.17 2401.27,2489.31 2398.29,2489.4 2395.3,2489.43 1259.42,1353.55 1262.41,1353.52 1265.39,1353.43 1268.35,1353.29 1271.3,1353.09 1274.24,1352.84 1277.17,1352.53 1280.08,1352.16 1282.97,1351.75 1285.85,1351.28 1288.72,1350.75 1291.56,1350.17 1294.39,1349.54 1297.2,1348.86 1299.99,1348.13 1302.77,1347.35 1305.51,1346.51 1308.24,1345.63 1310.95,1344.7 1313.64,1343.72 1316.3,1342.69 1318.93,1341.61 1321.55,1340.48 1324.13,1339.31 1326.69,1338.09 1329.23,1336.83 1331.73,1335.52 1334.21,1334.16 1336.66,1332.77 1339.08,1331.32 1341.47,1329.83 1343.82,1328.31 "/>
     <polygon id="_462043688" class="fil1" points="1259.42,1353.55 2395.3,2489.43 2392.32,2489.4 2389.35,2489.31 2386.38,2489.17 2383.43,2488.97 2380.5,2488.72 2377.57,2488.41 2374.66,2488.05 2371.77,2487.63 2368.89,2487.16 2366.03,2486.64 2363.18,2486.06 2360.36,2485.43 2357.55,2484.75 2354.76,2484.02 2351.99,2483.24 2349.24,2482.4 2346.51,2481.52 2343.8,2480.59 2341.12,2479.61 2338.46,2478.58 2335.83,2477.5 2333.22,2476.38 2330.63,2475.21 2328.07,2473.99 2325.54,2472.73 2323.03,2471.42 2320.55,2470.06 2318.11,2468.67 2315.69,2467.22 2313.3,2465.74 2310.94,2464.21 2308.62,2462.64 1172.74,1326.76 1175.06,1328.33 1177.42,1329.86 1179.81,1331.34 1182.23,1332.78 1184.67,1334.18 1187.15,1335.54 1189.66,1336.84 1192.19,1338.11 1194.75,1339.33 1197.33,1340.5 1199.95,1341.62 1202.58,1342.7 1205.24,1343.73 1207.92,1344.71 1210.63,1345.64 1213.36,1346.52 1216.11,1347.35 1218.88,1348.14 1221.67,1348.87 1224.48,1349.55 1227.3,1350.18 1230.15,1350.75 1233.01,1351.28 1235.89,1351.75 1238.78,1352.17 1241.69,1352.53 1244.62,1352.84 1247.55,1353.09 1250.5,1353.29 1253.46,1353.43 1256.44,1353.52 "/>
     <polygon id="_462040928" class="fil1" points="938.247,1206.41 2074.13,2342.29 2071.95,2340.76 2069.8,2339.19 2067.69,2337.58 2065.6,2335.94 2063.55,2334.26 2061.53,2332.55 2059.54,2330.8 2057.59,2329.01 2055.67,2327.19 919.788,1191.31 921.707,1193.13 923.662,1194.92 925.648,1196.66 927.669,1198.38 929.722,1200.06 931.808,1201.7 933.923,1203.31 936.07,1204.87 "/>
     <polygon id="_462033824" class="fil1" points="923.131,1230.81 2059.01,2366.69 2060.63,2368.37 2062.09,2370.22 2063.38,2372.22 2064.47,2374.38 2065.36,2376.67 929.474,1240.79 928.587,1238.49 927.494,1236.34 926.211,1234.34 924.751,1232.49 "/>
     <polygon id="_462015080" class="fil1" points="1110.94,1326.76 2246.82,2462.64 2244.49,2464.21 2242.13,2465.74 2239.75,2467.23 2237.33,2468.67 2234.88,2470.07 2232.4,2471.42 2229.9,2472.73 2227.36,2473.99 2224.8,2475.21 2222.22,2476.38 2219.61,2477.5 2216.97,2478.58 2214.31,2479.61 2211.63,2480.59 2208.92,2481.52 2206.19,2482.4 2203.45,2483.24 2200.68,2484.02 2197.89,2484.75 2195.08,2485.43 2192.25,2486.06 2189.4,2486.64 2186.54,2487.16 2183.66,2487.63 2180.77,2488.05 2177.86,2488.41 2174.94,2488.72 2172,2488.97 2169.05,2489.17 2166.09,2489.31 2163.11,2489.4 2160.13,2489.43 1024.25,1353.55 1027.23,1353.52 1030.21,1353.43 1033.17,1353.29 1036.12,1353.09 1039.06,1352.84 1041.98,1352.53 1044.89,1352.17 1047.78,1351.75 1050.66,1351.28 1053.52,1350.75 1056.37,1350.18 1059.2,1349.55 1062,1348.87 1064.79,1348.14 1067.56,1347.35 1070.31,1346.52 1073.04,1345.64 1075.75,1344.71 1078.43,1343.73 1081.09,1342.7 1083.73,1341.62 1086.34,1340.5 1088.92,1339.33 1091.48,1338.11 1094.02,1336.85 1096.52,1335.54 1099,1334.18 1101.45,1332.79 1103.87,1331.34 1106.25,1329.86 1108.61,1328.33 "/>
     <polygon id="_462014480" class="fil1" points="1024.25,1353.55 2160.13,2489.43 2157.14,2489.4 2154.17,2489.31 2151.2,2489.17 2148.25,2488.97 2145.31,2488.72 2142.39,2488.41 2139.48,2488.05 2136.58,2487.63 2133.7,2487.16 2130.84,2486.63 2127.99,2486.06 2125.16,2485.43 2122.35,2484.74 2119.56,2484.01 2116.79,2483.23 2114.04,2482.4 2111.31,2481.51 2108.6,2480.58 2105.92,2479.6 2103.25,2478.57 2100.62,2477.49 2098.01,2476.37 2095.42,2475.19 2092.86,2473.98 2090.32,2472.71 2087.82,2471.4 2085.34,2470.05 2082.89,2468.65 2080.47,2467.2 2078.08,2465.72 2075.73,2464.19 2073.4,2462.61 937.518,1326.73 939.844,1328.3 942.203,1329.83 944.591,1331.32 947.01,1332.76 949.459,1334.16 951.937,1335.52 954.442,1336.83 956.977,1338.09 959.538,1339.31 962.124,1340.48 964.736,1341.61 967.373,1342.69 970.034,1343.72 972.719,1344.7 975.426,1345.63 978.155,1346.51 980.906,1347.35 983.677,1348.13 986.468,1348.86 989.278,1349.54 992.107,1350.17 994.954,1350.75 997.817,1351.28 1000.7,1351.75 1003.59,1352.16 1006.51,1352.53 1009.43,1352.84 1012.37,1353.09 1015.32,1353.29 1018.29,1353.43 1021.26,1353.52 "/>
     <polygon id="_462029384" class="fil1" points="703.052,1206.43 1838.93,2342.31 1836.76,2340.78 1834.61,2339.22 1832.49,2337.61 1830.41,2335.97 1828.35,2334.29 1826.33,2332.58 1824.34,2330.83 688.462,1194.95 690.451,1196.7 692.471,1198.41 694.525,1200.09 696.61,1201.73 698.727,1203.33 700.875,1204.9 "/>
     <polygon id="_462044600" class="fil1" points="687.925,1230.9 1823.81,2366.78 1825.43,2368.46 1826.88,2370.31 1828.17,2372.31 1829.26,2374.46 1830.15,2376.76 694.267,1240.88 693.38,1238.58 692.287,1236.43 691.003,1234.42 689.545,1232.58 "/>
     <polygon id="_462025688" class="fil1" points="875.736,1326.73 2011.62,2462.61 2009.29,2464.19 2006.93,2465.72 2004.54,2467.2 2002.13,2468.65 1999.68,2470.05 1997.2,2471.4 1994.69,2472.71 1992.16,2473.98 1989.6,2475.19 1987.01,2476.37 1984.4,2477.49 1981.76,2478.57 1979.1,2479.6 1976.42,2480.58 1973.71,2481.51 1970.98,2482.4 1968.23,2483.23 1965.46,2484.01 1962.67,2484.74 1959.86,2485.43 1957.03,2486.06 1954.18,2486.63 1951.32,2487.16 1948.44,2487.63 1945.55,2488.05 1942.63,2488.41 1939.71,2488.72 1936.77,2488.97 1933.82,2489.17 1930.85,2489.31 1927.88,2489.4 1924.89,2489.43 789.011,1353.55 791.998,1353.52 794.973,1353.43 797.937,1353.29 800.89,1353.09 803.828,1352.84 806.754,1352.53 809.664,1352.16 812.56,1351.75 815.44,1351.28 818.304,1350.75 821.15,1350.17 823.979,1349.54 826.789,1348.86 829.58,1348.13 832.351,1347.35 835.101,1346.51 837.831,1345.63 840.538,1344.7 843.223,1343.72 845.884,1342.69 848.52,1341.61 851.133,1340.48 853.719,1339.31 856.28,1338.09 858.813,1336.83 861.318,1335.52 863.796,1334.16 866.245,1332.76 868.664,1331.32 871.053,1329.83 873.411,1328.3 "/>
     <polygon id="_462025952" class="fil1" points="789.011,1353.55 1924.89,2489.43 1921.91,2489.4 1918.93,2489.31 1915.97,2489.17 1913.02,2488.97 1910.08,2488.72 1907.16,2488.41 1904.25,2488.05 1901.36,2487.63 1898.48,2487.16 1895.62,2486.64 1892.77,2486.06 1889.95,2485.43 1887.14,2484.75 1884.35,2484.02 1881.58,2483.24 1878.83,2482.4 1876.1,2481.52 1873.4,2480.59 1870.71,2479.61 1868.05,2478.58 1865.42,2477.5 1862.8,2476.38 1860.22,2475.21 1857.66,2473.99 1855.13,2472.73 1852.62,2471.42 1850.14,2470.07 1847.7,2468.67 1845.28,2467.23 1842.89,2465.74 1840.53,2464.21 1838.21,2462.64 702.324,1326.76 704.65,1328.33 707.007,1329.86 709.395,1331.34 711.814,1332.79 714.263,1334.18 716.74,1335.54 719.245,1336.85 721.778,1338.11 724.338,1339.33 726.923,1340.5 729.534,1341.62 732.171,1342.7 734.83,1343.73 737.514,1344.71 740.22,1345.64 742.947,1346.52 745.697,1347.35 748.466,1348.14 751.256,1348.87 754.065,1349.55 756.892,1350.18 759.736,1350.75 762.598,1351.28 765.478,1351.75 768.371,1352.17 771.281,1352.53 774.204,1352.84 777.141,1353.09 780.09,1353.29 783.053,1353.43 786.027,1353.52 "/>
     <polygon id="_462017456" class="fil1" points="702.324,1326.76 1838.21,2462.64 1836.03,2461.11 1833.88,2459.54 1831.76,2457.94 1829.68,2456.29 1827.63,2454.62 1825.6,2452.9 1823.62,2451.15 687.734,1315.27 689.723,1317.02 691.744,1318.73 693.798,1320.41 695.882,1322.05 697.999,1323.66 700.147,1325.23 "/>
     <polygon id="_462035984" class="fil1" points="475.678,1211.46 1611.56,2347.34 1609.52,2345.98 1607.66,2344.44 471.779,1208.56 473.637,1210.09 "/>
     <polygon id="_462020744" class="fil1" points="640.519,1326.76 1776.4,2462.64 1774.07,2464.21 1771.72,2465.74 1769.33,2467.23 1766.91,2468.67 1764.46,2470.07 1761.99,2471.42 1759.48,2472.73 1756.95,2473.99 1754.39,2475.21 1751.8,2476.38 1749.19,2477.5 1746.56,2478.58 1743.9,2479.61 1741.21,2480.59 1738.51,2481.52 1735.78,2482.4 1733.03,2483.24 1730.26,2484.02 1727.47,2484.75 1724.66,2485.43 1721.83,2486.06 1718.99,2486.64 1716.13,2487.16 1713.25,2487.63 1710.35,2488.05 1707.44,2488.41 1704.52,2488.72 1701.58,2488.97 1698.63,2489.17 1695.67,2489.31 1692.7,2489.4 1689.71,2489.43 553.831,1353.55 556.816,1353.52 559.79,1353.43 562.752,1353.29 565.702,1353.09 568.64,1352.84 571.563,1352.53 574.472,1352.17 577.366,1351.75 580.245,1351.28 583.107,1350.75 585.952,1350.18 588.779,1349.55 591.587,1348.87 594.377,1348.14 597.147,1347.35 599.897,1346.52 602.625,1345.64 605.331,1344.71 608.014,1343.73 610.674,1342.7 613.309,1341.62 615.921,1340.5 618.506,1339.33 621.067,1338.11 623.599,1336.85 626.104,1335.54 628.581,1334.18 631.029,1332.79 633.448,1331.34 635.836,1329.86 638.194,1328.33 "/>
    </g>
    <path id="_478211848" class="fil1" d="M1448.04 918.943c-1.66654,19.0571 -10.7988,36.4985 -25.3217,48.9189l-1.36299 0.902363c-15.3768,9.78898 -33.7488,13.7965 -51.8469,11.5063 -18.4205,-2.33032 -34.9843,-13.6665 -48.6071,-25.6406l-127.552 -112.107 -99.1654 45.2906 242.685 171.469 -0.403937 0.457087c-11.6032,13.0417 -25.2732,24.4205 -41.1296,31.9122 -16.0583,7.58623 -33.4843,11.4992 -51.2445,11.4992 -22.1433,0 -43.6465,-6.05197 -62.5394,-17.5961 -10.2413,-6.25749 -19.5024,-14.0445 -27.4477,-23.0398l-16.9937 -19.2366 -16.9429 19.2827c-9.63308,10.963 -21.1843,19.9606 -34.1575,26.6433 -17.3469,8.93623 -36.7441,13.4504 -56.2371,13.4445 -19.4929,-0.00708662 -38.8807,-4.56024 -56.2323,-13.4681 -13.8709,-7.11969 -26.152,-16.8225 -36.2233,-28.7303l-15.5162 -18.3473 -17.3728 16.5992c-6.60945,6.31536 -13.9087,11.9138 -21.6543,16.7634 -20.6693,12.9437 -45.2209,20.9847 -69.5835,22.4705 -24.2882,1.47992 -48.7158,-3.49961 -69.3993,-16.6654 -13.0311,-8.29489 -23.6244,-19.2803 -31.8154,-32.3528 7.42442,-13.1788 15.7736,-26.1012 24.0201,-38.7815 10.6441,-16.3677 21.5173,-32.5914 32.3681,-48.8233 18.3414,-27.4347 37.8378,-55.5626 54.3591,-84.0863 0.140551,-0.201969 0.309449,-0.4063 0.461811,-0.597638 8.51339,-10.6347 18.0343,-21.8965 28.6784,-30.4618 8.84646,-7.11851 18.5811,-12.111 29.0114,-16.4634 41.9575,-17.511 83.6422,-36.6555 125.039,-55.4705 48.9449,-22.2461 97.695,-44.8524 146.534,-67.3193l0.700394 -0.275197c23.4213,-9.43347 49.5473,-12.6331 74.2902,-6.92835 25.2614,5.82638 47.3386,23.2028 66.0485,40.3902l137.785 126.582 0.302362 0.359055c11.8878,14.6988 18.1217,32.9835 16.4669,51.9zm-677.712 -165.765l0.0129921 0.0177165c-0.00472441,-0.00590552 -0.00826772,-0.011811 -0.0129921,-0.0177165zm21.8079 54.5245c5.7567,34.1729 -1.19882,70.7552 -22.4799,101.576l-1.82717 2.6563c-21.3567,29.5146 -52.6382,47.8843 -86.2028,53.628 -32.1544,5.50158 -66.4382,-0.629528 -96.0922,-19.6984 -1.11024,-0.227953 -2.21811,-0.479528 -3.32244,-0.752363 -14.5465,-3.5941 -28.4953,-10.9795 -35.3599,-21.2882 -0.68504,-1.02756 -1.3063,-2.09764 -1.85433,-3.20197 -2.95394,-5.9504 -3.38504,-12.0969 -2.07166,-18.1701 -6.83268,-11.2323 -11.9811,-23.374 -15.3614,-35.9941 -1.15039,-4.2874 -2.09528,-8.62914 -2.83229,-13.0087 -5.7567,-34.1929 1.19882,-70.7965 22.4362,-101.65 1.66181,-2.40709 0.272835,-0.514961 1.23898,-1.86378l0.0425197 0.0295276c21.528,-30.0579 53.628,-48.2197 87.7241,-53.7284 33.8977,-5.47678 69.913,1.62047 99.5044,22.0429l1.78701 1.24725c10.963,7.82717 20.4236,17.0752 28.3028,27.3402 1.58386,2.06339 3.10512,4.16929 4.56378,6.31654 0.00236221,0.00354331 0.00590552,0.00826772 0.00944883,0.0129921 11.1484,16.4173 18.5067,35.0528 21.7819,54.4311 0.00472441,0.0248032 0.00826772,0.0507874 0.0129921,0.0755906zm727.229 494.842c12.9272,-3.0626 25.8898,4.93465 28.9524,17.8618 3.0626,12.9272 -4.93347,25.8898 -17.8606,28.9524 -5.72599,1.35709 -11.6811,2.39646 -17.8288,3.11339 -6.1252,0.712205 -12.1287,1.07362 -17.9693,1.07362 -31.9122,0 -62.0871,-9.81379 -86.7249,-26.8146 -11.6906,-8.06694 -22.1197,-17.7461 -30.8929,-28.761 -8.77324,11.0162 -19.2036,20.6941 -30.8941,28.7622 -24.6355,17.0008 -54.8115,26.8134 -86.7249,26.8134 -31.891,0 -62.054,-9.80316 -86.6871,-26.7886 -11.6906,-8.06221 -22.1232,-17.7366 -30.9,-28.7504 -8.77796,11.0138 -19.2095,20.6882 -30.9,28.7504 -24.6355,16.9866 -54.7985,26.7886 -86.6883,26.7886 -31.9134,0 -62.0906,-9.81379 -86.7296,-26.8146 -11.6882,-8.06694 -22.1185,-17.7449 -30.8894,-28.761 -8.77324,11.0162 -19.2036,20.6941 -30.8929,28.761 -24.6366,17.0008 -54.8138,26.8146 -86.7249,26.8146 -31.8898,0 -62.0516,-9.80198 -86.6871,-26.7886 -11.6917,-8.06221 -22.1256,-17.7366 -30.9012,-28.7516 -8.77796,11.015 -19.2118,20.6917 -30.9036,28.7528 -24.6355,16.9866 -54.7961,26.7874 -86.6883,26.7874 -6.02245,0 -12.1571,-0.372048 -18.3591,-1.10787 -5.7815,-0.687402 -11.8252,-1.79291 -18.0933,-3.30827 -12.8752,-3.11575 -20.7886,-16.0784 -17.6728,-28.9536 3.11457,-12.8752 16.0784,-20.7874 28.9524,-17.6728 3.79016,0.916536 7.95237,1.64528 12.4547,2.18032 4.09252,0.486615 8.34213,0.731103 12.7181,0.731103 22.0807,0 42.7465,-6.63662 59.4272,-18.137 16.4091,-11.3138 29.0268,-27.3614 35.3221,-46.3985 2.30906,-6.99449 7.78938,-12.8433 15.3225,-15.3225 12.6154,-4.15394 26.211,2.70709 30.3638,15.3225 6.2941,19.0358 18.9106,35.0835 35.3185,46.3973 16.6807,11.5016 37.3477,18.1382 59.426,18.1382 22.0937,0 42.7748,-6.64725 59.4638,-18.1642 16.4091,-11.3244 29.0244,-27.3945 35.3126,-46.4587 2.30788,-6.99449 7.78938,-12.8421 15.3225,-15.3225 12.6154,-4.15394 26.2099,2.70709 30.3638,15.3225 6.28465,19.0654 18.8988,35.1355 35.3055,46.4587 16.6914,11.5169 37.3725,18.1642 59.4685,18.1642 22.0795,0 42.7465,-6.63662 59.4272,-18.1382 16.4079,-11.3138 29.0233,-27.3614 35.3173,-46.3973 2.30906,-6.99449 7.79056,-12.8433 15.3225,-15.3225 12.6154,-4.15394 26.211,2.70709 30.3638,15.3225 6.2941,19.0358 18.9106,35.0835 35.3185,46.3973 16.6795,11.5004 37.3453,18.1382 59.426,18.1382 22.0949,0 42.776,-6.64607 59.4638,-18.1642 16.4091,-11.3232 29.0233,-27.3933 35.3114,-46.4587 2.30906,-6.99449 7.78938,-12.8421 15.3225,-15.3225 12.6154,-4.15394 26.211,2.70709 30.3638,15.3225 6.28819,19.0642 18.9024,35.1343 35.3114,46.4587 16.6902,11.5169 37.3701,18.1642 59.4638,18.1642 4.36063,0 8.54174,-0.233858 12.5173,-0.696851 3.95433,-0.46063 8.0256,-1.18701 12.189,-2.17323zm-1019.06 -132.259c8.1189,4.88032 16.8343,8.60079 25.8638,11.0799 8.94686,2.45788 18.5032,3.7252 28.3878,3.7252 22.0807,0 42.7465,-6.6378 59.426,-18.1382 16.4102,-11.3162 29.0268,-27.3638 35.3233,-46.4008 4.15394,-12.6154 17.7484,-19.4764 30.3638,-15.3236 7.53308,2.48032 13.0146,8.32796 15.3225,15.3236 6.2941,19.0358 18.9106,35.0847 35.3197,46.3985 16.6807,11.5039 37.3477,18.1406 59.426,18.1406 22.0914,0 42.7713,-6.64725 59.4615,-18.1654 16.4091,-11.3244 29.0244,-27.3933 35.3138,-46.4575 4.15276,-12.6154 17.7484,-19.4764 30.3638,-15.3225 7.5319,2.47914 13.0134,8.32796 15.3225,15.3225 6.28465,19.0642 18.8988,35.1331 35.3079,46.4575 16.6902,11.5181 37.3713,18.1654 59.4662,18.1654 22.0795,0 42.7453,-6.63662 59.4248,-18.1394 16.4102,-11.315 29.0268,-27.3638 35.3197,-46.3996 4.15394,-12.6154 17.7484,-19.4764 30.3638,-15.3236 7.53308,2.48032 13.0146,8.32796 15.3225,15.3236 6.2941,19.0358 18.9106,35.0847 35.3197,46.3996 16.6795,11.5028 37.3465,18.1394 59.4248,18.1394 22.0949,0 42.7737,-6.64725 59.4626,-18.1654 16.4102,-11.3232 29.0256,-27.3933 35.3126,-46.4575 4.15394,-12.6154 17.7484,-19.4764 30.3638,-15.3225 7.53308,2.47914 13.0146,8.32796 15.3225,15.3225 6.28701,19.063 18.9036,35.1331 35.3126,46.4575 16.6902,11.5181 37.3701,18.1654 59.4626,18.1654 9.47009,0 18.7169,-1.19882 27.489,-3.52559 8.9315,-2.36929 17.426,-5.83937 25.2213,-10.3382 11.4732,-6.5941 26.1201,-2.6374 32.713,8.83583 6.59292,11.4732 2.6374,26.1189 -8.83583,32.713 -11.635,6.71457 -24.052,11.824 -36.8788,15.2268 -12.9839,3.44528 -26.3457,5.2193 -39.7087,5.2193 -31.911,0 -62.0859,-9.81261 -86.7237,-26.8158 -11.6906,-8.06694 -22.1209,-17.7461 -30.8941,-28.7622 -8.77442,11.0162 -19.2047,20.6965 -30.8953,28.7634 -24.6366,17.0008 -54.8103,26.8146 -86.7237,26.8146 -31.8898,0 -62.0516,-9.80198 -86.6859,-26.7886 -11.6906,-8.06339 -22.1244,-17.7378 -30.9012,-28.7528 -8.77796,11.015 -19.2106,20.6894 -30.9024,28.7528 -24.6343,16.9866 -54.7949,26.7886 -86.6859,26.7886 -31.9134,0 -62.0894,-9.81379 -86.7272,-26.8158 -11.6894,-8.06812 -22.1197,-17.7461 -30.8918,-28.7622 -8.77324,11.0162 -19.2047,20.6953 -30.8941,28.7622 -24.6378,17.0032 -54.8126,26.8158 -86.7225,26.8158 -31.891,0 -62.0516,-9.80198 -86.6871,-26.7898 -11.6917,-8.06221 -22.1256,-17.7378 -30.9036,-28.754 -8.77796,11.0173 -19.2106,20.6929 -30.9036,28.7551 -24.6343,16.9854 -54.7949,26.7886 -86.6871,26.7886 -13.7173,0 -27.5173,-1.90866 -40.9855,-5.6067 -13.389,-3.67796 -26.1591,-9.10158 -37.8945,-16.1551 -11.3693,-6.79961 -15.0732,-21.5327 -8.27245,-32.9008 6.79961,-11.3693 21.5315,-15.0732 32.9008,-8.27363z"/>
   </g>
  </g>
  <path class="fil2" d="M1024 0c565.539,0 1024,458.461 1024,1024 0,565.539 -458.461,1024 -1024,1024 -565.539,0 -1024,-458.461 -1024,-1024 0,-565.539 458.461,-1024 1024,-1024z"/>
  <path class="fil3" d="M1421.36 968.765l1.36299 -0.902363c14.5228,-12.4205 23.6551,-29.8618 25.3217,-48.9189 1.65473,-18.9165 -4.57914,-37.2012 -16.4669,-51.9 -0.0956694,-0.11811 -0.198425,-0.246851 -0.302362,-0.359055l-137.785 -126.582c-18.7099,-17.1874 -40.787,-34.5638 -66.0485,-40.3902 -24.7429,-5.70473 -50.8689,-2.50512 -74.2902,6.92835 -0.232677,0.0944883 -0.467717,0.184252 -0.700394,0.275197 -48.8386,22.4669 -97.5887,45.0733 -146.534,67.3193 -41.3965,18.815 -83.0812,37.9595 -125.039,55.4705 -10.4303,4.35237 -20.165,9.34489 -29.0114,16.4634 -10.6441,8.56536 -20.165,19.8272 -28.6784,30.4618 -0.152362,0.191339 -0.32126,0.39567 -0.461811,0.597638 -16.5213,28.5236 -36.0177,56.6516 -54.3591,84.0863 -10.8508,16.2319 -21.724,32.4555 -32.3681,48.8233 -8.24646,12.6803 -16.5957,25.6028 -24.0201,38.7815 8.19095,13.0725 18.7843,24.0579 31.8154,32.3528 20.6835,13.1658 45.1111,18.1453 69.3993,16.6654 24.3626,-1.48583 48.9142,-9.52678 69.5835,-22.4705 7.74568,-4.84961 15.0449,-10.448 21.6543,-16.7634l17.3728 -16.5992 15.5162 18.3473c10.0713,11.9079 22.3524,21.6106 36.2233,28.7303 17.3516,8.90788 36.7394,13.461 56.2323,13.4681 19.4929,0.00590552 38.8902,-4.50827 56.2371,-13.4445 12.9732,-6.68268 24.5244,-15.6803 34.1575,-26.6433l16.9429 -19.2827 16.9937 19.2366c7.94528,8.99528 17.2063,16.7823 27.4477,23.0398 18.8929,11.5441 40.3961,17.5961 62.5394,17.5961 17.7602,0 35.1862,-3.913 51.2445,-11.4992 15.8563,-7.49174 29.5264,-18.8705 41.1296,-31.9122 0.132284,-0.148819 0.272835,-0.301181 0.403937,-0.457087l-242.685 -171.469 99.1654 -45.2906 127.552 112.107c13.6228,11.974 30.1866,23.3103 48.6071,25.6406 18.098,2.29016 36.4701,-1.71732 51.8469,-11.5063z"/>
  <polygon class="fil4" points="605.601,904.92 602.826,902.933 605.591,904.935 "/>
  <path class="fil5" d="M792.138 807.702c5.7567,34.1729 -1.19882,70.7552 -22.4799,101.576l-1.82717 2.6563c-21.3567,29.5146 -52.6382,47.8843 -86.2028,53.628 -33.476,5.72717 -69.2587,-1.15276 -99.7229,-22.1138l-2.61496 -1.79882 -0.0129921 0.0177165c-30.0071,-21.4784 -48.7252,-53.6622 -54.5433,-88.219 -5.7567,-34.1929 1.19882,-70.7965 22.4362,-101.65 1.66181,-2.40709 0.272835,-0.514961 1.23898,-1.86378l0.0425197 0.0295276c21.528,-30.0579 53.628,-48.2197 87.7241,-53.7284 33.8977,-5.47678 69.913,1.62047 99.5044,22.0429 0.833859,0.575197 1.44095,0.999213 1.78701,1.24725 30.0803,21.4772 48.8552,53.6528 54.6709,88.1764z"/>
  <path class="fil6" d="M527.566 866.457c-1.15039,-4.2874 -2.09528,-8.62914 -2.83229,-13.0087 -5.7567,-34.1929 1.19882,-70.7965 22.4362,-101.65 1.66181,-2.40709 0.272835,-0.514961 1.23898,-1.86378l0.0425197 0.0295276c21.528,-30.0579 53.628,-48.2197 87.7241,-53.7284 33.8977,-5.47678 69.913,1.62047 99.5044,22.0429 0.833859,0.575197 1.44095,0.999213 1.78701,1.24725 30.0591,21.4618 48.8268,53.6044 54.6579,88.1009 -27.9992,21.5421 -78.6827,30.561 -133.459,20.5996 -15.9319,-2.89843 -30.9733,-7.17875 -44.7544,-12.5291 -17.4945,30.2681 -49.5981,50.6008 -86.3457,50.7603z"/>
  <path class="fil7" d="M1519.37 1302.54c12.9272,-3.0626 25.8898,4.93465 28.9524,17.8618 3.0626,12.9272 -4.93347,25.8898 -17.8606,28.9524 -5.72599,1.35709 -11.6811,2.39646 -17.8288,3.11339 -6.1252,0.712205 -12.1287,1.07362 -17.9693,1.07362 -31.9122,0 -62.0871,-9.81379 -86.7249,-26.8146 -11.6906,-8.06694 -22.1197,-17.7461 -30.8929,-28.761 -8.77324,11.0162 -19.2036,20.6941 -30.8941,28.7622 -24.6355,17.0008 -54.8115,26.8134 -86.7249,26.8134 -31.891,0 -62.054,-9.80316 -86.6871,-26.7886 -11.6906,-8.06221 -22.1232,-17.7366 -30.9,-28.7504 -8.77796,11.0138 -19.2095,20.6882 -30.9,28.7504 -24.6355,16.9866 -54.7985,26.7886 -86.6883,26.7886 -31.9134,0 -62.0906,-9.81379 -86.7296,-26.8146 -11.6882,-8.06694 -22.1185,-17.7449 -30.8894,-28.761 -8.77324,11.0162 -19.2036,20.6941 -30.8929,28.761 -24.6366,17.0008 -54.8138,26.8146 -86.7249,26.8146 -31.8898,0 -62.0516,-9.80198 -86.6871,-26.7886 -11.6917,-8.06221 -22.1256,-17.7366 -30.9012,-28.7516 -8.77796,11.015 -19.2118,20.6917 -30.9036,28.7528 -24.6355,16.9866 -54.7961,26.7874 -86.6883,26.7874 -6.02245,0 -12.1571,-0.372048 -18.3591,-1.10787 -5.7815,-0.687402 -11.8252,-1.79291 -18.0933,-3.30827 -12.8752,-3.11575 -20.7886,-16.0784 -17.6728,-28.9536 3.11457,-12.8752 16.0784,-20.7874 28.9524,-17.6728 3.79016,0.916536 7.95237,1.64528 12.4547,2.18032 4.09252,0.486615 8.34213,0.731103 12.7181,0.731103 22.0807,0 42.7465,-6.63662 59.4272,-18.137 16.4091,-11.3138 29.0268,-27.3614 35.3221,-46.3985 2.30906,-6.99449 7.78938,-12.8433 15.3225,-15.3225 12.6154,-4.15394 26.211,2.70709 30.3638,15.3225 6.2941,19.0358 18.9106,35.0835 35.3185,46.3973 16.6807,11.5016 37.3477,18.1382 59.426,18.1382 22.0937,0 42.7748,-6.64725 59.4638,-18.1642 16.4091,-11.3244 29.0244,-27.3945 35.3126,-46.4587 2.30788,-6.99449 7.78938,-12.8421 15.3225,-15.3225 12.6154,-4.15394 26.2099,2.70709 30.3638,15.3225 6.28465,19.0654 18.8988,35.1355 35.3055,46.4587 16.6914,11.5169 37.3725,18.1642 59.4685,18.1642 22.0795,0 42.7465,-6.63662 59.4272,-18.1382 16.4079,-11.3138 29.0233,-27.3614 35.3173,-46.3973 2.30906,-6.99449 7.79056,-12.8433 15.3225,-15.3225 12.6154,-4.15394 26.211,2.70709 30.3638,15.3225 6.2941,19.0358 18.9106,35.0835 35.3185,46.3973 16.6795,11.5004 37.3453,18.1382 59.426,18.1382 22.0949,0 42.776,-6.64607 59.4638,-18.1642 16.4091,-11.3232 29.0233,-27.3933 35.3114,-46.4587 2.30906,-6.99449 7.78938,-12.8421 15.3225,-15.3225 12.6154,-4.15394 26.211,2.70709 30.3638,15.3225 6.28819,19.0642 18.9024,35.1343 35.3114,46.4587 16.6902,11.5169 37.3701,18.1642 59.4638,18.1642 4.36063,0 8.54174,-0.233858 12.5173,-0.696851 3.95433,-0.46063 8.0256,-1.18701 12.189,-2.17323z"/>
  <path class="fil7" d="M475.678 1211.46c-11.3693,-6.79961 -15.0732,-21.5327 -8.27245,-32.9008 6.79961,-11.3693 21.5315,-15.0732 32.9008,-8.27363 8.1189,4.88032 16.8343,8.60079 25.8638,11.0799 8.94686,2.45788 18.5032,3.7252 28.3878,3.7252 22.0807,0 42.7465,-6.6378 59.426,-18.1382 16.4102,-11.3162 29.0268,-27.3638 35.3233,-46.4008 4.15394,-12.6154 17.7484,-19.4764 30.3638,-15.3236 7.53308,2.48032 13.0146,8.32796 15.3225,15.3236 6.2941,19.0358 18.9106,35.0847 35.3197,46.3985 16.6807,11.5039 37.3477,18.1406 59.426,18.1406 22.0914,0 42.7713,-6.64725 59.4615,-18.1654 16.4091,-11.3244 29.0244,-27.3933 35.3138,-46.4575 4.15276,-12.6154 17.7484,-19.4764 30.3638,-15.3225 7.5319,2.47914 13.0134,8.32796 15.3225,15.3225 6.28465,19.0642 18.8988,35.1331 35.3079,46.4575 16.6902,11.5181 37.3713,18.1654 59.4662,18.1654 22.0795,0 42.7453,-6.63662 59.4248,-18.1394 16.4102,-11.315 29.0268,-27.3638 35.3197,-46.3996 4.15394,-12.6154 17.7484,-19.4764 30.3638,-15.3236 7.53308,2.48032 13.0146,8.32796 15.3225,15.3236 6.2941,19.0358 18.9106,35.0847 35.3197,46.3996 16.6795,11.5028 37.3465,18.1394 59.4248,18.1394 22.0949,0 42.7737,-6.64725 59.4626,-18.1654 16.4102,-11.3232 29.0256,-27.3933 35.3126,-46.4575 4.15394,-12.6154 17.7484,-19.4764 30.3638,-15.3225 7.53308,2.47914 13.0146,8.32796 15.3225,15.3225 6.28701,19.063 18.9036,35.1331 35.3126,46.4575 16.6902,11.5181 37.3701,18.1654 59.4626,18.1654 9.47009,0 18.7169,-1.19882 27.489,-3.52559 8.9315,-2.36929 17.426,-5.83937 25.2213,-10.3382 11.4732,-6.5941 26.1201,-2.6374 32.713,8.83583 6.59292,11.4732 2.6374,26.1189 -8.83583,32.713 -11.635,6.71457 -24.052,11.824 -36.8788,15.2268 -12.9839,3.44528 -26.3457,5.2193 -39.7087,5.2193 -31.911,0 -62.0859,-9.81261 -86.7237,-26.8158 -11.6906,-8.06694 -22.1209,-17.7461 -30.8941,-28.7622 -8.77442,11.0162 -19.2047,20.6965 -30.8953,28.7634 -24.6366,17.0008 -54.8103,26.8146 -86.7237,26.8146 -31.8898,0 -62.0516,-9.80198 -86.6859,-26.7886 -11.6906,-8.06339 -22.1244,-17.7378 -30.9012,-28.7528 -8.77796,11.015 -19.2106,20.6894 -30.9024,28.7528 -24.6343,16.9866 -54.7949,26.7886 -86.6859,26.7886 -31.9134,0 -62.0894,-9.81379 -86.7272,-26.8158 -11.6894,-8.06812 -22.1197,-17.7461 -30.8918,-28.7622 -8.77324,11.0162 -19.2047,20.6953 -30.8941,28.7622 -24.6378,17.0032 -54.8126,26.8158 -86.7225,26.8158 -31.891,0 -62.0516,-9.80198 -86.6871,-26.7898 -11.6917,-8.06221 -22.1256,-17.7378 -30.9036,-28.754 -8.77796,11.0173 -19.2106,20.6929 -30.9036,28.7551 -24.6343,16.9854 -54.7949,26.7886 -86.6871,26.7886 -13.7173,0 -27.5173,-1.90866 -40.9855,-5.6067 -13.389,-3.67796 -26.1591,-9.10158 -37.8945,-16.1551z"/>
  <path class="fil8" d="M582.838 859.512c41.0386,-27.3295 80.791,52.7552 39.7536,80.0835 -17.2429,11.4827 -63.7701,1.7374 -74.7485,-20.3776 -10.9772,-22.115 17.7532,-48.2244 34.9949,-59.706z"/>
  <path class="fil9" d="M581.086 856.867c14.4425,-9.61772 28.7362,-7.17284 40.0276,1.59449l-0.00472441 0.00590552c4.81418,3.73819 9.04607,8.62205 12.4642,14.1791 3.39331,5.5193 6.013,11.752 7.62875,18.2291 4.67953,18.7642 0.88819,39.5481 -16.8602,51.3674 -0.825591,0.549213 -1.71614,1.06063 -2.66221,1.52953 -9.61654,4.77402 -24.9437,4.92756 -39.4666,1.33937 -14.5465,-3.5941 -28.4953,-10.9795 -35.3599,-21.2882 -0.68504,-1.02756 -1.3063,-2.09764 -1.85433,-3.20197 -5.0752,-10.226 -2.70236,-21.0284 3.17126,-31.0512 7.95827,-13.578 22.4929,-25.7634 32.9162,-32.7036zm36.1264 6.613c-9.21142,-7.15276 -20.8642,-9.15237 -32.6233,-1.32165 -9.86221,6.56693 -23.5701,18.0213 -30.9544,30.6177 -4.85906,8.29253 -6.90709,17.0587 -2.94685,25.0382 0.420473,0.84567 0.90945,1.68425 1.4563,2.50748 5.92087,8.89016 18.4146,15.3756 31.5839,18.6284 13.1917,3.25866 26.863,3.24331 35.1437,-0.86693 0.692127,-0.34252 1.35118,-0.721654 1.96772,-1.13268 15.1417,-10.0831 18.2929,-28.1492 14.2004,-44.5595 -1.44921,-5.80867 -3.8126,-11.4224 -6.88229,-16.415 -3.0437,-4.95118 -6.75827,-9.25631 -10.9323,-12.4961l-0.0129921 0z"/>
  <path class="fil9" d="M770.343 753.195c-0.0425197,0.131102 -13.9512,43.1587 -48.5882,71.9245 -34.0902,28.3122 -87.0922,56.0953 -87.2115,56.165l-3.58819 -6.07323c0.116929,-0.0696851 52.7292,-27.6225 86.2997,-55.5024 33.0236,-27.4264 48.4737,-72.7182 48.515,-72.8434l4.57323 6.32953z"/>
 </g>
</svg>
