<?xml version="1.0" encoding="UTF-8"?>
<!DOCTYPE svg PUBLIC "-//W3C//DTD SVG 1.1//EN" "http://www.w3.org/Graphics/SVG/1.1/DTD/svg11.dtd">
<!-- Creator: CorelDRAW -->
<svg xmlns="http://www.w3.org/2000/svg" xml:space="preserve" width="2048px" height="2048px" style="shape-rendering:geometricPrecision; text-rendering:geometricPrecision; image-rendering:optimizeQuality; fill-rule:evenodd; clip-rule:evenodd"
viewBox="0 0 2048 2048"
 xmlns:xlink="http://www.w3.org/1999/xlink">
 <defs>
  <style type="text/css">
   <![CDATA[
    .fil2 {fill:none}
    .fil6 {fill:#01579B}
    .fil4 {fill:#1F1F1F}
    .fil10 {fill:#212121}
    .fil7 {fill:#2C6C2F}
    .fil8 {fill:#2E7D32}
    .fil9 {fill:#B19A75}
    .fil5 {fill:#E0E0E0}
    .fil11 {fill:#E2CDAA}
    .fil1 {fill:#FB8C00}
    .fil0 {fill:#FFB74D}
    .fil3 {fill:#FFD3AE}
    .fil13 {fill:#424242;fill-rule:nonzero}
    .fil12 {fill:#757575;fill-rule:nonzero}
   ]]>
  </style>
   <clipPath id="id0">
    <path d="M1024 0c565.539,0 1024,458.461 1024,1024 0,565.539 -458.461,1024 -1024,1024 -565.539,0 -1024,-458.461 -1024,-1024 0,-565.539 458.461,-1024 1024,-1024z"/>
   </clipPath>
 </defs>
 <g id="Layer_x0020_1">
  <metadata id="CorelCorpID_0Corel-Layer"/>
  <path class="fil0" d="M1024 0c565.539,0 1024,458.461 1024,1024 0,565.539 -458.461,1024 -1024,1024 -565.539,0 -1024,-458.461 -1024,-1024 0,-565.539 458.461,-1024 1024,-1024z"/>
  <g style="clip-path:url(#id0)">
   <g id="_478230184">
    <g>
     <polygon id="_3871985681" class="fil1" points="1272.57,571.215 2408.46,1707.1 2409.03,1707.95 2409.18,1708.91 2409.11,1710.08 2409.02,1711.58 2409.11,1713.51 2409.57,1715.98 1273.69,580.095 1273.23,577.627 1273.14,575.698 1273.23,574.202 1273.3,573.029 1273.15,572.07 "/>
     <polygon id="_387211888" class="fil1" points="1296.87,565.465 2432.75,1701.35 2433.31,1702.07 2433.78,1702.78 2434.15,1703.5 2434.45,1704.24 2434.67,1705.01 2434.82,1705.83 2434.92,1706.71 2434.97,1707.66 2434.97,1708.7 2434.94,1709.84 2434.87,1711.09 2434.79,1712.47 1298.91,576.585 1298.99,575.207 1299.05,573.956 1299.09,572.819 1299.08,571.78 1299.04,570.828 1298.94,569.95 1298.79,569.131 1298.57,568.359 1298.27,567.619 1297.9,566.9 1297.43,566.185 "/>
     <polygon id="_387205600" class="fil1" points="1319.33,566.914 2455.22,1702.8 2455.91,1703.67 2456.51,1704.62 2457.04,1705.66 2457.48,1706.77 2457.85,1707.95 2458.15,1709.19 2458.38,1710.49 2458.55,1711.83 2458.66,1713.23 2458.73,1714.66 2458.74,1716.13 2458.71,1717.63 1322.83,581.749 1322.86,580.25 1322.85,578.781 1322.78,577.346 1322.67,575.952 1322.5,574.603 1322.27,573.306 1321.97,572.066 1321.6,570.889 1321.15,569.78 1320.63,568.743 1320.03,567.786 "/>
     <polygon id="_387202984" class="fil1" points="1410.11,472.185 2545.99,1608.07 2546.85,1609.19 2547.68,1610.38 1411.8,474.495 1410.97,473.311 "/>
     <polygon id="_387209512" class="fil1" points="1411.8,474.495 2547.68,1610.38 2547.65,1610.42 1411.77,474.537 "/>
     <polygon id="_387196408" class="fil1" points="1411.77,474.537 2547.65,1610.42 2548.45,1611.67 2549.2,1612.97 2549.91,1614.33 2550.58,1615.74 2551.2,1617.19 2551.78,1618.69 2552.31,1620.24 2552.79,1621.82 2553.22,1623.44 2553.6,1625.1 2553.92,1626.79 2554.19,1628.51 2554.4,1630.26 2554.56,1632.04 2554.65,1633.84 2554.68,1635.67 1418.8,499.786 1418.77,497.961 1418.67,496.159 1418.52,494.38 1418.31,492.629 1418.04,490.907 1417.72,489.215 1417.34,487.558 1416.91,485.937 1416.43,484.354 1415.9,482.811 1415.32,481.311 1414.7,479.857 1414.03,478.45 1413.32,477.092 1412.57,475.787 "/>
     <polygon id="_387194128" class="fil1" points="1418.8,499.786 2554.68,1635.67 2554.68,1673.68 1418.8,537.794 "/>
     <polygon id="_387215776" class="fil1" points="1456.21,520.757 2592.09,1656.64 2593.01,1657.84 2593.86,1659.19 1457.98,523.31 1457.13,521.96 "/>
     <polygon id="_387192472" class="fil1" points="1457.98,523.31 2593.86,1659.19 2593.84,1659.22 1457.96,523.334 "/>
     <polygon id="_387199192" class="fil1" points="1457.96,523.334 2593.84,1659.22 2594.24,1659.95 2594.62,1660.71 2594.97,1661.5 2595.31,1662.32 2595.62,1663.17 2595.91,1664.05 2596.17,1664.95 2596.42,1665.88 2596.63,1666.82 2596.82,1667.79 2596.98,1668.78 2597.11,1669.78 2597.22,1670.81 2597.3,1671.85 2597.34,1672.9 2597.36,1673.96 1461.48,538.082 1461.46,537.017 1461.42,535.963 1461.34,534.925 1461.23,533.902 1461.1,532.896 1460.94,531.907 1460.75,530.94 1460.53,529.993 1460.29,529.068 1460.03,528.167 1459.74,527.291 1459.43,526.441 1459.09,525.619 1458.74,524.827 1458.36,524.065 "/>
     <polygon id="_387185992" class="fil1" points="1461.48,538.082 2597.36,1673.96 2597.36,1717.63 1461.48,581.749 "/>
     <polygon id="_387201136" class="fil1" points="1482.82,581.749 2618.7,1717.63 2618.7,1742.76 1482.82,606.874 "/>
     <polygon id="_387200488" class="fil1" points="1482.82,606.874 2618.7,1742.76 2597.36,1742.76 1461.48,606.874 "/>
     <polygon id="_387211648" class="fil1" points="1461.48,606.874 2597.36,1742.76 2597.36,1781.54 1461.48,645.658 "/>
     <polygon id="_387208240" class="fil1" points="1461.48,645.658 2597.36,1781.54 2597.34,1782.61 2597.3,1783.67 2597.22,1784.72 2597.12,1785.75 2596.98,1786.76 2596.82,1787.75 2596.63,1788.72 2596.42,1789.67 2596.18,1790.6 2595.91,1791.5 2595.63,1792.37 2595.32,1793.22 2594.98,1794.04 2594.63,1794.83 2594.25,1795.59 2593.86,1796.31 1457.98,660.43 1458.37,659.704 1458.75,658.946 1459.1,658.157 1459.43,657.337 1459.75,656.489 1460.03,655.614 1460.3,654.713 1460.54,653.787 1460.75,652.838 1460.94,651.867 1461.1,650.875 1461.23,649.865 1461.34,648.837 1461.42,647.793 1461.46,646.732 "/>
     <polygon id="_387188344" class="fil1" points="1457.98,660.43 2593.86,1796.31 2593.83,1796.31 1457.95,660.43 "/>
     <polygon id="_387201472" class="fil1" points="1457.95,660.43 2593.83,1796.31 2592.98,1797.66 2592.07,1798.87 2591.08,1799.92 2590.04,1800.8 2588.95,1801.5 2587.81,1802.02 2586.64,1802.34 2585.42,1802.44 1449.54,666.562 1450.76,666.453 1451.93,666.135 1453.07,665.619 1454.16,664.915 1455.2,664.033 1456.18,662.984 1457.1,661.78 "/>
     <polygon id="_387202624" class="fil1" points="1418.8,645.947 2554.68,1781.83 2554.68,1819.84 1418.8,683.956 "/>
     <polygon id="_387203824" class="fil1" points="1431.01,666.562 2566.89,1802.44 2565.7,1802.34 2564.54,1802.03 2563.4,1801.53 2562.3,1800.84 2561.25,1799.99 2560.25,1798.97 1424.37,663.087 1425.37,664.105 1426.42,664.961 1427.52,665.645 1428.66,666.147 1429.82,666.456 "/>
     <polygon id="_387201592" class="fil1" points="1449.54,666.562 2585.42,1802.44 2566.89,1802.44 1431.01,666.562 "/>
     <polygon id="_387190096" class="fil1" points="1333.49,606.874 2469.37,1742.76 2455.21,1742.76 1319.33,606.874 "/>
     <polygon id="_387207976" class="fil1" points="1319.33,606.874 2455.21,1742.76 2454.86,1744.58 2454.49,1746.4 2454.12,1748.21 2453.73,1750.03 2453.35,1751.83 2452.95,1753.63 2452.55,1755.42 2452.15,1757.2 2451.75,1758.97 2451.35,1760.72 2450.95,1762.47 2450.56,1764.2 2450.17,1765.91 2449.79,1767.6 2449.41,1769.28 2449.05,1770.94 1313.17,635.056 1313.53,633.399 1313.91,631.721 1314.29,630.025 1314.68,628.313 1315.07,626.585 1315.47,624.841 1315.87,623.085 1316.27,621.316 1316.67,619.537 1317.07,617.747 1317.46,615.949 1317.85,614.144 1318.24,612.332 1318.61,610.516 1318.98,608.697 "/>
     <polygon id="_387210208" class="fil1" points="1313.17,635.056 2449.05,1770.94 2448.98,1771.24 2448.89,1771.53 2448.8,1771.81 2448.69,1772.09 2448.58,1772.36 2448.45,1772.62 2448.31,1772.87 2448.16,1773.12 1312.28,637.239 1312.43,636.993 1312.57,636.739 1312.7,636.478 1312.81,636.208 1312.92,635.932 1313.01,635.647 1313.1,635.356 "/>
     <polygon id="_387212200" class="fil1" points="1312.28,637.239 2448.16,1773.12 2448.1,1778.45 2447.59,1784.29 2446.67,1790.62 2445.34,1797.39 2443.64,1804.56 2441.56,1812.11 2439.14,1819.98 2436.39,1828.15 2433.32,1836.57 2429.96,1845.2 2426.32,1854.02 2422.42,1862.98 2418.28,1872.03 2413.91,1881.16 2409.33,1890.31 2404.57,1899.45 2399.63,1908.55 2394.55,1917.55 2389.32,1926.44 2383.97,1935.16 2378.53,1943.68 2372.99,1951.97 2367.4,1959.98 2361.75,1967.67 2356.08,1975.02 2350.39,1981.97 2344.7,1988.5 2339.04,1994.57 2333.42,2000.13 2327.85,2005.16 2322.36,2009.6 2316.97,2013.43 1181.09,877.547 1186.48,873.718 1191.97,869.273 1197.54,864.25 1203.16,858.687 1208.82,852.621 1214.51,846.092 1220.2,839.135 1225.87,831.79 1231.52,824.094 1237.11,816.084 1242.64,807.799 1248.09,799.277 1253.44,790.556 1258.66,781.672 1263.75,772.665 1268.69,763.571 1273.45,754.43 1278.03,745.277 1282.39,736.152 1286.54,727.093 1290.44,718.137 1294.08,709.321 1297.44,700.684 1300.51,692.264 1303.26,684.099 1305.68,676.224 1307.76,668.682 1309.46,661.505 1310.79,654.736 1311.71,648.409 1312.22,642.565 "/>
     <polygon id="_387199600" class="fil1" points="1357.89,719.742 2493.78,1855.62 2492.58,1855.58 2491.4,1855.44 2490.23,1855.22 2489.07,1854.92 2487.93,1854.53 2486.8,1854.06 2485.69,1853.51 2484.61,1852.88 2483.54,1852.19 2482.5,1851.42 2481.49,1850.58 2480.5,1849.68 2479.55,1848.71 2478.63,1847.68 1342.75,711.793 1343.67,712.825 1344.62,713.794 1345.61,714.699 1346.62,715.536 1347.66,716.305 1348.73,717.002 1349.81,717.625 1350.92,718.173 1352.05,718.643 1353.19,719.033 1354.35,719.339 1355.52,719.561 1356.7,719.697 "/>
     <polygon id="_387194848" class="fil1" points="1418.8,683.956 2554.68,1819.84 2554.65,1821.68 2554.56,1823.49 2554.4,1825.28 2554.19,1827.04 2553.93,1828.77 2553.6,1830.47 2553.23,1832.13 2552.8,1833.75 2552.32,1835.34 2551.79,1836.88 2551.22,1838.38 2550.6,1839.83 2549.93,1841.24 2549.22,1842.59 2548.47,1843.89 2547.68,1845.13 1411.8,709.247 1412.59,708.004 1413.34,706.705 1414.05,705.354 1414.71,703.951 1415.34,702.498 1415.91,701 1416.44,699.456 1416.92,697.871 1417.35,696.247 1417.72,694.586 1418.04,692.888 1418.31,691.158 1418.52,689.397 1418.67,687.609 1418.77,685.793 "/>
     <polygon id="_387195112" class="fil1" points="1411.8,709.247 2547.68,1845.13 2547.63,1845.13 1411.75,709.247 "/>
     <polygon id="_387213496" class="fil1" points="1411.75,709.247 2547.63,1845.13 2546.8,1846.31 2545.93,1847.44 2545.03,1848.5 2544.1,1849.5 2543.13,1850.43 2542.14,1851.3 2541.11,1852.09 2540.06,1852.8 2538.98,1853.45 2537.87,1854.01 2536.75,1854.49 2535.6,1854.89 2534.43,1855.21 2533.24,1855.44 2532.04,1855.58 2530.82,1855.62 1394.94,719.742 1396.16,719.695 1397.36,719.556 1398.55,719.329 1399.72,719.012 1400.87,718.612 1401.99,718.129 1403.1,717.564 1404.18,716.923 1405.23,716.204 1406.25,715.413 1407.25,714.55 1408.22,713.618 1409.15,712.62 1410.05,711.557 1410.92,710.431 "/>
     <polygon id="_387203992" class="fil1" points="1394.94,719.742 2530.82,1855.62 2493.78,1855.62 1357.89,719.742 "/>
     <polygon id="_387185800" class="fil1" points="1181.09,877.547 2316.97,2013.43 2317.75,2014.78 2318.52,2016.1 2319.27,2017.38 2320,2018.61 2320.7,2019.8 2321.38,2020.93 2322.03,2022.02 2322.66,2023.04 2323.25,2024 2323.81,2024.9 2324.34,2025.73 2324.84,2026.49 2325.3,2027.17 2325.72,2027.77 2326.09,2028.29 2326.43,2028.73 1190.55,892.844 1190.21,892.411 1189.83,891.891 1189.41,891.289 1188.96,890.607 1188.46,889.849 1187.93,889.019 1187.37,888.121 1186.78,887.157 1186.15,886.133 1185.5,885.05 1184.82,883.914 1184.12,882.727 1183.39,881.494 1182.64,880.216 1181.87,878.899 "/>
     <polygon id="_387190264" class="fil1" points="1190.55,892.844 2326.43,2028.73 2326.35,2028.78 2326.1,2028.93 2325.69,2029.19 2325.11,2029.54 2324.37,2030 2323.48,2030.56 2322.43,2031.21 2321.22,2031.96 2319.86,2032.81 2318.34,2033.76 2316.68,2034.8 2314.86,2035.93 2312.9,2037.16 2310.79,2038.48 2308.54,2039.89 2306.15,2041.4 1170.27,905.514 1172.66,904.009 1174.91,902.597 1177.02,901.276 1178.98,900.048 1180.8,898.914 1182.46,897.874 1183.97,896.929 1185.34,896.081 1186.54,895.328 1187.6,894.674 1188.49,894.119 1189.23,893.662 1189.8,893.305 1190.22,893.05 1190.47,892.896 "/>
     <polygon id="_387187120" class="fil1" points="696.678,470.917 1832.56,1606.8 1833.48,1607.83 1834.37,1608.92 1835.21,1610.07 699.334,474.189 698.484,473.04 697.599,471.949 "/>
     <polygon id="_387194824" class="fil1" points="731.95,606.874 1867.83,1742.76 1842.74,1742.76 706.862,606.874 "/>
     <polygon id="_387202888" class="fil1" points="706.862,683.956 1842.74,1819.84 1842.71,1821.71 1842.61,1823.57 1842.44,1825.39 1842.21,1827.18 1841.92,1828.93 1841.57,1830.66 1841.16,1832.34 1840.69,1833.98 1840.18,1835.59 1839.61,1837.14 1838.99,1838.65 1838.32,1840.12 1837.61,1841.53 1836.85,1842.89 1836.05,1844.19 1835.21,1845.43 699.334,709.553 700.172,708.306 700.971,707.004 701.727,705.645 702.44,704.234 703.107,702.772 703.726,701.261 704.295,699.703 704.813,698.102 705.277,696.458 705.686,694.773 706.038,693.053 706.329,691.295 706.56,689.504 706.726,687.683 706.828,685.832 "/>
     <polygon id="_387211960" class="fil1" points="578.871,606.874 1714.75,1742.76 1701.06,1742.76 565.18,606.874 "/>
     <polygon id="_387203056" class="fil1" points="948.902,1118.69 2084.78,2254.57 2084.27,2254.28 2083.75,2253.98 2083.24,2253.68 2082.73,2253.37 2082.22,2253.06 2081.72,2252.75 2081.22,2252.43 2080.72,2252.11 944.835,1116.22 945.335,1116.55 945.838,1116.86 946.342,1117.18 946.849,1117.49 947.359,1117.79 947.871,1118.1 948.386,1118.4 "/>
     <polygon id="_387207880" class="fil1" points="1044.17,1167.53 2180.05,2303.41 2179.76,2317.05 1043.88,1181.17 "/>
     <polygon id="_387209776" class="fil1" points="1043.88,1181.17 2179.76,2317.05 2154.99,2390.8 1019.11,1254.92 "/>
     <polygon id="_387214648" class="fil1" points="1019.11,1254.92 2154.99,2390.8 2154.76,2390.87 2154.12,2391.04 2153.07,2391.33 2151.66,2391.69 2149.91,2392.14 2147.85,2392.64 2145.52,2393.19 2142.93,2393.77 1007.05,1257.89 1009.64,1257.31 1011.97,1256.76 1014.03,1256.25 1015.78,1255.81 1017.19,1255.44 1018.24,1255.16 1018.88,1254.98 "/>
     <polygon id="_387200440" class="fil1" points="1007.05,1257.89 2142.93,2393.77 2142.07,2395.51 2141.18,2397.25 2140.25,2399.01 2139.29,2400.78 2138.31,2402.55 2137.3,2404.32 2136.27,2406.09 2135.22,2407.85 2134.16,2409.61 2133.09,2411.36 2132.02,2413.09 2130.93,2414.81 2129.85,2416.52 2128.77,2418.2 2127.7,2419.86 2126.63,2421.5 2125.58,2423.1 2124.54,2424.68 2123.52,2426.22 2122.53,2427.73 2121.55,2429.2 2120.61,2430.62 2119.7,2432 2118.83,2433.34 2117.99,2434.62 2117.19,2435.86 2116.44,2437.03 2115.74,2438.16 2115.09,2439.21 2114.5,2440.21 2113.96,2441.14 2113.48,2442.01 977.6,1306.13 978.076,1305.26 978.615,1304.33 979.21,1303.33 979.861,1302.27 980.563,1301.15 981.313,1299.97 982.109,1298.74 982.945,1297.45 983.82,1296.12 984.731,1294.74 985.673,1293.31 986.644,1291.84 987.641,1290.34 988.659,1288.8 989.697,1287.22 990.75,1285.61 991.815,1283.98 992.89,1282.32 993.969,1280.63 995.052,1278.93 996.134,1277.21 997.211,1275.47 998.283,1273.73 999.342,1271.97 1000.39,1270.2 1001.42,1268.43 1002.43,1266.66 1003.41,1264.9 1004.37,1263.13 1005.3,1261.37 1006.19,1259.62 "/>
     <polygon id="_387204688" class="fil1" points="1227.48,1448.5 2363.36,2584.38 2363.52,2586.46 2363.7,2588.55 2363.9,2590.64 2364.1,2592.73 2364.32,2594.81 2364.55,2596.9 2364.79,2598.98 2365.04,2601.06 2365.29,2603.13 2365.56,2605.19 2365.83,2607.24 2366.11,2609.27 2366.4,2611.3 2366.68,2613.3 2366.98,2615.29 2367.27,2617.25 2367.57,2619.2 2367.87,2621.12 2368.17,2623.01 2368.47,2624.88 2368.77,2626.72 2369.07,2628.53 2369.36,2630.3 2369.66,2632.04 2369.94,2633.75 2370.22,2635.41 2370.5,2637.04 2370.77,2638.62 2371.03,2640.16 2371.28,2641.66 2371.53,2643.11 2371.76,2644.51 1235.88,1508.63 1235.64,1507.23 1235.4,1505.78 1235.15,1504.28 1234.89,1502.74 1234.62,1501.16 1234.34,1499.53 1234.06,1497.86 1233.77,1496.16 1233.48,1494.42 1233.19,1492.64 1232.89,1490.84 1232.59,1489 1232.29,1487.13 1231.99,1485.24 1231.69,1483.31 1231.39,1481.37 1231.1,1479.4 1230.8,1477.42 1230.51,1475.41 1230.23,1473.39 1229.95,1471.36 1229.68,1469.31 1229.41,1467.25 1229.15,1465.18 1228.9,1463.1 1228.67,1461.02 1228.44,1458.93 1228.22,1456.84 1228.01,1454.75 1227.82,1452.67 1227.64,1450.58 "/>
     <polygon id="_387203080" class="fil1" points="1242.95,1511.26 2378.83,2647.14 2379.38,2648.16 2380.11,2649.41 2381.01,2650.89 2382.07,2652.55 2383.27,2654.38 2384.6,2656.35 2386.05,2658.43 2387.59,2660.6 2389.22,2662.82 2390.93,2665.08 2392.69,2667.35 2394.5,2669.6 2396.34,2671.8 2398.2,2673.93 2400.06,2675.96 2401.91,2677.87 1266.03,1541.98 1264.18,1540.08 1262.32,1538.05 1260.46,1535.92 1258.62,1533.72 1256.81,1531.47 1255.05,1529.2 1253.34,1526.94 1251.71,1524.71 1250.17,1522.55 1248.72,1520.47 1247.39,1518.5 1246.19,1516.67 1245.13,1515 1244.23,1513.53 1243.5,1512.27 "/>
     <polygon id="_387197032" class="fil1" points="1334.92,1567.43 2470.8,2703.31 2471.29,2703.9 2471.63,2704.48 2471.86,2705.03 2472.01,2705.55 2472.14,2706.06 2472.27,2706.54 2472.46,2706.99 1336.58,1571.11 1336.39,1570.66 1336.26,1570.18 1336.13,1569.67 1335.98,1569.14 1335.75,1568.59 1335.41,1568.02 "/>
     <polygon id="_387195808" class="fil1" points="1242.41,1510.46 2378.29,2646.34 2378.83,2647.14 1242.95,1511.26 "/>
     <polygon id="_387185608" class="fil1" points="1089.1,1257.73 2224.98,2393.61 2223.46,2393.39 2221.99,2393.16 2220.6,2392.94 2219.28,2392.72 2218.03,2392.51 2216.87,2392.31 2215.8,2392.11 2214.82,2391.93 2213.94,2391.77 2213.16,2391.61 2212.48,2391.48 2211.92,2391.37 2211.48,2391.28 2211.15,2391.21 2210.95,2391.17 2210.89,2391.15 1075.01,1255.27 1075.07,1255.28 1075.27,1255.33 1075.6,1255.39 1076.04,1255.49 1076.6,1255.6 1077.28,1255.73 1078.06,1255.88 1078.94,1256.05 1079.92,1256.23 1080.99,1256.42 1082.15,1256.63 1083.4,1256.84 1084.72,1257.06 1086.11,1257.28 1087.57,1257.51 "/>
     <polygon id="_387184552" class="fil1" points="628.602,709.247 1764.48,1845.13 1764.43,1845.13 628.547,709.247 "/>
     <polygon id="_387185248" class="fil1" points="609.339,666.562 1745.22,1802.44 1726.69,1802.44 590.806,666.562 "/>
     <polygon id="_387184696" class="fil1" points="1266.03,1541.98 2401.91,2677.87 2402.86,2678.77 1266.98,1542.89 "/>
     <polygon id="_387214408" class="fil1" points="977.6,1306.13 2113.48,2442.01 2112.46,2443.89 2111.43,2445.74 2110.38,2447.57 2109.33,2449.37 2108.27,2451.15 2107.2,2452.91 2106.13,2454.65 2105.05,2456.37 2103.96,2458.06 2102.87,2459.74 2101.77,2461.4 2100.68,2463.05 2099.58,2464.68 2098.47,2466.3 2097.37,2467.9 2096.27,2469.5 2095.17,2471.08 2094.07,2472.65 2092.97,2474.21 2091.88,2475.77 2090.79,2477.31 2089.7,2478.86 2088.62,2480.39 2087.55,2481.93 2086.49,2483.46 2085.43,2484.99 2084.38,2486.52 2083.34,2488.04 2082.32,2489.57 2081.3,2491.11 2080.3,2492.64 2079.31,2494.18 2078.88,2494.88 2078.44,2495.61 2077.99,2496.39 2077.54,2497.21 2077.09,2498.07 2076.63,2498.97 2076.16,2499.92 2075.69,2500.9 2075.21,2501.92 2074.74,2502.98 2074.26,2504.08 2073.77,2505.21 2073.28,2506.38 2072.8,2507.59 2072.3,2508.83 2071.81,2510.1 2071.32,2511.41 2070.83,2512.75 2070.34,2514.12 2069.84,2515.53 2069.35,2516.96 2068.86,2518.43 2068.38,2519.92 2067.89,2521.44 2067.41,2522.99 2066.93,2524.56 2066.45,2526.16 2065.98,2527.79 2065.51,2529.44 2065.05,2531.12 2064.59,2532.82 2064.14,2534.54 928.256,1398.66 928.709,1396.94 929.167,1395.24 929.631,1393.56 930.099,1391.91 930.571,1390.28 931.047,1388.68 931.528,1387.11 932.01,1385.56 932.495,1384.04 932.983,1382.54 933.473,1381.08 933.963,1379.65 934.456,1378.24 934.948,1376.87 935.441,1375.53 935.932,1374.22 936.424,1372.95 936.915,1371.71 937.403,1370.5 937.89,1369.33 938.375,1368.2 938.855,1367.1 939.334,1366.04 939.809,1365.02 940.28,1364.03 940.745,1363.09 941.207,1362.19 941.663,1361.33 942.113,1360.5 942.556,1359.73 942.994,1358.99 943.424,1358.3 944.415,1356.76 945.42,1355.23 946.436,1353.69 947.463,1352.16 948.502,1350.63 949.549,1349.1 950.606,1347.58 951.672,1346.05 952.743,1344.51 953.822,1342.97 954.907,1341.43 955.996,1339.88 957.089,1338.33 958.187,1336.77 959.286,1335.19 960.388,1333.61 961.49,1332.02 962.592,1330.42 963.694,1328.8 964.795,1327.17 965.893,1325.52 966.988,1323.86 968.079,1322.18 969.166,1320.48 970.248,1318.77 971.323,1317.03 972.392,1315.27 973.452,1313.49 974.504,1311.69 975.546,1309.86 976.579,1308 "/>
     <polygon id="_387200152" class="fil1" points="1336.58,1571.11 2472.46,2706.99 2473.06,2708.95 2472.79,2710.71 2471.69,2712.29 2469.83,2713.69 2467.25,2714.92 2464.01,2716 2460.16,2716.92 2455.76,2717.7 2450.85,2718.34 2445.49,2718.86 2439.73,2719.27 2433.63,2719.56 2427.24,2719.75 2420.61,2719.86 2413.79,2719.88 2406.84,2719.83 2399.82,2719.71 2392.76,2719.53 2385.73,2719.31 2378.78,2719.04 2371.97,2718.75 2365.34,2718.43 2358.94,2718.09 2352.84,2717.75 2347.08,2717.42 2341.72,2717.09 2336.81,2716.78 2332.41,2716.51 2328.56,2716.26 2325.31,2716.07 2322.74,2715.93 2320.87,2715.85 1184.99,1579.96 1186.85,1580.04 1189.43,1580.19 1192.67,1580.38 1196.53,1580.62 1200.93,1580.9 1205.84,1581.21 1211.2,1581.53 1216.96,1581.87 1223.06,1582.21 1229.45,1582.54 1236.08,1582.86 1242.9,1583.16 1249.85,1583.42 1256.88,1583.65 1263.93,1583.83 1270.96,1583.94 1277.91,1584 1284.73,1583.98 1291.36,1583.87 1297.75,1583.68 1303.85,1583.38 1309.61,1582.98 1314.97,1582.46 1319.88,1581.81 1324.28,1581.03 1328.13,1580.11 1331.37,1579.04 1333.95,1577.81 1335.81,1576.41 1336.9,1574.83 1337.18,1573.07 "/>
     <polygon id="_387190168" class="fil1" points="928.256,1398.66 2064.14,2534.54 2064.92,2535.34 2065.68,2536.34 2066.41,2537.51 2067.11,2538.83 2067.78,2540.31 2068.4,2541.9 2068.96,2543.6 2069.47,2545.38 2069.9,2547.24 2070.27,2549.14 2070.55,2551.08 2070.74,2553.04 2070.84,2554.99 2070.83,2556.93 2070.72,2558.82 2070.48,2560.66 934.602,1424.78 934.835,1422.94 934.951,1421.04 934.957,1419.11 934.86,1417.16 934.667,1415.2 934.386,1413.26 934.022,1411.35 933.585,1409.5 933.081,1407.71 932.516,1406.02 931.899,1404.42 931.234,1402.95 930.531,1401.62 929.795,1400.45 929.035,1399.46 "/>
     <polygon id="_387204832" class="fil1" points="934.602,1424.78 2070.48,2560.66 2070.31,2561.67 2070.13,2562.72 2069.93,2563.82 2069.71,2564.97 2069.47,2566.15 2069.21,2567.37 2068.94,2568.63 2068.66,2569.92 2068.35,2571.24 2068.04,2572.6 2067.7,2573.98 2067.35,2575.38 2066.99,2576.81 2066.61,2578.25 2066.21,2579.71 2065.8,2581.19 2065.38,2582.69 2064.94,2584.19 2064.49,2585.7 2064.03,2587.22 2063.55,2588.74 2063.06,2590.27 2062.56,2591.79 2062.04,2593.31 2061.52,2594.82 2060.97,2596.33 2060.42,2597.83 2059.86,2599.32 2059.28,2600.79 2058.7,2602.24 2058.1,2603.68 2057.49,2605.09 921.611,1469.21 922.22,1467.8 922.817,1466.36 923.403,1464.91 923.978,1463.43 924.542,1461.95 925.093,1460.45 925.634,1458.94 926.162,1457.43 926.677,1455.91 927.18,1454.38 927.672,1452.86 928.149,1451.34 928.612,1449.82 929.063,1448.31 929.5,1446.8 929.923,1445.31 930.331,1443.83 930.725,1442.37 931.105,1440.92 931.47,1439.5 931.82,1438.09 932.154,1436.71 932.472,1435.36 932.775,1434.04 933.062,1432.75 933.333,1431.49 933.587,1430.27 933.824,1429.08 934.045,1427.94 934.248,1426.84 934.433,1425.79 "/>
     <polygon id="_387199312" class="fil1" points="921.611,1469.21 2057.49,2605.09 2057.08,2606.07 2056.63,2607.16 2056.14,2608.36 2055.63,2609.66 2055.1,2611.06 2054.54,2612.54 2053.95,2614.1 2053.35,2615.74 2052.72,2617.44 2052.08,2619.21 2051.42,2621.02 2050.75,2622.89 2050.07,2624.79 2049.38,2626.72 2048.68,2628.67 2047.97,2630.65 2047.27,2632.63 2046.56,2634.62 2045.85,2636.6 2045.14,2638.58 2044.44,2640.53 2043.75,2642.46 2043.06,2644.36 2042.39,2646.22 2041.72,2648.04 2041.07,2649.8 2040.44,2651.51 2039.83,2653.14 2039.23,2654.71 2038.66,2656.19 2038.11,2657.58 2037.59,2658.88 901.711,1523 902.232,1521.7 902.78,1520.31 903.351,1518.82 903.946,1517.26 904.56,1515.62 905.193,1513.92 905.842,1512.16 906.505,1510.34 907.181,1508.48 907.867,1506.58 908.561,1504.65 909.263,1502.69 909.968,1500.72 910.677,1498.74 911.385,1496.75 912.093,1494.77 912.797,1492.79 913.495,1490.83 914.187,1488.9 914.868,1487 915.539,1485.14 916.197,1483.33 916.839,1481.56 917.464,1479.86 918.07,1478.22 918.655,1476.66 919.217,1475.17 919.753,1473.78 920.264,1472.48 920.744,1471.28 921.194,1470.19 "/>
     <polygon id="_387192424" class="fil1" points="901.711,1523 2037.59,2658.88 2037.58,2658.92 2037.56,2658.96 2037.54,2659.01 2037.53,2659.05 2037.51,2659.09 2037.49,2659.13 2037.48,2659.17 2037.46,2659.21 901.58,1523.33 901.596,1523.29 901.613,1523.25 901.628,1523.21 901.645,1523.16 901.661,1523.12 901.678,1523.08 901.694,1523.04 "/>
     <polygon id="_387211000" class="fil1" points="904.435,1525.32 2040.32,2661.2 2040.94,2661.81 2041.57,2662.5 2042.2,2663.28 2042.82,2664.15 2043.44,2665.12 2044.04,2666.2 2044.61,2667.38 2045.17,2668.68 2045.69,2670.09 2046.18,2671.63 2046.62,2673.3 910.74,1537.42 910.295,1535.75 909.809,1534.21 909.287,1532.79 908.734,1531.5 908.155,1530.32 907.556,1529.24 906.942,1528.27 906.317,1527.4 905.688,1526.62 905.058,1525.93 "/>
     <polygon id="_387205552" class="fil1" points="910.74,1537.42 2046.62,2673.3 2046.93,2674.67 2047.2,2676.12 2047.43,2677.63 2047.64,2679.2 2047.81,2680.83 2047.95,2682.49 2048.07,2684.2 2048.16,2685.93 2048.23,2687.69 2048.27,2689.45 2048.29,2691.23 2048.3,2693 2048.29,2694.76 2048.26,2696.5 2048.22,2698.21 2048.17,2699.89 2048.11,2701.53 2048.03,2703.12 2047.96,2704.66 2047.87,2706.12 2047.79,2707.52 2047.7,2708.84 2047.61,2710.06 2047.53,2711.19 2047.45,2712.22 2047.37,2713.14 2047.3,2713.93 2047.24,2714.6 2047.19,2715.13 2047.15,2715.52 2047.13,2715.77 2047.12,2715.85 911.238,1579.96 911.246,1579.88 911.27,1579.64 911.309,1579.25 911.358,1578.72 911.418,1578.05 911.488,1577.25 911.565,1576.34 911.646,1575.31 911.731,1574.18 911.819,1572.95 911.906,1571.64 911.992,1570.24 912.075,1568.77 912.153,1567.24 912.224,1565.65 912.287,1564.01 912.338,1562.33 912.38,1560.61 912.406,1558.87 912.418,1557.11 912.413,1555.34 912.389,1553.57 912.344,1551.8 912.277,1550.05 912.187,1548.32 912.072,1546.61 911.927,1544.94 911.755,1543.32 911.552,1541.75 911.316,1540.23 911.046,1538.79 "/>
     <polygon id="_387195712" class="fil1" points="911.238,1579.96 2047.12,2715.85 2045.26,2715.93 2042.68,2716.07 2039.43,2716.26 2035.58,2716.51 2031.18,2716.78 2026.27,2717.09 2020.91,2717.42 2015.15,2717.75 2009.05,2718.09 2002.66,2718.43 1996.02,2718.75 1989.21,2719.04 1982.26,2719.31 1975.23,2719.53 1968.18,2719.71 1961.15,2719.83 1954.2,2719.88 1947.38,2719.86 1940.75,2719.75 1934.36,2719.56 1928.26,2719.27 1922.5,2718.86 1917.14,2718.34 1912.23,2717.7 1907.83,2716.92 1903.98,2716 1900.74,2714.92 1898.16,2713.69 1896.3,2712.29 760.417,1576.41 762.281,1577.81 764.858,1579.04 768.097,1580.11 771.947,1581.03 776.352,1581.81 781.262,1582.46 786.621,1582.98 792.377,1583.38 798.478,1583.68 804.871,1583.87 811.502,1583.98 818.318,1584 825.266,1583.94 832.294,1583.83 839.349,1583.65 846.377,1583.42 853.327,1583.16 860.143,1582.86 866.774,1582.54 873.167,1582.21 879.269,1581.87 885.025,1581.53 890.387,1581.21 895.296,1580.9 899.702,1580.62 903.553,1580.38 906.794,1580.19 909.374,1580.04 "/>
     <polygon id="_387215056" class="fil1" points="617.786,660.61 1753.67,1796.49 1752.8,1797.8 1751.86,1798.97 1750.86,1799.99 1749.81,1800.84 1748.71,1801.53 1747.57,1802.03 1746.41,1802.34 1745.22,1802.44 609.339,666.562 610.526,666.456 611.692,666.147 612.828,665.645 613.927,664.961 614.979,664.105 615.98,663.087 616.917,661.919 "/>
     <polygon id="_387210712" class="fil1" points="621.551,645.658 1757.43,1781.54 1757.41,1782.64 1757.36,1783.72 1757.28,1784.78 1757.17,1785.83 1757.02,1786.85 1756.84,1787.86 1756.64,1788.84 1756.41,1789.8 1756.15,1790.74 1755.86,1791.65 1755.55,1792.53 1755.22,1793.39 1754.86,1794.21 1754.49,1795 1754.09,1795.76 1753.67,1796.49 617.786,660.61 618.205,659.882 618.604,659.121 618.982,658.328 619.339,657.504 619.673,656.649 619.982,655.766 620.267,654.857 620.526,653.921 620.758,652.961 620.963,651.977 621.139,650.972 621.284,649.946 621.4,648.899 621.482,647.836 621.533,646.754 "/>
     <polygon id="_387207520" class="fil1" points="699.334,709.553 1835.21,1845.43 1834.37,1846.58 1833.48,1847.68 1832.56,1848.71 1831.61,1849.68 1830.62,1850.58 1829.61,1851.42 1828.57,1852.19 1827.5,1852.88 1826.42,1853.51 1825.31,1854.06 1824.18,1854.53 1823.04,1854.92 1821.88,1855.22 1820.71,1855.44 1819.53,1855.58 1818.33,1855.62 682.453,719.742 683.644,719.697 684.826,719.561 685.997,719.339 687.155,719.033 688.3,718.643 689.427,718.173 690.534,717.625 691.622,717.002 692.686,716.305 693.727,715.536 694.74,714.699 695.724,713.794 696.677,712.825 697.599,711.793 698.484,710.702 "/>
     <polygon id="_387188416" class="fil1" points="614.98,519.636 1750.86,1655.52 1751.86,1656.54 1752.8,1657.7 1753.67,1659.01 617.786,523.131 616.917,521.822 615.98,520.654 "/>
     <polygon id="_387209728" class="fil1" points="617.786,523.131 1753.67,1659.01 1754.09,1659.74 1754.49,1660.5 1754.86,1661.29 1755.22,1662.12 1755.55,1662.97 1755.86,1663.86 1756.15,1664.77 1756.41,1665.7 1756.64,1666.66 1756.84,1667.65 1757.02,1668.65 1757.17,1669.68 1757.28,1670.72 1757.36,1671.79 1757.41,1672.87 1757.43,1673.96 621.551,538.082 621.533,536.986 621.482,535.904 621.4,534.841 621.284,533.795 621.139,532.769 620.963,531.763 620.758,530.78 620.526,529.819 620.267,528.884 619.981,527.974 619.672,527.092 619.339,526.237 618.982,525.413 618.604,524.62 618.205,523.858 "/>
     <polygon id="_387190192" class="fil1" points="870.196,877.546 2006.08,2013.43 2000.68,2009.6 1995.19,2005.15 1989.63,2000.13 1984,1994.57 848.121,858.686 853.744,864.249 859.308,869.272 864.798,873.716 "/>
     <polygon id="_387199528" class="fil1" points="881.012,905.514 2016.89,2041.4 2014.5,2039.89 2012.25,2038.48 2010.14,2037.16 2008.18,2035.93 2006.37,2034.8 2004.7,2033.76 2003.19,2032.81 2001.83,2031.96 2000.62,2031.21 1999.57,2030.56 1998.67,2030 1997.93,2029.54 1997.36,2029.19 1996.95,2028.93 1996.7,2028.78 1996.61,2028.73 860.733,892.844 860.816,892.896 861.066,893.05 861.478,893.305 862.053,893.662 862.79,894.119 863.685,894.674 864.738,895.328 865.945,896.081 867.308,896.929 868.822,897.874 870.486,898.914 872.3,900.048 874.262,901.276 876.368,902.597 878.619,904.009 "/>
     <polygon id="_387193600" class="fil1" points="682.453,719.742 1818.33,1855.62 1781.29,1855.62 645.406,719.742 "/>
     <polygon id="_387188608" class="fil1" points="1167.56,1227.95 2303.44,2363.83 2303.44,2363.84 2303.42,2363.87 2303.39,2363.92 2303.36,2363.99 2303.31,2364.08 2303.25,2364.19 2303.18,2364.31 2303.1,2364.46 1167.22,1228.57 1167.3,1228.43 1167.37,1228.3 1167.43,1228.2 1167.47,1228.11 1167.51,1228.04 1167.54,1227.99 1167.55,1227.96 "/>
     <polygon id="_387203296" class="fil1" points="582.398,660.43 1718.28,1796.31 1718.25,1796.31 582.37,660.43 "/>
     <polygon id="_387198328" class="fil1" points="590.806,666.562 1726.69,1802.44 1725.47,1802.34 1724.3,1802.02 1723.16,1801.5 1722.07,1800.8 1721.03,1799.92 585.146,664.033 586.185,664.915 587.278,665.619 588.416,666.135 589.594,666.453 "/>
     <polygon id="_387198712" class="fil1" points="645.406,719.742 1781.29,1855.62 1780.07,1855.58 1778.87,1855.44 1777.68,1855.21 1776.51,1854.89 1775.36,1854.49 1774.24,1854.01 1773.13,1853.45 1772.05,1852.8 1771,1852.09 1769.97,1851.3 1768.98,1850.43 1768.01,1849.5 632.131,713.618 633.097,714.55 634.093,715.413 635.119,716.204 636.173,716.923 637.251,717.564 638.356,718.129 639.482,718.612 640.63,719.012 641.797,719.329 642.984,719.556 644.187,719.695 "/>
     <polygon id="_387184936" class="fil1" points="944.131,941.63 2080.01,2077.51 2077.9,2076.71 2075.81,2075.88 2073.74,2075.01 2071.68,2074.12 2069.63,2073.18 2067.6,2072.22 2065.58,2071.24 2063.58,2070.22 2061.58,2069.18 2059.6,2068.12 2057.62,2067.03 2055.66,2065.92 2053.7,2064.79 2051.75,2063.64 2049.81,2062.48 2047.87,2061.3 2045.94,2060.1 2044.01,2058.89 2042.08,2057.68 2040.15,2056.45 2038.23,2055.21 2036.3,2053.96 2034.38,2052.71 2032.45,2051.45 2030.53,2050.19 2028.6,2048.93 2026.66,2047.67 2024.72,2046.41 2022.77,2045.15 2020.82,2043.89 2018.86,2042.64 2016.89,2041.4 881.012,905.514 882.98,906.758 884.94,908.009 886.893,909.265 888.839,910.524 890.779,911.786 892.714,913.048 894.646,914.31 896.573,915.57 898.5,916.827 900.424,918.079 902.348,919.325 904.272,920.564 906.197,921.793 908.124,923.012 910.054,924.22 911.988,925.414 913.926,926.596 915.87,927.76 917.82,928.907 919.777,930.036 921.741,931.145 923.716,932.233 925.699,933.297 927.694,934.338 929.7,935.353 931.717,936.342 933.748,937.302 935.794,938.233 937.854,939.132 939.929,939.999 942.022,940.831 "/>
     <polygon id="_387207376" class="fil1" points="1167.22,1228.57 2303.1,2364.46 2304.28,2367.41 2305.47,2370.41 2306.67,2373.46 2307.88,2376.55 2309.1,2379.69 2310.33,2382.87 2311.56,2386.08 2312.79,2389.33 2314.03,2392.61 2315.27,2395.92 2316.5,2399.26 2317.74,2402.62 2318.97,2406 2320.2,2409.4 2321.42,2412.82 2322.63,2416.25 2323.83,2419.69 2325.03,2423.13 2326.21,2426.59 2327.38,2430.04 2328.54,2433.5 2329.68,2436.95 2330.8,2440.39 2331.9,2443.83 2332.99,2447.26 2334.05,2450.67 2335.09,2454.07 2336.11,2457.45 2337.1,2460.81 2338.07,2464.14 2339,2467.45 2339.91,2470.72 2340.54,2473.08 2341.13,2475.42 2341.69,2477.75 2342.22,2480.05 2342.71,2482.34 2343.17,2484.6 2343.6,2486.84 2344,2489.06 2344.37,2491.25 2344.71,2493.41 2345.03,2495.55 2345.32,2497.66 2345.58,2499.74 2345.83,2501.78 2346.05,2503.8 2346.25,2505.78 2346.43,2507.73 2346.59,2509.64 2346.73,2511.51 2346.86,2513.35 2346.97,2515.14 2347.06,2516.9 2347.14,2518.61 2347.21,2520.28 2347.27,2521.91 2347.31,2523.49 2347.35,2525.02 2347.37,2526.51 2347.39,2527.95 2347.41,2529.34 2347.42,2530.67 2347.42,2531.96 1211.54,1396.07 1211.53,1394.79 1211.53,1393.45 1211.51,1392.07 1211.49,1390.63 1211.47,1389.14 1211.43,1387.61 1211.38,1386.03 1211.33,1384.4 1211.26,1382.73 1211.18,1381.02 1211.09,1379.26 1210.98,1377.46 1210.85,1375.63 1210.71,1373.76 1210.55,1371.84 1210.37,1369.9 1210.17,1367.92 1209.95,1365.9 1209.7,1363.85 1209.44,1361.78 1209.15,1359.67 1208.83,1357.53 1208.48,1355.37 1208.11,1353.17 1207.71,1350.96 1207.29,1348.72 1206.83,1346.46 1206.34,1344.17 1205.81,1341.87 1205.25,1339.54 1204.66,1337.2 1204.03,1334.84 1203.12,1331.56 1202.19,1328.26 1201.22,1324.93 1200.23,1321.57 1199.21,1318.19 1198.17,1314.79 1197.11,1311.38 1196.02,1307.95 1194.92,1304.51 1193.8,1301.07 1192.66,1297.61 1191.5,1294.16 1190.33,1290.7 1189.15,1287.25 1187.95,1283.8 1186.75,1280.36 1185.53,1276.94 1184.31,1273.52 1183.09,1270.12 1181.86,1266.74 1180.62,1263.38 1179.38,1260.04 1178.15,1256.73 1176.91,1253.45 1175.68,1250.2 1174.45,1246.99 1173.22,1243.81 1172,1240.67 1170.79,1237.58 1169.59,1234.53 1168.4,1231.52 "/>
     <polygon id="_387185200" class="fil1" points="1220.82,1399.94 2356.7,2535.82 2358.42,2537.52 2360.22,2539.7 1224.34,1403.81 1222.54,1401.64 "/>
     <polygon id="_387213304" class="fil1" points="1224.34,1403.81 2360.22,2539.7 2360.68,2540.35 2361.09,2541.02 2361.45,2541.72 2361.77,2542.43 2362.04,2543.18 2362.27,2543.95 2362.46,2544.76 2362.62,2545.6 2362.74,2546.48 2362.83,2547.4 2362.9,2548.36 2362.95,2549.38 2362.97,2550.44 2362.98,2551.56 2362.97,2552.74 2362.95,2553.97 2362.92,2555.27 2362.88,2556.64 2362.84,2558.07 2362.8,2559.57 2362.77,2561.16 2362.73,2562.81 2362.71,2564.56 2362.7,2566.38 2362.7,2568.29 2362.72,2570.3 2362.76,2572.39 2362.82,2574.59 2362.91,2576.88 2363.03,2579.27 2363.18,2581.77 2363.36,2584.38 1227.48,1448.5 1227.3,1445.89 1227.15,1443.39 1227.03,1441 1226.94,1438.7 1226.88,1436.51 1226.84,1434.41 1226.82,1432.41 1226.82,1430.5 1226.83,1428.67 1226.85,1426.93 1226.88,1425.27 1226.92,1423.69 1226.96,1422.19 1227,1420.75 1227.04,1419.39 1227.07,1418.09 1227.09,1416.85 1227.1,1415.68 1227.09,1414.56 1227.07,1413.49 1227.02,1412.48 1226.95,1411.52 1226.86,1410.59 1226.74,1409.71 1226.58,1408.87 1226.39,1408.07 1226.16,1407.3 1225.89,1406.55 1225.57,1405.84 1225.21,1405.14 1224.8,1404.47 "/>
     <polygon id="_387200680" class="fil1" points="706.862,606.874 1842.74,1742.76 1842.74,1819.84 706.862,683.956 "/>
     <polygon id="_387198904" class="fil1" points="706.862,499.786 1842.74,1635.67 1842.74,1717.63 706.862,581.749 "/>
     <polygon id="_387184648" class="fil1" points="1134.57,1110.52 2270.46,2246.41 2271.29,2248.38 2272.2,2250.78 2273.2,2253.6 2274.27,2256.78 2275.4,2260.31 2276.6,2264.14 2277.84,2268.24 2279.13,2272.59 2280.45,2277.14 2281.8,2281.87 2283.17,2286.74 2284.56,2291.72 2285.95,2296.78 2287.34,2301.88 2288.72,2306.99 2290.08,2312.08 2291.41,2317.12 2292.72,2322.07 2293.99,2326.9 2295.2,2331.57 2296.37,2336.06 2297.47,2340.33 2298.5,2344.36 2299.46,2348.09 2300.33,2351.51 2301.11,2354.58 2301.79,2357.27 2302.37,2359.54 2302.83,2361.37 2303.16,2362.71 2303.37,2363.54 2303.44,2363.83 1167.56,1227.95 1167.49,1227.66 1167.28,1226.83 1166.94,1225.49 1166.49,1223.66 1165.91,1221.39 1165.23,1218.7 1164.45,1215.63 1163.58,1212.21 1162.62,1208.47 1161.59,1204.45 1160.49,1200.18 1159.32,1195.69 1158.1,1191.01 1156.84,1186.18 1155.53,1181.23 1154.2,1176.2 1152.83,1171.11 1151.46,1166 1150.07,1160.89 1148.68,1155.84 1147.29,1150.86 1145.92,1145.99 1144.57,1141.26 1143.25,1136.7 1141.96,1132.36 1140.72,1128.25 1139.52,1124.42 1138.39,1120.9 1137.32,1117.71 1136.32,1114.9 1135.4,1112.49 "/>
     <polygon id="_387211480" class="fil1" points="699.334,474.189 1835.21,1610.07 1836.05,1611.32 1836.85,1612.62 1837.61,1613.98 1838.32,1615.39 1838.99,1616.85 1839.61,1618.36 1840.18,1619.92 1840.69,1621.52 1841.16,1623.17 1841.57,1624.85 1841.92,1626.57 1842.21,1628.33 1842.44,1630.12 1842.61,1631.94 1842.71,1633.79 1842.74,1635.67 706.862,499.786 706.828,497.908 706.726,496.059 706.56,494.236 706.329,492.446 706.038,490.689 705.686,488.967 705.277,487.283 704.813,485.639 704.295,484.037 703.725,482.481 703.106,480.97 702.439,479.508 701.727,478.096 700.971,476.738 700.172,475.435 "/>
     <polygon id="_387214000" class="fil1" points="769.31,562.31 1905.19,1698.19 1906.65,1699.84 1907.97,1701.74 1909.16,1703.81 1910.2,1705.95 1911.11,1708.1 1911.87,1710.17 1912.49,1712.07 1912.96,1713.73 1913.29,1715.06 1913.47,1715.98 777.589,580.095 777.409,579.176 777.082,577.848 776.608,576.189 775.99,574.287 775.228,572.219 774.323,570.07 773.278,567.923 772.093,565.858 770.77,563.96 "/>
     <polygon id="_387184000" class="fil1" points="745.111,566.556 1880.99,1702.44 1882.1,1703.66 1883.09,1704.98 1883.99,1706.34 1884.79,1707.69 1885.52,1708.97 1886.17,1710.13 1886.76,1711.12 1887.3,1711.87 751.419,575.99 750.882,575.235 750.291,574.25 749.638,573.088 748.913,571.804 748.107,570.455 747.211,569.093 746.215,567.776 "/>
     <polygon id="_387203872" class="fil1" points="1124.2,934.022 2260.08,2069.9 2260.79,2076.16 2261.52,2082.68 2262.27,2089.42 2263.03,2096.36 2263.8,2103.47 2264.57,2110.71 2265.34,2118.06 2266.1,2125.49 2266.85,2132.95 2267.58,2140.43 2268.29,2147.89 2268.98,2155.31 2269.64,2162.64 2270.26,2169.87 2270.84,2176.96 2271.39,2183.87 2271.88,2190.59 2272.32,2197.07 2272.7,2203.3 2273.03,2209.23 2273.28,2214.83 2273.47,2220.08 2273.58,2224.95 2273.61,2229.4 2273.56,2233.41 2273.42,2236.94 2273.19,2239.96 2272.85,2242.45 2272.42,2244.37 2271.88,2245.69 2271.22,2246.38 2270.46,2246.41 1134.57,1110.52 1135.34,1110.49 1136,1109.8 1136.54,1108.48 1136.97,1106.57 1137.3,1104.08 1137.54,1101.06 1137.68,1097.53 1137.73,1093.52 1137.7,1089.07 1137.59,1084.2 1137.4,1078.95 1137.15,1073.34 1136.82,1067.41 1136.44,1061.19 1136,1054.71 1135.5,1047.99 1134.96,1041.08 1134.38,1033.99 1133.75,1026.76 1133.1,1019.43 1132.41,1012.01 1131.7,1004.55 1130.97,997.07 1130.22,989.603 1129.46,982.181 1128.69,974.832 1127.92,967.589 1127.15,960.483 1126.39,953.541 1125.64,946.797 1124.91,940.281 "/>
     <polygon id="_387215944" class="fil1" points="794.215,571.688 1930.1,1707.57 1930.78,1708.38 1931.34,1709.21 1931.77,1710.03 1932.07,1710.83 1932.22,1711.58 1932.22,1712.27 796.344,576.384 796.338,575.699 796.184,574.946 795.889,574.146 795.458,573.323 794.898,572.496 "/>
     <polygon id="_387213016" class="fil1" points="796.344,576.384 1932.22,1712.27 1932.29,1712.93 1932.35,1713.59 1932.39,1714.25 1932.43,1714.92 1932.47,1715.6 1932.5,1716.27 1932.51,1716.95 1932.53,1717.63 796.645,581.749 796.633,581.067 796.614,580.388 796.587,579.713 796.554,579.039 796.512,578.371 796.464,577.705 796.407,577.043 "/>
     <polygon id="_387186328" class="fil1" points="1170.27,905.514 2306.15,2041.4 2304.69,2042.32 2303.24,2043.24 2301.79,2044.17 2300.34,2045.1 2298.9,2046.03 2297.46,2046.97 2296.03,2047.9 2294.6,2048.83 2293.17,2049.77 2291.74,2050.7 2290.31,2051.64 2288.88,2052.56 2287.46,2053.49 2286.03,2054.42 2284.61,2055.34 2283.18,2056.26 2281.76,2057.17 2280.33,2058.08 2278.91,2058.98 2277.48,2059.87 2276.05,2060.76 2274.61,2061.64 2273.18,2062.51 2271.74,2063.38 2270.3,2064.23 2268.85,2065.08 2267.4,2065.91 2265.95,2066.73 2264.49,2067.54 2263.02,2068.34 2261.55,2069.13 2260.08,2069.9 1124.2,934.022 1125.67,933.249 1127.14,932.462 1128.61,931.663 1130.07,930.85 1131.52,930.027 1132.97,929.193 1134.42,928.348 1135.86,927.494 1137.3,926.631 1138.73,925.758 1140.17,924.878 1141.6,923.99 1143.02,923.096 1144.45,922.194 1145.88,921.287 1147.3,920.375 1148.73,919.457 1150.15,918.536 1151.58,917.611 1153,916.683 1154.43,915.753 1155.85,914.82 1157.28,913.886 1158.71,912.951 1160.15,912.017 1161.58,911.083 1163.02,910.149 1164.46,909.217 1165.91,908.286 1167.36,907.359 1168.81,906.434 "/>
    </g>
    <path id="_478234528" class="fil1" d="M796.645 581.749l457.993 0c0.022441,-1.82244 0.120473,-3.61299 0.301181,-5.36457 -0.372048,-3.43701 5.8063,-10.6831 14.4272,-6.99804 6.64016,2.83583 2.40827,3.30709 4.32638,10.7091 0.563386,-3.6567 7.47993,-28.3559 19.839,-17.8559 5.76615,4.90158 5.86536,6.63544 5.37756,14.3457 2.37402,0.328347 5.82638,-16.2378 16.6937,-12.2032 6.07678,2.25709 7.50473,9.30473 7.22245,17.3669l10.6606 0 0 -81.9627c0,-10.0807 2.95512,-19.1114 7.52835,-25.5969 4.42678,-6.27993 10.5106,-10.1906 16.8803,-10.1906l37.0477 0c6.57402,0 12.5421,4.02048 16.8591,10.4965l-0.0283465 0.0413386c4.33465,6.52205 7.0252,15.4618 7.0252,25.2496l0 38.0079c0.0472441,-5.77205 1.51536,-10.9358 3.76536,-14.6634 2.21457,-3.66733 5.25827,-5.95158 8.44489,-5.95158l18.5351 0c3.28937,0 6.2752,2.34803 8.43426,6.13111l-0.0141732 0.0236221c2.16851,3.80906 3.51496,9.0319 3.51496,14.7484l0 43.6666 21.3402 0 0 25.1256 -21.3402 0 0 38.7839c0,5.76142 -1.34173,10.9902 -3.50079,14.7721l-0.0271654 0c-2.16142,3.78307 -5.13662,6.13111 -8.40709,6.13111l-18.5351 0c-3.18662,0 -6.23032,-2.28425 -8.44489,-5.95158 -2.25,-3.72756 -3.71811,-8.89135 -3.76536,-14.6634l0 38.0091c0,9.86339 -2.6811,18.8162 -6.99686,25.291l-0.0555119 0c-4.31811,6.47481 -10.2673,10.4953 -16.8036,10.4953l-37.0477 0c-6.36851,0 -12.4536,-3.90945 -16.8803,-10.1894 -4.57323,-6.48662 -7.52835,-15.5173 -7.52835,-25.5969l0 -77.0812 -14.1532 0c-1.86024,9.72166 -4.25197,19.3961 -6.163,28.1811 -0.177165,0.810237 -0.477166,1.53543 -0.887009,2.18386 1.67126,53.9008 -74.1863,202.882 -131.197,240.307 4.23544,7.30512 7.78347,13.2248 9.46418,15.2976 0,0 -7.14095,4.40552 -20.2807,12.6697 -15.5811,9.79843 -30.3036,20.3268 -46.0713,28.5083 7.47875,65.2713 19.2118,179.814 10.3772,176.501 8.34213,18.5705 32.9859,117.423 32.9859,117.423 0,0 -0.114567,0.220866 -0.344882,0.627166 12.5185,31.2036 27.2977,71.4851 36.8138,106.267 6.90709,25.2496 7.49056,47.8252 7.50827,61.2331 3.92481,0.455906 7.9004,1.27205 12.7984,7.73977 5.23819,6.91182 0.993308,16.2614 3.14173,44.6882 1.67362,22.1516 5.96575,45.4559 8.40001,60.1252 2.75433,-0.165354 5.84764,0.255118 7.07008,2.63504 2.40355,4.69961 13.2697,20.9339 23.0823,30.7229 9.81615,9.78662 29.661,15.4547 50.863,19.3642 21.202,3.91181 18.4784,7.4126 19.6843,9.76182 11.2583,21.9295 -135.705,9.34253 -151.588,8.85355 0,0 -2.96221,-28.3595 0.497244,-42.5469 2.25473,-9.25276 6.4878,-12.7665 9.16064,-14.0917 -0.0425197,-0.10748 -0.0862205,-0.214961 -0.131102,-0.324803 -5.41536,-13.337 -15.6354,-44.0292 -19.9004,-53.7886 -6.54213,-14.9717 -11.2902,-33.9508 -12.991,-44.4319 -1.56378,-9.63426 2.15906,-22.4091 6.34607,-26.1189 -4.79764,-18.4925 -10.6169,-33.228 -15.1677,-40.3595 -10.5024,-16.4599 -23.3421,-31.9831 -34.1764,-52.1764 -4.75748,-8.863 -20.5937,-29.8984 -29.5264,-48.3945 -8.30316,-1.20118 -14.0953,-2.46024 -14.0953,-2.46024l-29.4721 -72.0024 -1.36063 -15.7429 -0.297638 13.6441 -24.7701 73.7516c0,0 -4.85315,1.3878 -12.0543,2.96457 -8.94568,18.4583 -24.7075,39.4016 -29.4508,48.2398 -10.8343,20.1933 -23.674,35.7166 -34.1764,52.1764 -4.55079,7.1315 -10.3701,21.8669 -15.1677,40.3595 4.18701,3.70985 7.90985,16.4847 6.34607,26.1189 -1.70079,10.4811 -6.44882,29.4603 -12.991,44.4319 -4.26496,9.75946 -14.4851,40.4516 -19.9004,53.7886 -0.0448819,0.109843 -0.0874016,0.217323 -0.131102,0.324803 2.67284,1.3252 6.90591,4.83898 9.16064,14.0917 3.45945,14.1874 0.497244,42.5469 0.497244,42.5469 -15.8823,0.488977 -162.846,13.076 -151.588,-8.85355 1.20591,-2.34921 -1.51772,-5.85 19.6843,-9.76182 21.202,-3.90945 41.0469,-9.57757 50.863,-19.3642 9.81261,-9.78898 20.6788,-26.0232 23.0835,-30.7229 1.22126,-2.37992 4.31457,-2.8004 7.0689,-2.63504 2.43425,-14.6693 6.72638,-37.9737 8.40001,-60.1252 2.14843,-28.4268 -2.09646,-37.7764 3.14173,-44.6882 4.89804,-6.46772 8.87363,-7.28386 12.7984,-7.73977 0.0177165,-13.4079 0.6,-35.9835 7.50827,-61.2331 8.82284,-32.2524 22.1729,-69.2315 34.0477,-99.3178 -0.837402,-1.19882 -1.26496,-1.90512 -1.26496,-1.90512 0,0 16.0571,-88.3229 23.9209,-114.925 -1.38071,-0.78189 -2.73662,-1.60512 -4.06654,-2.46969 -0.84567,-0.509056 -3.80788,-98.2572 -0.703938,-174.593 -22.6004,-8.31851 -42.0768,-22.8827 -63.1193,-36.1158 -13.1386,-8.26418 -20.2795,-12.6697 -20.2795,-12.6697 1.68071,-2.07284 5.22874,-7.99371 9.463,-15.2988 -57.0119,-37.4256 -132.871,-186.409 -131.197,-240.308 -0.409843,-0.647245 -0.708662,-1.37126 -0.885827,-2.1815 -1.91103,-8.78505 -4.30276,-18.4595 -6.163,-28.1811l-25.0878 0 0 77.0812c0,10.0795 -2.95394,19.1103 -7.52835,25.5969 -4.42678,6.27993 -10.5106,10.1894 -16.8803,10.1894l-37.0477 0c-6.53623,0 -12.4843,-4.02048 -16.8036,-10.4953l-0.0555119 0c-4.31575,-6.47481 -6.99567,-15.4276 -6.99567,-25.291l0 -38.2973c0,5.8878 -1.47756,11.1626 -3.76536,14.9516 -2.21575,3.66733 -5.25945,5.95158 -8.44607,5.95158l-18.5339 0c-3.27047,0 -6.24686,-2.34803 -8.40709,-6.13111l-0.0283465 0c-2.15906,-3.78189 -3.49961,-9.01064 -3.49961,-14.7721l0 -38.7839 -13.6902 0 0 -25.1256 13.6902 0 0 -43.6666c0,-5.71654 1.34528,-10.9394 3.51378,-14.7484l-0.0141732 -0.0236221c2.16024,-3.78307 5.14607,-6.13111 8.43544,-6.13111l18.5339 0c3.18662,0 6.2315,2.28425 8.44607,5.95158 2.28662,3.78898 3.76536,9.06379 3.76536,14.9516l0 -38.2961c0,-9.7878 2.68937,-18.7276 7.02402,-25.2496l-0.0271654 -0.0413386c4.31575,-6.47599 10.2839,-10.4965 16.8579,-10.4965l37.0477 0c6.36969,0 12.4547,3.91063 16.8803,10.1906 4.57323,6.48544 7.52835,15.5162 7.52835,25.5969l0 81.9627 21.5953 0c-0.282284,-8.06221 1.14567,-15.1099 7.22127,-17.3669 10.8685,-4.03465 14.3197,12.5315 16.6937,12.2032 -0.487796,-7.71024 -0.387402,-9.4441 5.37756,-14.3457 12.3602,-10.5 19.2756,14.1992 19.839,17.8559 1.91929,-7.40197 -2.3126,-7.87323 4.32756,-10.7091 8.62087,-3.68504 14.798,3.56103 14.4272,6.99804 0.180709,1.75158 0.27874,3.54213 0.301181,5.36457z"/>
   </g>
  </g>
  <path class="fil2" d="M1024 0c565.539,0 1024,458.461 1024,1024 0,565.539 -458.461,1024 -1024,1024 -565.539,0 -1024,-458.461 -1024,-1024 0,-565.539 458.461,-1024 1024,-1024z"/>
  <path class="fil3" d="M1083.35 1232.82c-5.00315,17.9516 28.0264,59.7863 35.2819,73.3052 10.8343,20.1933 23.674,35.7166 34.1764,52.1764 5.67166,8.88898 13.3158,29.5914 18.4937,54.6591 2.5004,3.51142 29.3103,-2.70591 40.2851,-6.7193 -0.386221,-8.69646 1.67717,-37.6618 -7.55316,-71.4012 -18.7902,-68.6847 -58.1091,-158.81 -59.9977,-158.14l-1.15394 0.409843c-23.361,8.29134 -58.5461,52.1859 -59.5323,55.7103z"/>
  <path class="fil4" d="M1336.58 1571.11c-1.20591,-2.34921 1.51772,-5.85 -19.6843,-9.76182 -21.202,-3.90945 -41.0469,-9.57757 -50.863,-19.3642 -9.81261,-9.78898 -20.6788,-26.0232 -23.0823,-30.7229 -2.41299,-4.69843 -12.1158,-1.75866 -12.1158,-1.75866 0,0 -2.91496,5.48977 -4.72087,14.6351 -1.80236,9.14883 -6.8315,13.6618 -16.2791,11.2016 -9.45237,-2.46496 -12.776,-12.8055 -12.776,-12.8055 0,0 -8.11064,0.692127 -11.5689,14.8831 -3.45945,14.1874 -0.497244,42.5469 -0.497244,42.5469 15.8823,0.488977 162.846,13.076 151.588,-8.85355z"/>
  <path class="fil5" d="M1169.08 1397.9c-4.60158,2.20512 -9.15473,16.3984 -7.45394,26.8772 1.70079,10.4811 6.44882,29.4603 12.991,44.4319 4.26496,9.75946 14.4851,40.4516 19.9004,53.7886 2.8878,7.12678 2.52047,8.66339 8.74489,12.5728 6.21497,3.90827 15.665,2.51693 25.141,0.0732284 9.47717,-2.44134 10.1587,-6.62953 8.99528,-16.8591 -1.31457,-11.5406 -7.77284,-41.863 -9.92009,-70.2863 -2.14843,-28.4268 2.09646,-37.7764 -3.14173,-44.6882 -5.23347,-6.91064 -9.41457,-7.3689 -13.6051,-7.83071 -4.19528,-0.457087 -37.05,-0.281103 -41.6516,1.92047z"/>
  <path class="fil3" d="M1012.88 1232.82c5.00315,17.9516 -28.0264,59.7863 -35.2819,73.3052 -10.8343,20.1933 -23.674,35.7166 -34.1764,52.1764 -5.67166,8.88898 -13.3158,29.5914 -18.4937,54.6591 -2.5004,3.51142 -29.3103,-2.70591 -40.2851,-6.7193 0.386221,-8.69646 -1.67717,-37.6618 7.55316,-71.4012 18.7902,-68.6847 58.1091,-158.81 59.9977,-158.14l1.15394 0.409843c23.361,8.29134 58.5461,52.1859 59.5323,55.7103z"/>
  <path class="fil4" d="M759.65 1571.11c1.20591,-2.34921 -1.51772,-5.85 19.6843,-9.76182 21.202,-3.90945 41.0469,-9.57757 50.863,-19.3642 9.81261,-9.78898 20.6788,-26.0232 23.0835,-30.7229 2.41181,-4.69843 12.1146,-1.75866 12.1146,-1.75866 0,0 2.91496,5.48977 4.72087,14.6351 1.80236,9.14883 6.8315,13.6618 16.2791,11.2016 9.45237,-2.46496 12.776,-12.8055 12.776,-12.8055 0,0 8.11064,0.692127 11.5689,14.8831 3.45945,14.1874 0.497244,42.5469 0.497244,42.5469 -15.8823,0.488977 -162.846,13.076 -151.588,-8.85355z"/>
  <path class="fil5" d="M927.148 1397.9c4.60158,2.20512 9.15473,16.3984 7.45394,26.8772 -1.70079,10.4811 -6.44882,29.4603 -12.991,44.4319 -4.26496,9.75946 -14.4851,40.4516 -19.9004,53.7886 -2.8878,7.12678 -2.52047,8.66339 -8.74489,12.5728 -6.21497,3.90827 -15.665,2.51693 -25.141,0.0732284 -9.47717,-2.44134 -10.1587,-6.62953 -8.99528,-16.8591 1.31457,-11.5406 7.77284,-41.863 9.92009,-70.2863 2.14843,-28.4268 -2.09646,-37.7764 3.14173,-44.6882 5.23347,-6.91064 9.41457,-7.3689 13.6051,-7.83071 4.19528,-0.457087 37.05,-0.281103 41.6516,1.92047z"/>
  <path class="fil3" d="M907.55 842.657c-57.104,-12.4772 -120.22,-210.301 -122.257,-210.581 -7.05119,-0.967324 -37.9146,-1.97717 -45.3225,-2.7378 -12.3791,51.3059 93.1997,254.112 152.739,256.798 2.51103,0.751182 14.1295,-33.5362 14.8406,-43.4788z"/>
  <path class="fil3" d="M1143.73 842.657c57.104,-12.4772 120.221,-210.301 122.258,-210.581 7.05119,-0.967324 37.9134,-1.97717 45.3213,-2.7378 12.3791,51.3059 -93.1997,254.112 -152.738,256.798 -2.51221,0.751182 -14.1307,-33.5362 -14.8417,-43.4788z"/>
  <path class="fil3" d="M796.344 576.384c0.370866,-3.43701 -5.8063,-10.6831 -14.4272,-6.99804 -6.64016,2.83583 -2.40827,3.30709 -4.32756,10.7091 -0.563386,-3.6567 -7.47875,-28.3559 -19.839,-17.8559 -5.76497,4.90158 -5.86536,6.63544 -5.37756,14.3457 -2.37402,0.328347 -5.8252,-16.2378 -16.6937,-12.2032 -10.624,3.94607 -7.03701,22.539 -4.94528,35.5937 1.91693,11.9906 5.01615,24.2162 7.37953,35.0799 2.6126,11.9823 32.2063,5.21221 42.7193,8.30906 7.58623,-18.5067 17.7154,-45.6697 15.5114,-66.9804z"/>
  <path class="fil3" d="M1254.94 576.384c-0.372048,-3.43701 5.8063,-10.6831 14.4272,-6.99804 6.64016,2.83583 2.40827,3.30709 4.32638,10.7091 0.563386,-3.6567 7.47993,-28.3559 19.839,-17.8559 5.76615,4.90158 5.86536,6.63544 5.37756,14.3457 2.37402,0.328347 5.82638,-16.2378 16.6937,-12.2032 10.6252,3.94607 7.03701,22.539 4.94646,35.5937 -1.91693,11.9906 -5.01615,24.2162 -7.37953,35.0799 -2.61378,11.9823 -32.2075,5.21221 -42.7205,8.30906 -7.58505,-18.5067 -17.7142,-45.6697 -15.5102,-66.9804z"/>
  <path class="fil6" d="M1043.88 1181.17l-24.7701 73.7516c0,0 -45.8611,13.1102 -64.7764,4.53544 -18.9142,-8.57835 -29.3481,-25.839 -29.3481,-25.839 0,0 18.2221,-100.234 25.35,-119.304 7.12323,-19.0689 31.7894,-69.9249 31.7894,-69.9249 0,0 10.3984,19.3004 38.6587,15.6437 9.05788,-1.17165 17.8512,-1.99252 25.7918,-2.57599l-2.69528 123.713z"/>
  <path class="fil6" d="M1045.53 1183.27l29.4721 72.0024c0,0 46.6099,10.128 64.9335,0.350788 18.3213,-9.77835 27.6213,-27.6756 27.6213,-27.6756 0,0 -24.6437,-98.8524 -32.9859,-117.423 -8.33741,-18.5705 -36.2292,-67.7315 -36.2292,-67.7315 0,0 -9.13229,19.9311 -37.5697,18.1028 -9.11457,-0.584646 -17.9421,-0.838583 -25.904,-0.908268l10.6618 123.282z"/>
  <path class="fil7" d="M965.075 894.838c-1.06772,-10.4386 7.99134,-0.603544 -3.41221,-17.0894 -11.4059,-16.4847 -65.5075,-42.6733 -65.5075,-42.6733 -2.67992,-0.277559 -29.739,50.7579 -35.4225,57.7689 0,0 7.14095,4.40552 20.2795,12.6697 29.2488,18.3933 55.4729,39.3591 91.2638,42.5492 0.409843,4.7315 -8.4189,-4.99489 -7.9004,-15.8693 0.669686,-14.0634 1.30866,-31.4717 0.699213,-37.3559z"/>
  <path class="fil7" d="M1086.21 894.838c1.06772,-10.4386 -7.99016,-0.603544 3.41339,-17.0894 11.4047,-16.4847 65.5063,-42.6733 65.5063,-42.6733 2.67992,-0.277559 29.739,50.7579 35.4236,57.7689 0,0 -7.14095,4.40552 -20.2807,12.6697 -29.2488,18.3933 -55.4729,39.3591 -91.2627,42.5492 -0.409843,4.7315 8.41772,-4.99489 7.9004,-15.8693 -0.669686,-14.0634 -1.30866,-31.4717 -0.700394,-37.3559z"/>
  <path class="fil8" d="M1053.46 838.691l0.00354331 0 0.011811 0 0.0188977 0.0011811 0.0011811 0 0.0248032 0 0.0354331 0.0011811 0.0425197 0 0.00472441 0 0.0437008 0.0011811 0.0555119 0.00236221 0.0637796 0.0011811 0.0141732 0.0011811 0.056693 0.0011811 0.0779528 0.00236221 0.0850394 0.00236221 0.0236221 0 0.0673229 0.00354331 0.0992127 0.00236221 0.106299 0.00236221 0.0366142 0.00236221 0.0744095 0.0011811 0.119291 0.00236221 0.125197 0.00472441 0.0519685 0.0011811 0.080315 0.00354331 0.138189 0.00354331 0.142913 0.00472441 0.0720473 0.00354331 0.0791339 0.0011811 0.158268 0.00590552 0.162992 0.00590552 0.090945 0.00236221 0.0791339 0.0011811 0.173622 0.00708662 0.18189 0.00590552 0.113386 0.00472441 0.0732284 0.0011811 0.193701 0.00708662 0.198425 0.00826772 0.137008 0.00472441 0.0661418 0.00236221 0.211417 0.00708662 0.214961 0.00826772 0.164173 0.00590552 0.0555119 0.00354331 0.226772 0.00826772 0.232677 0.00826772 0.191339 0.00826772 0.0448819 0.0011811 0.240945 0.00944883 0.246851 0.0106299 0.222047 0.00826772 0.0307087 0.00236221 0.257481 0.00944883 0.261024 0.011811 0.252756 0.0106299 0.0129921 0.0011811 0.271654 0.011811 0.276378 0.011811 0.279921 0.0106299 0.00354331 0.00236221 0.281103 0.0106299 0.290551 0.0129921 0.292914 0.0153543 0.0248032 0.0011811 0.272835 0.011811 0.302362 0.0141732 0.307087 0.0141732 0.0472441 0.00354331 0.262205 0.0129921 0.315355 0.0141732 0.317717 0.0165354 0.0708662 0.00354331 0.251575 0.011811 0.327166 0.0177165 0.329528 0.0165354 0.0956694 0.00472441 0.237402 0.011811 0.337796 0.0188977 0.338977 0.0177165 0.121654 0.00708662 0.223229 0.011811 0.346063 0.0200788 0.351969 0.0188977c15.5457,0.872835 40.5024,3.01299 47.3894,7.93229 10.2154,7.29567 2.54055,22.9016 5.46024,44.791 2.91496,21.8729 27.1028,222.937 15.437,218.562 -37.5969,7.04056 -135.638,40.8803 -189.738,5.7 -1.43268,-0.79252 -6.97441,-223.195 9.37205,-257.925l0.12874 -0.270473 0.127559 -0.26811 0.0165354 -0.0354331 0.111024 -0.230315 0.127559 -0.261024 0.0330709 -0.068504 0.220866 -0.444095 0.0507874 -0.101575 0.0767717 -0.151181 0.12874 -0.249213 0.0661418 -0.131102 0.0602363 -0.114567 0.12874 -0.242126 0.0838583 -0.161811 0.0437008 -0.0791339 0.232677 -0.424016 0.0248032 -0.0472441 0.129921 -0.230315 0.0283465 -0.0484252 0.165354 -0.288189 0.199606 -0.340158 0.00944883 -0.0129921c0.173622,-0.290551 0.349607,-0.571654 0.527953,-0.848032l0.0448819 -0.068504c0.283465,-0.432284 0.575197,-0.849213 0.876379,-1.24725l0.0259843 -0.034252 0.0389764 -0.0507874 0.147638 -0.190158 0.12874 -0.161811 0.0200788 -0.0259843 0.303544 -0.364961 0.311811 -0.357874 0.0200788 -0.0212599 0.298819 -0.323622 0.0425197 -0.046063 0.121654 -0.124016c0.164173,-0.168898 0.333071,-0.334252 0.504331,-0.494882l0.0897638 -0.0850394 0.0826772 -0.0755906 0.263386 -0.233858 0.0307087 -0.0271654 0.0602363 -0.0519685 0.18189 -0.154725 0.145276 -0.120473 0.0389764 -0.0295276 0.0106299 -0.00944883c0.240945,-0.194882 0.490158,-0.382677 0.747638,-0.56693l0.00826772 -0.00590552 0.011811 -0.00944883 0.0259843 -0.0165354 0.364961 -0.252756 0.0389764 -0.0271654 0.00944883 -0.00708662 0.366142 -0.236221 0.0696851 -0.0437008 0.0236221 -0.0129921 0.337796 -0.204331 0.100394 -0.0602363 0.119291 -0.0673229 0.22441 -0.126378 0.133465 -0.0744095 0.0944883 -0.0507874 0.39567 -0.204331 0.00708662 -0.00472441 0.0649607 -0.0330709 0.39567 -0.190158 0.0543308 -0.0283465 0.0354331 -0.0153543 0.248032 -0.114567 0.249213 -0.113386 0.00354331 0c6.15945,-2.70827 16.1232,-3.85394 34.6063,-4.87441l2.22756 -0.121654 0.0165354 -0.00236221 0.447638 -0.022441 0.0980316 -0.00590552 0.537402 -0.0295276 0.0484252 -0.00236221 1.29331 -0.0708662 0.0649607 -0.00354331 0.635434 -0.034252 0.135827 -0.00590552 0.601182 -0.034252 0.209055 -0.0106299 0.561024 -0.0307087 0.28937 -0.0153543 0.512599 -0.0283465 0.37441 -0.0200788 0.457087 -0.0248032 0.465355 -0.0248032 0.39567 -0.022441 0.559843 -0.0295276 0.329528 -0.0177165 0.655512 -0.0354331 0.257481 -0.0141732 0.757087 -0.0401575 0.179528 -0.0106299 0.863386 -0.046063 0.0956694 -0.00590552 0.969686 -0.0531496 0.0106299 0 0.999213 -0.0543308 0.0791339 -0.00354331 0.936615 -0.0519685 0.173622 -0.00826772 0.858662 -0.0472441 0.269292 -0.0141732 0.778347 -0.0425197 0.364961 -0.0188977 0.694489 -0.0377953 0.464174 -0.0236221 0.605906 -0.034252 0.565748 -0.0307087 0.514961 -0.0271654 0.666142 -0.0366142 0.420473 -0.022441 0.768898 -0.0413386 0.324803 -0.0188977 0.869292 -0.046063 0.227953 -0.011811 0.972048 -0.0519685 0.129921 -0.00708662 1.07008 -0.0578741 0.034252 -0.00236221 1.10197 -0.0590552 0.0649607 -0.00472441 1.03583 -0.0543308 0.162992 -0.00944883 0.934253 -0.0507874 0.259843 -0.0141732 0.831497 -0.0448819 0.357874 -0.0188977 0.728741 -0.0389764 0.45 -0.0248032 0.627166 -0.034252 0.542126 -0.0283465 0.526772 -0.0295276 0.629528 -0.0330709 0.427559 -0.0236221 0.714567 -0.0389764 0.327166 -0.0177165 0.797245 -0.0413386 0.232677 -0.0129921 0.874016 -0.0484252 0.138189 -0.00708662 0.946064 -0.0507874 0.0496063 -0.00354331 0.975591 -0.0519685 0.0377953 -0.0011811 0.916536 -0.0507874 0.121654 -0.00590552 0.810237 -0.0437008 0.200788 -0.00944883 0.7063 -0.0401575 0.275197 -0.0141732 0.607087 -0.0330709 0.34252 -0.0177165 0.512599 -0.0271654 0.402756 -0.022441 0.421654 -0.022441 0.461811 -0.0248032 0.333071 -0.0188977 0.510237 -0.0283465 0.252756 -0.0129921 0.551575 -0.0283465 0.177165 -0.0106299 0.587008 -0.0318898 0.10748 -0.00590552 0.61063 -0.0330709 0.0448819 -0.0011811 0.617717 -0.034252 0.011811 -0.0011811 0.565748 -0.0307087 0.0614174 -0.00236221 0.474804 -0.0259843 0.101575 -0.00472441 0.389764 -0.0212599 0.133465 -0.00826772 0.314173 -0.0153543 0.157087 -0.00826772 0.243307 -0.0141732 0.170079 -0.00944883 0.183071 -0.00944883 0.173622 -0.00944883 0.12874 -0.00708662 0.167717 -0.00944883 0.0826772 -0.00354331 0.151181 -0.00944883 0.0484252 -0.0011811 0.121654 -0.00708662 0.0212599 -0.0011811 0.0814961 -0.00472441 0.00590552 0 0.0295276 -0.0011811z"/>
  <path class="fil9" d="M961.552 750.934c-2.08229,-5.56654 -23.361,-11.8713 -16.6937,15.887 0.777166,3.22559 6.72048,13.8142 16.5414,13.9406 10.1894,0.132284 3.3378,-20.211 0.152362,-29.8276z"/>
  <path class="fil10" d="M991.712 620.959c58.0371,22.2673 77.1886,14.9244 89.7579,34.6618 13.1138,20.5914 -0.295276,69.6721 -8.4567,108.341 -4.65,22.0347 1.23071,37.3866 -7.46103,50.452 -2.52284,9.91536 -52.2792,10.5106 -77.6516,-2.16851 -17.0764,-8.53347 -15.3827,-13.3134 -24.404,-33.1819 -12.5114,-27.5587 -24.7772,-40.1894 -27.8433,-81.078 -0.794883,-10.5933 -1.79528,-30.9307 8.17678,-33.0591 -7.56024,-37.5237 34.9488,-53.9315 47.8819,-43.9678z"/>
  <path class="fil3" d="M1064.13 679.262c5.60315,15.0543 4.51536,62.002 0.0283465,100.256 -0.682678,5.81339 -3.39922,13.9654 -5.77205,21.5669 -2.14606,6.87638 -4.01221,13.3028 -3.83622,17.139 0.558662,12.2398 0.840946,15.7606 9.82796,20.7437 0.0602363,2.50866 -8.863,4.38544 -12.4158,6.7004 -5.79331,3.77362 -13.4469,20.9362 -22.2177,22.239 -7.0252,1.04291 -8.65158,-14.2299 -12.8539,-16.1705 -24.2315,-11.1969 -49.0867,-27.887 -57.7997,-54.8067 -8.38701,-13.5295 -10.7315,-115.015 -0.625985,-126.874 6.36497,-15.2232 28.2201,5.92441 45.7441,1.26969 44.53,-10.6807 57.404,0.142913 59.9209,7.93701z"/>
  <path class="fil9" d="M1061.24 791.917l-0.0425197 0.13937 -0.011811 0.0401575 -0.0307087 0.102756 -0.0425197 0.141732 -0.034252 0.112205 -0.00826772 0.0295276 -0.0437008 0.141732 -0.0425197 0.142913 -0.0129921 0.0425197 -0.0307087 0.100394 -0.0425197 0.142913 -0.0366142 0.114567 -0.00708662 0.0283465 -0.0437008 0.141732 -0.0437008 0.142913 -0.0141732 0.046063 -0.0295276 0.0968505 -0.0448819 0.142913 -0.0874016 0.287008 -0.0448819 0.142913 -0.0141732 0.0484252 -0.0295276 0.0956694 -0.0437008 0.142913 -0.0448819 0.144095 -0.0437008 0.142913 -0.046063 0.144095 -0.0153543 0.0507874 -0.0283465 0.0921261 -0.0448819 0.145276 -0.0389764 0.122835 -0.00590552 0.0200788 -0.0448819 0.144095 -0.0448819 0.144095 -0.0165354 0.0531496 -0.0283465 0.0897638 -0.0448819 0.145276 -0.0389764 0.126378 -0.00708662 0.0165354 -0.0437008 0.144095 -0.046063 0.144095 -0.0177165 0.0555119 -0.0271654 0.0885827 -0.0448819 0.144095 -0.0401575 0.12874 -0.00590552 0.0153543 -0.0448819 0.142913 -0.0448819 0.145276 -0.0177165 0.0578741 -0.0283465 0.0850394 -0.0448819 0.144095 -0.0413386 0.132284 -0.00354331 0.011811 -0.046063 0.144095 -0.0448819 0.144095 -0.0188977 0.0602363 -0.0259843 0.0838583 -0.046063 0.142913 -0.0413386 0.134646 -0.00354331 0.00944883 -0.0448819 0.144095 -0.046063 0.144095 -0.0188977 0.0625985 -0.0248032 0.080315 -0.0448819 0.144095 -0.0437008 0.135827 -0.00236221 0.00708662 -0.0448819 0.144095 -0.0448819 0.142913 -0.0212599 0.0649607 -0.0248032 0.0779528 -0.0437008 0.142913 -0.0437008 0.13937 -0.00236221 0.00472441 -0.0448819 0.142913 -0.0448819 0.142913 -0.0212599 0.0673229 -0.0236221 0.0755906 -0.0448819 0.142913 -0.0437008 0.13937 0 0.00354331 -0.046063 0.141732 -0.0437008 0.142913 -0.0212599 0.0696851 -0.0236221 0.0720473 -0.0437008 0.142913 -0.0448819 0.141732c-2.14606,6.87638 -4.01221,13.3016 -3.83622,17.139l0.0011811 0.034252 0.00236221 0.034252 0 0.034252 0.00236221 0.0330709 0.0011811 0.034252 0.00236221 0.034252 0.0011811 0.0330709 0.00236221 0.034252 0 0.0330709 0.00236221 0.034252 0.0011811 0.034252 0.00236221 0.0330709 0.0011811 0.034252 0.0011811 0.0330709 0.0011811 0.0330709 0.00236221 0.0330709 0 0.0283465 0.0011811 0.00590552 0.00236221 0.0330709 0 0.0330709 0.00236221 0.0330709 0.0011811 0.0330709 0.00236221 0.034252 0.0011811 0.0330709 0.00236221 0.0318898 0 0.034252 0.00236221 0.0330709 0.0011811 0.0318898 0.00236221 0.0330709 0 0.0330709 0.00236221 0.0330709 0.0011811 0.0330709 0.00236221 0.0318898 0.0011811 0.0330709 0.0011811 0.0212599 0 0.011811 0.0011811 0.0318898 0.00236221 0.0330709 0.0011811 0.0318898 0.00236221 0.0330709 0 0.0318898 0.00236221 0.0330709 0.0011811 0.0318898 0.00236221 0.0330709 0.0011811 0.0307087 0.0011811 0.0330709 0.0011811 0.0318898 0.00236221 0.0318898 0.0011811 0.0330709 0.0011811 0.0318898 0.0011811 0.0318898 0.00236221 0.0318898 0.0011811 0.0141732 0 0.0177165 0.00236221 0.0318898 0 0.0318898 0.00236221 0.0318898 0.0011811 0.0318898 0.00236221 0.0318898 0.0011811 0.0307087 0.0011811 0.0318898 0.0011811 0.0318898 0.00236221 0.0318898 0.0011811 0.0307087 0.0011811 0.0307087 0.0011811 0.0318898 0.00236221 0.0318898 0.00472441 0.101575 0.0200788 0.388583 0.00708662 0.129921 0.0188977 0.350788 0.00826772 0.155906c0.400394,7.35473 0.729922,11.7697 7.16339,16.0205l0.201969 0.131102 0.0437008 0.0271654 0.295276 0.187795 0.0153543 0.00944883 0.10748 0.0673229 0.258662 0.159449 0.00236221 0.0011811 0.272835 0.164173 0.102756 0.0625985 0.068504 0.0401575 0.32126 0.188977 0.0472441 0.0271654 0.355512 0.20315 0.0248032 0.0141732 0.389764 0.218504 0 0.0106299 0 0.0106299 -0.0011811 0.0283465 -0.00472441 0.0826772 -0.00590552 0.0425197 -0.0106299 0.068504 -0.0165354 0.0637796 -0.0129921 0.0496063 -0.0212599 0.0578741 -0.0236221 0.0614174 -0.00236221 0.00708662 -0.0437008 0.0933072 -0.0106299 0.0200788 -0.0200788 0.034252 -0.0437008 0.0744095 -0.011811 0.0188977 -0.0649607 0.0921261 -0.00354331 0.00354331 -0.0732284 0.0933072 -0.0141732 0.0177165 -0.0826772 0.0933072 -0.0153543 0.0177165 -0.0921261 0.0921261 -0.0165354 0.0165354 -0.100394 0.0921261 -0.0188977 0.0165354 -0.108662 0.0921261 -0.126378 0.101575 -0.00944883 0.00708662 -0.0188977 0.0153543 -0.125197 0.090945 -0.0212599 0.0153543 -0.132284 0.0921261 -0.0212599 0.0141732 -0.140551 0.0921261 -0.0212599 0.0141732 -0.148819 0.090945 -0.175984 0.105118 -0.0236221 0.0141732 -0.161811 0.090945 -0.0236221 0.0129921 -0.167717 0.090945 -0.0236221 0.0129921 -0.173622 0.090945 -0.0248032 0.0129921 -0.179528 0.0897638 -0.0236221 0.0129921 -0.185433 0.090945 -0.0248032 0.011811 -0.191339 0.090945 -0.0248032 0.0106299 -0.197244 0.090945 -0.0236221 0.011811 -0.201969 0.090945 -0.0236221 0.0106299 -0.206693 0.090945 -0.0236221 0.00944883 -0.211417 0.0921261 -0.0236221 0.00944883 -0.214961 0.090945 -0.0236221 0.0106299 -0.218504 0.0897638 -0.0236221 0.0106299 -0.222047 0.090945 -0.022441 0.00944883 -0.226772 0.090945 -0.022441 0.00944883 -0.229134 0.090945 -0.0212599 0.00944883 -0.231496 0.090945 -0.0212599 0.00826772 -0.23504 0.0921261 -0.0212599 0.00826772 -0.23504 0.0921261 -0.0212599 0.00826772 -0.237402 0.0921261 -0.0200788 0.00708662 -0.239764 0.0921261 -0.0188977 0.00826772 -0.242126 0.0921261 -0.0177165 0.00708662 -0.243307 0.0933072 -0.0177165 0.00590552 -0.242126 0.0944883 -0.0177165 0.00590552 -0.243307 0.0944883 -0.0153543 0.00590552 -0.244488 0.0933072 -0.0153543 0.00708662 -0.243307 0.0933072 -0.0141732 0.00708662 -0.242126 0.0944883 -0.0141732 0.00472441 -0.242126 0.0956694 -0.0129921 0.00590552 -0.240945 0.0956694 -0.011811 0.00472441 -0.240945 0.0968505 -0.0106299 0.00354331 -0.237402 0.0968505 -0.0106299 0.00472441 -0.23504 0.0980316 -0.00944883 0.00354331 -0.233858 0.0980316 -0.00944883 0.00354331 -0.229134 0.0992127 -0.00944883 0.00236221 -0.226772 0.0992127 -0.00708662 0.00354331 -0.223229 0.100394 -0.00708662 0.00236221 -0.219685 0.100394 -0.00590552 0.00354331 -0.214961 0.101575 -0.00590552 0.00236221 -0.211417 0.101575 -0.00472441 0.0011811 -0.205512 0.103937 -0.00472441 0.0011811 -0.199606 0.103937 -0.00354331 0.0011811 -0.196063 0.105118 -0.0011811 0 -0.190158 0.105118 -0.0011811 0.0011811 -0.184252 0.106299 -0.0011811 0 -0.177165 0.10748 0 0 -0.170079 0.108662c-5.79331,3.77244 -17.9906,27.7571 -26.7626,29.0587 -0.827953,0.124016 -1.76575,-0.0720473 -2.78032,-0.509056 -4.64174,-2.73544 -4.87205,-20.7862 -18.8799,-29.2595 -8.88662,-5.3752 -18.9898,-12.4665 -24.1524,-17.2311l-0.068504 -0.0637796 -0.0129921 -0.011811 -0.849213 -0.805512 -0.152362 -0.147638c-0.252756,-0.243307 -0.504331,-0.487796 -0.752363,-0.733465l-0.0732284 -0.0708662 -0.101575 -0.100394 -0.78189 -0.786615 -0.00354331 -0.00354331 -0.0129921 -0.0129921 -0.0283465 -0.0283465c-0.282284,-0.288189 -0.563386,-0.577559 -0.842127,-0.869292l-0.0425197 -0.0437008 -0.219685 -0.23504c20.5583,18.0236 41.9103,10.311 58.1705,-2.04095 16.1138,-12.241 27.2292,-29.0362 27.6213,-29.8559z"/>
  <path class="fil11" d="M1065.61 750.484c2.0941,-6.13347 25.0914,-13.6713 18.691,16.7929 -0.742914,3.54095 -6.88938,15.2681 -17.5914,15.7146 -11.1012,0.462992 -4.27087,-21.926 -1.09961,-32.5075z"/>
  <path class="fil10" d="M1076.89 744.797l-8.56536 -35.7886c-0.255118,8.24292 -7.1941,58.4563 -12.6626,62.9989 11.5866,3.12166 13.9429,-28.6677 21.228,-27.2103z"/>
  <polygon class="fil12" points="565.18,581.749 1482.82,581.749 1482.82,606.874 565.18,606.874 "/>
  <path class="fil13" d="M1357.89 463.999l37.0477 0c6.57402,0 12.5421,4.02048 16.8591,10.4965l-0.0283465 0.0413386c4.33465,6.52205 7.0252,15.4618 7.0252,25.2496l0 184.169c0,9.86339 -2.6811,18.8162 -6.99686,25.291l-0.0555119 0c-4.31811,6.47481 -10.2673,10.4953 -16.8036,10.4953l-37.0477 0c-6.36851,0 -12.4536,-3.90945 -16.8803,-10.1894 -4.57323,-6.48662 -7.52835,-15.5173 -7.52835,-25.5969l0 -184.169c0,-10.0807 2.95512,-19.1114 7.52835,-25.5969 4.42678,-6.27993 10.5106,-10.1906 16.8803,-10.1906z"/>
  <path class="fil13" d="M682.453 463.999l-37.0477 0c-6.57402,0 -12.5421,4.02048 -16.8579,10.4965l0.0271654 0.0413386c-4.33465,6.52205 -7.02402,15.4618 -7.02402,25.2496l0 184.169c0,9.86339 2.67992,18.8162 6.99567,25.291l0.0555119 0c4.31929,6.47481 10.2673,10.4953 16.8036,10.4953l37.0477 0c6.36969,0 12.4536,-3.90945 16.8803,-10.1894 4.57441,-6.48662 7.52835,-15.5173 7.52835,-25.5969l0 -184.169c0,-10.0807 -2.95512,-19.1114 -7.52835,-25.5969 -4.42559,-6.27993 -10.5106,-10.1906 -16.8803,-10.1906z"/>
  <path class="fil13" d="M1431.01 517.179l18.5351 0c3.28937,0 6.2752,2.34803 8.43426,6.13111l-0.0141732 0.0236221c2.16851,3.80906 3.51496,9.0319 3.51496,14.7484l0 107.576c0,5.76142 -1.34173,10.9902 -3.50079,14.7721l-0.0271654 0c-2.16142,3.78307 -5.13662,6.13111 -8.40709,6.13111l-18.5351 0c-3.18662,0 -6.23032,-2.28425 -8.44489,-5.95158 -2.2878,-3.78898 -3.76654,-9.06379 -3.76654,-14.9516l0 -107.576c0,-5.8878 1.47874,-11.1626 3.76654,-14.9516 2.21457,-3.66733 5.25827,-5.95158 8.44489,-5.95158z"/>
  <path class="fil13" d="M609.339 517.179l-18.5339 0c-3.28937,0 -6.2752,2.34803 -8.43544,6.13111l0.0141732 0.0236221c-2.16851,3.80906 -3.51378,9.0319 -3.51378,14.7484l0 107.576c0,5.76142 1.34055,10.9902 3.49961,14.7721l0.0283465 0c2.16024,3.78307 5.13662,6.13111 8.40709,6.13111l18.5339 0c3.18662,0 6.23032,-2.28425 8.44607,-5.95158 2.2878,-3.78898 3.76536,-9.06379 3.76536,-14.9516l0 -107.576c0,-5.8878 -1.47874,-11.1626 -3.76536,-14.9516 -2.21457,-3.66733 -5.25945,-5.95158 -8.44607,-5.95158z"/>
 </g>
</svg>
